<svg width="279.000000" height="61.000000" viewBox="0 0 279 61" fill="none" xmlns="http://www.w3.org/2000/svg" xmlns:xlink="http://www.w3.org/1999/xlink">
	<desc>
			Created with Pixso.
	</desc>
	<defs/>
	<path id="400 University Drive Suite 200 Coral Gables, FL 33134 USA" d="M56.05 1.72Q56.23 1.8 56.46 1.8Q56.65 1.8 56.81 1.74Q56.99 1.66 57.14 1.51Q57.27 1.38 57.34 1.23Q57.42 1.04 57.42 0.81Q57.42 0.57 57.33 0.38Q57.26 0.23 57.14 0.11Q56.99 -0.04 56.81 -0.11Q56.65 -0.18 56.46 -0.18Q56.23 -0.18 56.05 -0.1Q55.89 -0.03 55.75 0.11Q55.63 0.23 55.56 0.38Q55.47 0.58 55.47 0.81Q55.47 1.03 55.55 1.22Q55.62 1.38 55.75 1.51Q55.89 1.65 56.05 1.72ZM93.2 1.72Q93.39 1.8 93.61 1.8Q93.8 1.8 93.97 1.74Q94.14 1.66 94.29 1.51Q94.42 1.38 94.49 1.23Q94.57 1.04 94.57 0.81Q94.57 0.57 94.48 0.38Q94.41 0.23 94.29 0.11Q94.14 -0.04 93.97 -0.11Q93.8 -0.18 93.61 -0.18Q93.39 -0.18 93.2 -0.1Q93.04 -0.03 92.9 0.11Q92.78 0.23 92.71 0.38Q92.62 0.58 92.62 0.81Q92.62 1.03 92.7 1.22Q92.77 1.38 92.9 1.51Q93.04 1.65 93.2 1.72ZM133.52 1.72Q133.71 1.8 133.93 1.8Q134.12 1.8 134.29 1.74Q134.46 1.66 134.61 1.51Q134.74 1.38 134.81 1.23Q134.89 1.04 134.89 0.81Q134.89 0.57 134.8 0.38Q134.73 0.23 134.61 0.11Q134.46 -0.04 134.29 -0.11Q134.12 -0.18 133.93 -0.18Q133.71 -0.18 133.52 -0.1Q133.36 -0.03 133.22 0.11Q133.1 0.23 133.03 0.38Q132.94 0.58 132.94 0.81Q132.94 1.03 133.02 1.22Q133.09 1.38 133.22 1.51Q133.36 1.65 133.52 1.72ZM180.26 1.72Q180.44 1.8 180.67 1.8Q180.86 1.8 181.02 1.74Q181.2 1.66 181.35 1.51Q181.47 1.38 181.54 1.23Q181.63 1.04 181.63 0.81Q181.63 0.57 181.54 0.38Q181.47 0.23 181.35 0.11Q181.2 -0.04 181.02 -0.11Q180.86 -0.18 180.67 -0.18Q180.44 -0.18 180.26 -0.1Q180.09 -0.03 179.96 0.11Q179.84 0.23 179.76 0.38Q179.68 0.58 179.68 0.81Q179.68 1.03 179.76 1.22Q179.83 1.38 179.96 1.51Q180.09 1.65 180.26 1.72ZM278.27 12L278.27 0.16L276.81 0.16L276.81 12L278.27 12ZM206.63 8.15Q205.48 9.19 203.45 10.83L203.45 11.87L211.15 11.87L211.15 10.65L205.64 10.65Q207.21 9.39 208.22 8.44Q209.23 7.48 210.02 6.23Q210.69 5.16 210.79 4.03Q210.81 3.84 210.81 3.64Q210.81 2.39 210.22 1.56Q210.05 1.33 209.84 1.13Q209.71 1 209.56 0.89Q208.64 0.22 207.23 0.22Q206.04 0.22 205.17 0.75Q204.86 0.94 204.59 1.19Q204.47 1.31 204.37 1.43Q203.56 2.38 203.5 3.96L204.91 3.96Q204.95 2.87 205.51 2.2Q205.53 2.17 205.55 2.15Q205.7 1.98 205.87 1.86Q206.42 1.47 207.24 1.47Q208.28 1.47 208.79 1.99Q208.83 2.03 208.87 2.07Q209.37 2.67 209.37 3.71Q209.37 4.81 208.58 5.96Q207.79 7.1 206.63 8.15ZM10.95 1.8Q10.06 3.34 10.06 6.09Q10.06 8.89 10.95 10.44Q11.21 10.89 11.58 11.2Q12.49 12 14.09 12Q15.66 12 16.57 11.22Q16.95 10.9 17.21 10.44Q18.11 8.89 18.11 6.09Q18.11 3.34 17.21 1.8Q16.95 1.35 16.58 1.04Q15.67 0.25 14.09 0.25Q12.48 0.25 11.57 1.05Q11.21 1.36 10.95 1.8ZM21 1.8Q20.11 3.34 20.11 6.09Q20.11 8.89 21 10.44Q21.26 10.89 21.62 11.2Q22.54 12 24.14 12Q25.71 12 26.62 11.22Q26.99 10.9 27.26 10.44Q28.15 8.89 28.15 6.09Q28.15 3.34 27.26 1.8Q27 1.35 26.63 1.04Q25.72 0.25 24.14 0.25Q22.53 0.25 21.61 1.05Q21.25 1.36 21 1.8ZM213.72 1.8Q212.83 3.34 212.83 6.09Q212.83 8.89 213.72 10.44Q213.98 10.89 214.35 11.2Q215.26 12 216.86 12Q218.43 12 219.34 11.22Q219.71 10.9 219.98 10.44Q220.87 8.89 220.87 6.09Q220.87 3.34 219.98 1.8Q219.72 1.35 219.35 1.04Q218.44 0.25 216.86 0.25Q215.25 0.25 214.33 1.05Q213.97 1.36 213.72 1.8ZM223.77 1.8Q222.88 3.34 222.88 6.09Q222.88 8.89 223.77 10.44Q224.03 10.89 224.39 11.2Q225.31 12 226.91 12Q228.48 12 229.39 11.22Q229.76 10.9 230.02 10.44Q230.92 8.89 230.92 6.09Q230.92 3.34 230.02 1.8Q229.77 1.35 229.4 1.04Q228.49 0.25 226.91 0.25Q225.3 0.25 224.38 1.05Q224.02 1.36 223.77 1.8ZM-0.36 8.32L-0.36 9.42L5.56 9.42L5.56 12L7 12L7 9.42L8.6 9.42L8.6 8.16L7 8.16L7 0.54L5.26 0.54L-0.36 8.32ZM161.84 11.72Q162.72 12.11 163.82 12.11Q164.97 12.11 165.82 11.66Q166.62 11.24 167.05 10.57Q167.07 10.53 167.1 10.49Q167.36 10.06 167.46 9.6Q167.53 9.29 167.53 8.96Q167.53 7.9 167.05 7.28Q166.69 6.82 166.21 6.53Q166.06 6.44 165.9 6.37Q165.23 6.07 164.12 5.77Q163.21 5.51 162.71 5.32Q162.33 5.17 162.05 4.92Q161.95 4.83 161.86 4.73Q161.79 4.66 161.74 4.58Q161.52 4.23 161.52 3.74Q161.52 3.16 161.78 2.76Q161.91 2.57 162.09 2.42Q162.14 2.38 162.2 2.34Q162.75 1.95 163.58 1.95Q164.53 1.95 165.11 2.41Q165.13 2.42 165.14 2.44Q165.63 2.83 165.77 3.33Q165.81 3.44 165.82 3.56L167.42 3.56Q167.35 2.87 167.03 2.32Q166.75 1.85 166.29 1.48Q166.24 1.44 166.18 1.4Q165.21 0.7 163.72 0.7Q162.64 0.7 161.79 1.08Q161.13 1.39 160.7 1.89Q160.59 2.02 160.49 2.17Q160.37 2.35 160.29 2.53Q160.03 3.1 160.03 3.79Q160.03 4.83 160.5 5.44Q160.87 5.93 161.36 6.21Q161.49 6.28 161.63 6.35Q162.3 6.64 163.4 6.92Q164.3 7.16 164.82 7.37Q165.25 7.54 165.57 7.83Q165.64 7.9 165.71 7.98Q165.76 8.04 165.8 8.1Q166.06 8.47 166.06 9.02Q166.06 9.46 165.88 9.81Q165.73 10.11 165.46 10.35Q165.45 10.36 165.44 10.37Q164.85 10.87 163.82 10.87Q162.73 10.87 162.16 10.34Q161.89 10.08 161.73 9.77Q161.56 9.43 161.52 9.02L159.96 9.02Q159.97 9.65 160.22 10.18Q160.32 10.41 160.48 10.63Q160.53 10.7 160.58 10.76Q161.06 11.36 161.84 11.72ZM237.38 3.96Q236.89 5.07 236.89 6.41Q236.89 7.78 237.41 8.92Q237.51 9.13 237.62 9.34Q238.04 10.08 238.63 10.63Q239.08 11.05 239.63 11.37Q239.99 11.57 240.37 11.72Q241.34 12.09 242.46 12.09Q244.03 12.09 245.26 11.44Q245.46 11.34 245.64 11.22Q246.12 10.91 246.51 10.52Q247.22 9.79 247.63 8.75L245.88 8.75Q245.54 9.49 244.97 9.98Q244.77 10.15 244.55 10.29Q243.68 10.83 242.46 10.83Q241.54 10.83 240.76 10.49Q240.56 10.4 240.36 10.28Q240.04 10.1 239.77 9.85Q239.25 9.39 238.91 8.74Q238.38 7.74 238.38 6.41Q238.38 5.07 238.91 4.07Q239.25 3.4 239.78 2.94Q240.05 2.71 240.36 2.52Q240.56 2.41 240.76 2.32Q241.54 1.98 242.46 1.98Q243.68 1.98 244.55 2.52Q244.78 2.67 244.98 2.84Q245.54 3.33 245.88 4.07L247.63 4.07Q247.21 3 246.47 2.25Q246.09 1.87 245.64 1.58Q245.43 1.44 245.21 1.33Q244 0.7 242.46 0.7Q241.37 0.7 240.42 1.06Q240.01 1.22 239.63 1.44Q239.1 1.75 238.66 2.16Q238.05 2.72 237.62 3.48Q237.49 3.71 237.38 3.96ZM36.09 7.9L36.09 0.84L34.63 0.84L34.63 7.88Q34.63 9.28 35.18 10.23Q35.53 10.82 36.02 11.22Q36.33 11.47 36.69 11.64Q37.64 12.11 38.83 12.11Q40.01 12.11 40.96 11.64Q41.33 11.46 41.64 11.21Q42.13 10.81 42.47 10.23Q43.04 9.28 43.04 7.88L43.04 0.84L41.58 0.84L41.58 7.9Q41.58 9.39 40.85 10.11Q40.75 10.21 40.64 10.29Q39.95 10.83 38.84 10.83Q37.71 10.83 37.01 10.28Q36.91 10.2 36.82 10.11Q36.09 9.39 36.09 7.9ZM122.53 1.52Q121.19 0.84 119.37 0.84L115.9 0.84L115.9 12L119.37 12Q121.19 12 122.53 11.33Q123.33 10.93 123.91 10.32Q124.29 9.91 124.58 9.41Q125.29 8.16 125.29 6.44Q125.29 4.73 124.58 3.47Q124.29 2.96 123.9 2.54Q123.33 1.93 122.53 1.52ZM98.57 9.6L98.57 4.43L100.86 4.43L100.86 3.23L98.57 3.23L98.57 1.02L97.11 1.02L97.11 3.23L95.98 3.23L95.98 4.43L97.11 4.43L97.11 9.6Q97.11 10.87 97.72 11.44Q98.33 12 99.55 12L100.86 12L100.86 10.76L99.79 10.76Q99.11 10.76 98.84 10.5Q98.57 10.23 98.57 9.6ZM185.63 9.6L185.63 4.43L187.92 4.43L187.92 3.23L185.63 3.23L185.63 1.02L184.17 1.02L184.17 3.23L183.03 3.23L183.03 4.43L184.17 4.43L184.17 9.6Q184.17 10.87 184.78 11.44Q185.39 12 186.6 12L187.92 12L187.92 10.76L186.84 10.76Q186.17 10.76 185.9 10.5Q185.63 10.23 185.63 9.6ZM16.48 3.73Q16.67 4.7 16.67 6.09Q16.67 7.53 16.48 8.51Q16.3 9.48 15.73 10.08Q15.67 10.14 15.61 10.19Q15.06 10.67 14.09 10.67Q13.1 10.67 12.54 10.18Q12.48 10.13 12.43 10.08Q11.87 9.48 11.68 8.51Q11.5 7.53 11.5 6.09Q11.5 4.7 11.68 3.73Q11.87 2.76 12.43 2.17Q12.49 2.12 12.55 2.07Q13.11 1.58 14.09 1.58Q15.05 1.58 15.6 2.06Q15.67 2.11 15.73 2.17Q16.3 2.76 16.48 3.73ZM26.53 3.73Q26.72 4.7 26.72 6.09Q26.72 7.53 26.53 8.51Q26.34 9.48 25.78 10.08Q25.72 10.14 25.66 10.19Q25.11 10.67 24.14 10.67Q23.15 10.67 22.59 10.18Q22.53 10.13 22.48 10.08Q21.92 9.48 21.73 8.51Q21.55 7.53 21.55 6.09Q21.55 4.7 21.73 3.73Q21.92 2.76 22.48 2.17Q22.54 2.12 22.59 2.07Q23.15 1.58 24.14 1.58Q25.1 1.58 25.65 2.06Q25.72 2.11 25.78 2.17Q26.34 2.76 26.53 3.73ZM219.25 3.73Q219.44 4.7 219.44 6.09Q219.44 7.53 219.25 8.51Q219.07 9.48 218.5 10.08Q218.44 10.14 218.38 10.19Q217.83 10.67 216.86 10.67Q215.87 10.67 215.31 10.18Q215.25 10.13 215.2 10.08Q214.64 9.48 214.45 8.51Q214.27 7.53 214.27 6.09Q214.27 4.7 214.45 3.73Q214.64 2.76 215.2 2.17Q215.26 2.12 215.31 2.07Q215.88 1.58 216.86 1.58Q217.82 1.58 218.37 2.06Q218.44 2.11 218.5 2.17Q219.07 2.76 219.25 3.73ZM229.3 3.73Q229.48 4.7 229.48 6.09Q229.48 7.53 229.3 8.51Q229.11 9.48 228.55 10.08Q228.49 10.14 228.43 10.19Q227.87 10.67 226.91 10.67Q225.92 10.67 225.35 10.18Q225.3 10.13 225.25 10.08Q224.68 9.48 224.5 8.51Q224.32 7.53 224.32 6.09Q224.32 4.7 224.5 3.73Q224.68 2.76 225.25 2.17Q225.3 2.12 225.36 2.07Q225.92 1.58 226.91 1.58Q227.87 1.58 228.42 2.06Q228.49 2.11 228.55 2.17Q229.11 2.76 229.3 3.73ZM122.52 9.79Q121.4 10.8 119.37 10.8L117.35 10.8L117.35 2.03L119.37 2.03Q121.32 2.03 122.44 2.99Q122.55 3.09 122.66 3.19Q122.79 3.33 122.9 3.47Q123.8 4.6 123.8 6.44Q123.8 8.27 122.91 9.38Q122.8 9.52 122.67 9.65Q122.6 9.72 122.52 9.79ZM1.32 8.16L5.63 2.06L5.63 8.16L1.32 8.16ZM51.79 3.6Q50.93 3.07 49.74 3.07Q48.99 3.07 48.35 3.32Q48.22 3.37 48.1 3.44Q47.64 3.67 47.29 4.01Q47.09 4.22 46.92 4.48L46.92 3.23L45.46 3.23L45.46 12L46.92 12L46.92 7.15Q46.92 5.77 47.6 5.05Q47.78 4.86 48 4.72Q48.59 4.33 49.43 4.33Q50.3 4.33 50.89 4.74Q51.07 4.86 51.23 5.03L51.23 5.03Q51.88 5.72 51.88 7.03L51.88 12L53.32 12L53.32 6.83Q53.32 5.17 52.5 4.22Q52.42 4.12 52.33 4.03Q52.08 3.79 51.79 3.6ZM80.55 3.89Q80.22 4.21 79.99 4.65L79.99 3.23L78.54 3.23L78.54 12L79.99 12L79.99 7.23Q79.99 5.79 80.71 5.13Q81.32 4.57 82.44 4.57L82.83 4.57L82.83 3.07Q81.8 3.07 81.09 3.48Q80.79 3.66 80.55 3.89ZM129.23 3.89Q128.89 4.21 128.67 4.65L128.67 3.23L127.21 3.23L127.21 12L128.67 12L128.67 7.23Q128.67 5.79 129.38 5.13Q129.99 4.57 131.12 4.57L131.5 4.57L131.5 3.07Q130.48 3.07 129.76 3.48Q129.47 3.66 129.23 3.89ZM262.04 3.89Q261.71 4.21 261.48 4.65L261.48 3.23L260.03 3.23L260.03 12L261.48 12L261.48 7.23Q261.48 5.79 262.2 5.13Q262.81 4.57 263.93 4.57L264.31 4.57L264.31 3.07Q263.29 3.07 262.58 3.48Q262.28 3.66 262.04 3.89ZM76.57 8.16Q76.62 7.69 76.62 7.28Q76.62 6.18 76.18 5.29Q76.14 5.21 76.1 5.12Q75.87 4.7 75.55 4.36Q75.15 3.93 74.62 3.63Q74.58 3.61 74.54 3.59Q73.61 3.08 72.41 3.08Q71.17 3.08 70.2 3.6Q70.17 3.62 70.14 3.64Q69.75 3.86 69.43 4.15Q68.94 4.6 68.62 5.21Q68.07 6.23 68.07 7.6Q68.07 8.96 68.63 9.99Q68.98 10.63 69.49 11.08Q69.8 11.37 70.18 11.58Q70.32 11.66 70.47 11.73Q71.34 12.14 72.41 12.14Q73.83 12.14 74.83 11.49Q74.93 11.42 75.03 11.35Q75.58 10.94 75.94 10.4Q76.27 9.9 76.44 9.29L74.87 9.29Q74.74 9.68 74.5 9.98Q74.29 10.26 73.98 10.47Q73.36 10.91 72.41 10.91Q71.7 10.91 71.13 10.63Q70.76 10.46 70.45 10.18Q70.29 10.04 70.16 9.87Q69.63 9.2 69.56 8.16L76.57 8.16ZM85.8 11.8Q86.6 12.14 87.61 12.14Q88.56 12.14 89.28 11.81Q89.96 11.5 90.36 10.98Q90.38 10.95 90.41 10.91Q90.59 10.65 90.69 10.37Q90.81 10.01 90.81 9.61Q90.8 8.88 90.44 8.41Q90.41 8.36 90.37 8.32Q90.13 8.04 89.84 7.84Q89.61 7.68 89.35 7.57Q88.76 7.32 87.82 7.07Q87.07 6.86 86.64 6.69Q86.22 6.52 85.94 6.25Q85.84 6.15 85.77 6.03Q85.66 5.81 85.66 5.53Q85.66 5.29 85.74 5.1Q85.86 4.84 86.12 4.65Q86.59 4.32 87.37 4.32Q88.22 4.32 88.72 4.73L88.72 4.73Q88.93 4.9 89.06 5.12Q89.25 5.43 89.27 5.83L90.73 5.83Q90.69 4.99 90.29 4.39Q90.08 4.07 89.77 3.82Q89.73 3.79 89.69 3.76Q88.81 3.08 87.42 3.08Q86.47 3.08 85.74 3.41Q85 3.74 84.6 4.3L84.6 4.3Q84.38 4.61 84.28 4.96Q84.2 5.23 84.2 5.53Q84.2 6.32 84.58 6.82Q84.61 6.86 84.64 6.9Q84.9 7.21 85.23 7.43Q85.45 7.58 85.7 7.69Q86.31 7.95 87.29 8.2Q88.36 8.48 88.88 8.76Q89.14 8.9 89.26 9.11Q89.39 9.33 89.39 9.61Q89.39 9.84 89.31 10.03Q89.2 10.32 88.91 10.54Q88.43 10.91 87.59 10.91Q86.7 10.91 86.15 10.49Q85.82 10.25 85.67 9.92Q85.56 9.69 85.53 9.42L84.03 9.42Q84.06 9.9 84.24 10.32Q84.36 10.59 84.54 10.83Q84.57 10.88 84.6 10.92Q85.05 11.48 85.8 11.8ZM154.04 8.16Q154.09 7.69 154.09 7.28Q154.09 6.18 153.66 5.29Q153.61 5.21 153.57 5.12Q153.34 4.7 153.02 4.36Q152.62 3.93 152.09 3.63Q152.05 3.61 152.02 3.59Q151.08 3.08 149.88 3.08Q148.64 3.08 147.67 3.6Q147.64 3.62 147.62 3.64Q147.22 3.86 146.9 4.15Q146.42 4.6 146.09 5.21Q145.55 6.23 145.55 7.6Q145.55 8.96 146.11 9.99Q146.45 10.63 146.96 11.08Q147.28 11.37 147.65 11.58Q147.79 11.66 147.94 11.73Q148.81 12.14 149.88 12.14Q151.3 12.14 152.3 11.49Q152.41 11.42 152.51 11.35Q153.05 10.94 153.41 10.4Q153.74 9.9 153.91 9.29L152.35 9.29Q152.21 9.68 151.97 9.98Q151.76 10.26 151.46 10.47Q150.83 10.91 149.88 10.91Q149.17 10.91 148.6 10.63Q148.23 10.46 147.92 10.18Q147.76 10.04 147.63 9.87Q147.1 9.2 147.03 8.16L154.04 8.16ZM197.63 8.16Q197.67 7.69 197.67 7.28Q197.67 6.18 197.24 5.29Q197.2 5.21 197.15 5.12Q196.92 4.7 196.6 4.36Q196.21 3.93 195.67 3.63Q195.64 3.61 195.6 3.59Q194.67 3.08 193.47 3.08Q192.22 3.08 191.26 3.6Q191.23 3.62 191.2 3.64Q190.81 3.86 190.48 4.15Q190 4.6 189.67 5.21Q189.13 6.23 189.13 7.6Q189.13 8.96 189.69 9.99Q190.04 10.63 190.55 11.08Q190.86 11.37 191.24 11.58Q191.38 11.66 191.52 11.73Q192.4 12.14 193.47 12.14Q194.89 12.14 195.89 11.49Q195.99 11.42 196.09 11.35Q196.64 10.94 197 10.4Q197.33 9.9 197.5 9.29L195.93 9.29Q195.8 9.68 195.56 9.98Q195.34 10.26 195.04 10.47Q194.41 10.91 193.47 10.91Q192.76 10.91 192.18 10.63Q191.82 10.46 191.51 10.18Q191.35 10.04 191.22 9.87Q190.68 9.2 190.62 8.16L197.63 8.16ZM251.84 11.8Q252.65 12.14 253.61 12.14Q254.58 12.14 255.42 11.8Q255.66 11.7 255.88 11.58Q256.32 11.34 256.68 11.01Q257.16 10.58 257.5 9.99Q257.53 9.94 257.56 9.88Q258.1 8.89 258.1 7.6Q258.1 6.23 257.52 5.21Q257.18 4.61 256.7 4.18Q256.35 3.87 255.93 3.64Q255.75 3.54 255.57 3.46Q254.7 3.08 253.68 3.08Q252.63 3.08 251.75 3.47Q251.58 3.55 251.42 3.64Q251.03 3.85 250.71 4.13Q250.19 4.58 249.82 5.22Q249.8 5.26 249.78 5.3Q249.24 6.3 249.24 7.6Q249.24 8.96 249.81 9.99Q250.15 10.6 250.63 11.04Q250.97 11.35 251.38 11.58Q251.6 11.71 251.84 11.8ZM265.99 5.22Q265.45 6.23 265.45 7.58Q265.45 8.9 265.99 9.94L265.99 9.95Q266.38 10.69 266.98 11.2Q267.21 11.4 267.48 11.57Q267.78 11.75 268.1 11.87Q268.79 12.14 269.59 12.14Q270.69 12.14 271.52 11.68Q271.55 11.66 271.59 11.64Q272.37 11.18 272.8 10.49Q272.84 10.43 272.88 10.36L272.88 12L274.34 12L274.34 3.23L272.88 3.23L272.88 4.83Q272.85 4.77 272.82 4.72Q272.4 4.04 271.61 3.58Q270.76 3.08 269.61 3.08Q268.79 3.08 268.08 3.36Q267.77 3.48 267.49 3.64Q267.17 3.83 266.89 4.08Q266.35 4.55 265.99 5.22ZM57.16 12L57.16 3.23L55.7 3.23L55.7 12L57.16 12ZM65.63 3.23L62.91 10.65L60.17 3.23L58.6 3.23L62.04 12L63.74 12L67.18 3.23L65.63 3.23ZM94.31 12L94.31 3.23L92.86 3.23L92.86 12L94.31 12ZM104.89 16.12L110.17 3.23L108.67 3.23L105.95 10.33L103.2 3.23L101.58 3.23L105.11 11.9L103.39 16.12L104.89 16.12ZM134.63 12L134.63 3.23L133.18 3.23L133.18 12L134.63 12ZM143.1 3.23L140.38 10.65L137.64 3.23L136.07 3.23L139.52 12L141.21 12L144.65 3.23L143.1 3.23ZM177.45 12L177.45 3.23L175.99 3.23L175.99 8.04Q175.99 9.42 175.32 10.14Q175.16 10.31 174.97 10.44Q174.37 10.86 173.48 10.86Q172.61 10.86 172.02 10.45Q171.84 10.33 171.69 10.16Q171.68 10.16 171.68 10.15Q171.04 9.46 171.04 8.17L171.04 3.23L169.6 3.23L169.6 8.36Q169.6 9.58 170.07 10.43Q170.39 11 170.86 11.38Q171.09 11.56 171.35 11.7Q171.37 11.71 171.4 11.72Q172.2 12.12 173.2 12.12Q173.94 12.12 174.58 11.86Q174.71 11.81 174.83 11.75Q175.35 11.48 175.71 11.08Q175.87 10.9 175.99 10.7L175.99 12L177.45 12ZM181.37 12L181.37 3.23L179.91 3.23L179.91 12L181.37 12ZM74.75 5.54Q75.11 6.14 75.11 6.97L69.58 6.97Q69.67 5.94 70.22 5.28Q70.33 5.14 70.46 5.02Q70.77 4.74 71.13 4.57Q71.68 4.32 72.35 4.32Q73.02 4.32 73.59 4.56Q73.67 4.59 73.75 4.63Q74.07 4.79 74.32 5.02Q74.56 5.24 74.75 5.54ZM152.22 5.54Q152.59 6.14 152.59 6.97L147.05 6.97Q147.14 5.94 147.69 5.28Q147.8 5.14 147.94 5.02Q148.25 4.74 148.61 4.57Q149.15 4.32 149.82 4.32Q150.5 4.32 151.07 4.56Q151.14 4.59 151.22 4.63Q151.54 4.79 151.79 5.02Q152.04 5.24 152.22 5.54ZM195.8 5.54Q196.17 6.14 196.17 6.97L190.63 6.97Q190.73 5.94 191.28 5.28Q191.39 5.14 191.52 5.02Q191.83 4.74 192.19 4.57Q192.74 4.32 193.4 4.32Q194.08 4.32 194.65 4.56Q194.73 4.59 194.8 4.63Q195.12 4.79 195.37 5.02Q195.62 5.24 195.8 5.54ZM254.42 10.75Q254.03 10.86 253.61 10.86Q253.08 10.86 252.61 10.69Q252.39 10.62 252.17 10.5Q252.06 10.44 251.95 10.36Q251.45 10.01 251.12 9.41Q250.73 8.67 250.73 7.6Q250.73 6.54 251.13 5.8Q251.46 5.2 251.97 4.85Q252.08 4.77 252.2 4.71Q252.37 4.61 252.55 4.54Q253.07 4.35 253.66 4.35Q254.13 4.35 254.57 4.48Q254.85 4.56 255.11 4.71Q255.23 4.77 255.34 4.84Q255.86 5.2 256.2 5.8Q256.62 6.54 256.62 7.6Q256.62 8.65 256.19 9.39Q255.87 9.95 255.39 10.3Q255.24 10.41 255.08 10.49Q254.76 10.66 254.42 10.75ZM272.47 5.87Q272.88 6.6 272.88 7.6Q272.88 8.59 272.47 9.33Q272.18 9.87 271.74 10.23Q271.58 10.36 271.4 10.47Q271.16 10.6 270.91 10.69Q270.43 10.86 269.9 10.86Q269.34 10.86 268.85 10.68Q268.63 10.59 268.41 10.47Q268.26 10.38 268.12 10.27Q267.65 9.9 267.34 9.33Q266.94 8.59 266.94 7.58Q266.94 6.59 267.34 5.85Q267.65 5.28 268.12 4.92Q268.26 4.82 268.41 4.73Q268.62 4.61 268.84 4.53Q269.33 4.35 269.9 4.35Q270.42 4.35 270.89 4.51Q271.15 4.6 271.4 4.74Q271.58 4.85 271.75 4.98Q272.19 5.34 272.47 5.87ZM25.12 28.6Q25.03 28.72 24.95 28.86L24.95 24.16L23.5 24.16L23.5 36L24.95 36L24.95 34.38Q25 34.46 25.05 34.54Q25.48 35.2 26.24 35.64Q26.26 35.65 26.27 35.66Q27.12 36.14 28.24 36.14Q29.03 36.14 29.72 35.88Q30.05 35.75 30.35 35.57Q30.66 35.38 30.93 35.14Q31.48 34.65 31.85 33.95Q31.86 33.93 31.86 33.92Q32.4 32.89 32.4 31.58Q32.4 30.23 31.85 29.22Q31.49 28.54 30.95 28.07Q30.68 27.83 30.36 27.64Q30.15 27.52 29.92 27.42Q29.15 27.08 28.24 27.08Q27.26 27.08 26.48 27.47Q26.37 27.52 26.27 27.58Q25.55 27.99 25.12 28.6ZM35.77 36L35.77 24.16L34.31 24.16L34.31 36L35.77 36ZM7.91 27Q8.38 27.45 8.68 28.07L10.43 28.07Q10.03 27.06 9.33 26.33Q8.93 25.92 8.43 25.6Q8.11 25.39 7.76 25.23Q6.64 24.71 5.29 24.71Q4.21 24.71 3.25 25.07Q2.84 25.22 2.46 25.44Q1.92 25.75 1.48 26.16Q0.87 26.72 0.43 27.48Q0.29 27.73 0.17 28Q-0.31 29.1 -0.31 30.41Q-0.31 31.76 0.2 32.88Q0.3 33.11 0.43 33.34Q0.85 34.07 1.44 34.62Q1.89 35.05 2.46 35.37Q2.83 35.58 3.23 35.73Q4.19 36.09 5.29 36.09Q6.44 36.09 7.42 35.69Q7.7 35.57 7.96 35.43Q8.6 35.07 9.11 34.58Q9.55 34.15 9.9 33.62Q10.22 33.12 10.43 32.57Q10.69 31.87 10.76 31.1L10.76 29.98L4.76 29.98L4.76 31.16L9.21 31.16Q9.07 32.49 8.37 33.37Q8.2 33.6 7.98 33.8Q7.7 34.06 7.37 34.26Q6.49 34.78 5.29 34.78Q4.37 34.78 3.58 34.44Q3.38 34.36 3.19 34.25Q2.85 34.05 2.56 33.8Q2.05 33.35 1.71 32.71Q1.18 31.72 1.18 30.41Q1.18 29.1 1.71 28.1Q2.07 27.44 2.6 26.98Q2.87 26.75 3.19 26.57Q3.39 26.45 3.6 26.36Q4.38 26.03 5.29 26.03Q6.35 26.03 7.16 26.47Q7.25 26.51 7.34 26.57Q7.65 26.76 7.91 27ZM12.68 29.22Q12.14 30.23 12.14 31.58Q12.14 32.9 12.68 33.94Q12.68 33.94 12.68 33.95Q13.07 34.69 13.66 35.2Q13.9 35.4 14.17 35.57Q14.47 35.75 14.79 35.87Q15.48 36.14 16.28 36.14Q17.37 36.14 18.21 35.68Q18.24 35.66 18.27 35.64Q19.06 35.18 19.49 34.49Q19.53 34.43 19.56 34.36L19.56 36L21.03 36L21.03 27.23L19.56 27.23L19.56 28.83Q19.53 28.77 19.5 28.72Q19.09 28.04 18.3 27.58Q17.45 27.08 16.3 27.08Q15.48 27.08 14.77 27.36Q14.46 27.48 14.18 27.64Q13.85 27.83 13.58 28.08Q13.04 28.55 12.68 29.22ZM46.2 32.16Q46.25 31.69 46.25 31.28Q46.25 30.18 45.82 29.29Q45.77 29.21 45.73 29.12Q45.5 28.7 45.18 28.36Q44.78 27.93 44.25 27.63Q44.21 27.61 44.18 27.59Q43.24 27.08 42.04 27.08Q40.8 27.08 39.83 27.6Q39.8 27.62 39.78 27.64Q39.38 27.86 39.06 28.15Q38.58 28.6 38.25 29.21Q37.71 30.23 37.71 31.6Q37.71 32.96 38.26 33.99Q38.61 34.63 39.12 35.08Q39.44 35.37 39.81 35.58Q39.95 35.66 40.1 35.73Q40.97 36.14 42.04 36.14Q43.46 36.14 44.46 35.49Q44.57 35.42 44.67 35.35Q45.21 34.94 45.57 34.4Q45.9 33.9 46.07 33.29L44.51 33.29Q44.37 33.68 44.13 33.98Q43.92 34.26 43.62 34.47Q42.99 34.91 42.04 34.91Q41.34 34.91 40.76 34.63Q40.39 34.46 40.08 34.18Q39.92 34.04 39.79 33.87Q39.26 33.2 39.19 32.16L46.2 32.16ZM49.47 35.8Q50.27 36.14 51.27 36.14Q52.22 36.14 52.95 35.81Q53.63 35.5 54.02 34.98Q54.05 34.95 54.07 34.91Q54.25 34.65 54.35 34.37Q54.47 34.01 54.47 33.61Q54.46 32.88 54.11 32.41Q54.07 32.36 54.03 32.32Q53.8 32.04 53.51 31.84Q53.28 31.68 53.02 31.57Q52.43 31.32 51.48 31.07Q50.73 30.86 50.31 30.69Q49.88 30.52 49.6 30.25Q49.5 30.15 49.44 30.03Q49.32 29.81 49.32 29.53Q49.32 29.29 49.41 29.1Q49.52 28.84 49.79 28.65Q50.25 28.32 51.04 28.32Q51.88 28.32 52.38 28.73Q52.39 28.73 52.39 28.73Q52.6 28.9 52.73 29.12Q52.91 29.43 52.94 29.83L54.4 29.83Q54.35 28.99 53.95 28.39Q53.74 28.07 53.43 27.82Q53.4 27.79 53.36 27.76Q52.48 27.08 51.08 27.08Q50.14 27.08 49.4 27.41Q48.67 27.74 48.27 28.3L48.27 28.3Q48.04 28.61 47.95 28.96Q47.87 29.23 47.87 29.53Q47.87 30.32 48.24 30.82Q48.27 30.86 48.31 30.9Q48.57 31.21 48.89 31.43Q49.11 31.58 49.36 31.69Q49.98 31.95 50.95 32.2Q52.03 32.48 52.54 32.76Q52.8 32.9 52.93 33.11Q53.05 33.33 53.05 33.61Q53.05 33.84 52.98 34.03Q52.86 34.32 52.57 34.54Q52.09 34.91 51.26 34.91Q50.36 34.91 49.81 34.49Q49.49 34.25 49.33 33.92Q49.22 33.69 49.2 33.42L47.69 33.42Q47.72 33.9 47.9 34.32Q48.02 34.59 48.2 34.83Q48.23 34.88 48.26 34.92Q48.72 35.48 49.47 35.8ZM44.38 29.54Q44.75 30.14 44.75 30.97L39.21 30.97Q39.3 29.94 39.85 29.28Q39.96 29.14 40.1 29.02Q40.41 28.74 40.77 28.57Q41.31 28.32 41.98 28.32Q42.65 28.32 43.23 28.56Q43.3 28.59 43.38 28.63Q43.7 28.79 43.95 29.02Q44.2 29.24 44.38 29.54ZM19.16 29.87Q19.56 30.6 19.56 31.6Q19.56 32.59 19.16 33.33Q18.87 33.87 18.43 34.23Q18.27 34.36 18.08 34.47Q17.85 34.6 17.59 34.69Q17.12 34.86 16.59 34.86Q16.03 34.86 15.54 34.68Q15.31 34.59 15.1 34.47Q14.95 34.38 14.81 34.27Q14.34 33.9 14.02 33.33Q13.63 32.59 13.63 31.58Q13.63 30.59 14.02 29.85Q14.34 29.28 14.81 28.92Q14.95 28.82 15.1 28.73Q15.31 28.61 15.53 28.53Q16.02 28.35 16.59 28.35Q17.11 28.35 17.58 28.51Q17.84 28.6 18.08 28.74Q18.27 28.85 18.44 28.98Q18.87 29.34 19.16 29.87ZM30.5 29.85Q30.91 30.59 30.91 31.58Q30.91 32.59 30.5 33.33Q30.21 33.87 29.77 34.23Q29.61 34.36 29.43 34.47Q29.19 34.6 28.94 34.69Q28.46 34.86 27.93 34.86Q27.47 34.86 27.04 34.73Q26.74 34.63 26.45 34.47Q26.29 34.37 26.14 34.26Q25.67 33.9 25.36 33.33Q24.95 32.59 24.95 31.6Q24.95 30.62 25.36 29.88Q25.68 29.3 26.16 28.93Q26.3 28.83 26.45 28.74Q26.74 28.57 27.06 28.47Q27.47 28.35 27.93 28.35Q28.47 28.35 28.95 28.52Q29.2 28.6 29.43 28.73Q29.61 28.84 29.77 28.96Q30.21 29.31 30.5 29.85ZM56.24 38.28L58.02 33.98L56.43 33.98L55.26 38.28L56.24 38.28ZM19.78 49.64Q19.29 50.34 19.21 51.34L20.63 51.34Q20.71 50.75 21.01 50.33Q21.16 50.13 21.35 49.96Q21.39 49.93 21.44 49.89Q22.03 49.45 22.95 49.45Q23.97 49.45 24.52 49.96L24.53 49.96Q24.71 50.13 24.83 50.33Q25.08 50.75 25.08 51.32Q25.08 51.93 24.8 52.35Q24.62 52.61 24.33 52.79Q23.58 53.26 22.11 53.28L21.72 53.28L21.72 54.49L22.09 54.49Q23.71 54.49 24.5 55.02Q24.71 55.16 24.87 55.34Q25.31 55.86 25.31 56.75Q25.31 57.38 25.03 57.86Q24.9 58.08 24.72 58.26Q24.69 58.29 24.67 58.31Q24.09 58.84 23.02 58.84Q22.03 58.84 21.39 58.37Q21.3 58.31 21.23 58.24Q20.98 58.01 20.81 57.74Q20.51 57.27 20.44 56.67L19.04 56.67Q19.13 57.87 19.75 58.67Q19.96 58.95 20.25 59.19Q20.37 59.28 20.5 59.37Q21.53 60.07 23.04 60.07Q24.2 60.07 25.04 59.66Q25.71 59.32 26.11 58.78Q26.2 58.65 26.28 58.51Q26.36 58.38 26.42 58.24Q26.7 57.62 26.7 56.87Q26.7 55.71 26.14 54.97Q26.11 54.94 26.09 54.91Q25.93 54.71 25.74 54.55Q25.21 54.09 24.44 53.9L24.44 53.82Q24.95 53.7 25.35 53.43Q25.67 53.21 25.92 52.89Q26.1 52.66 26.23 52.4Q26.49 51.85 26.49 51.18Q26.49 50.53 26.25 49.99Q26.18 49.82 26.08 49.66Q26.03 49.57 25.96 49.48Q25.57 48.93 24.88 48.6Q24.09 48.2 23 48.2Q21.48 48.2 20.48 48.93Q20.41 48.98 20.34 49.03Q20.01 49.3 19.78 49.64ZM29.2 49.64Q28.71 50.34 28.64 51.34L30.06 51.34Q30.13 50.75 30.44 50.33Q30.58 50.13 30.78 49.96Q30.82 49.93 30.86 49.89Q31.45 49.45 32.38 49.45Q33.4 49.45 33.95 49.96L33.95 49.96Q34.13 50.13 34.25 50.33Q34.51 50.75 34.51 51.32Q34.51 51.93 34.22 52.35Q34.04 52.61 33.75 52.79Q33 53.26 31.53 53.28L31.15 53.28L31.15 54.49L31.51 54.49Q33.13 54.49 33.93 55.02Q34.14 55.16 34.29 55.34Q34.73 55.86 34.73 56.75Q34.73 57.38 34.45 57.86Q34.33 58.08 34.14 58.26Q34.12 58.29 34.09 58.31Q33.51 58.84 32.44 58.84Q31.45 58.84 30.81 58.37Q30.73 58.31 30.65 58.24Q30.4 58.01 30.23 57.74Q29.94 57.27 29.87 56.67L28.46 56.67Q28.55 57.87 29.17 58.67Q29.39 58.95 29.67 59.19Q29.79 59.28 29.92 59.37Q30.95 60.07 32.46 60.07Q33.63 60.07 34.46 59.66Q35.13 59.32 35.53 58.78Q35.63 58.65 35.71 58.51Q35.78 58.38 35.84 58.24Q36.12 57.62 36.12 56.87Q36.12 55.71 35.56 54.97Q35.54 54.94 35.51 54.91Q35.36 54.71 35.17 54.55Q34.63 54.09 33.87 53.9L33.87 53.82Q34.37 53.7 34.77 53.43Q35.09 53.21 35.35 52.89Q35.53 52.66 35.65 52.4Q35.91 51.85 35.91 51.18Q35.91 50.53 35.68 49.99Q35.6 49.82 35.51 49.66Q35.45 49.57 35.39 49.48Q34.99 48.93 34.31 48.6Q33.51 48.2 32.43 48.2Q30.9 48.2 29.91 48.93Q29.84 48.98 29.77 49.03Q29.44 49.3 29.2 49.64ZM43.75 49.64Q43.25 50.34 43.18 51.34L44.6 51.34Q44.68 50.75 44.98 50.33Q45.12 50.13 45.32 49.96Q45.36 49.93 45.41 49.89Q46 49.45 46.92 49.45Q47.94 49.45 48.49 49.96L48.5 49.96Q48.67 50.13 48.8 50.33Q49.05 50.75 49.05 51.32Q49.05 51.93 48.77 52.35Q48.59 52.61 48.3 52.79Q47.55 53.26 46.07 53.28L45.69 53.28L45.69 54.49L46.06 54.49Q47.68 54.49 48.47 55.02Q48.68 55.16 48.83 55.34Q49.27 55.86 49.27 56.75Q49.27 57.38 49 57.86Q48.87 58.08 48.69 58.26Q48.66 58.29 48.64 58.31Q48.06 58.84 46.99 58.84Q45.99 58.84 45.35 58.37Q45.27 58.31 45.2 58.24Q44.95 58.01 44.77 57.74Q44.48 57.27 44.41 56.67L43 56.67Q43.1 57.87 43.71 58.67Q43.93 58.95 44.22 59.19Q44.34 59.28 44.46 59.37Q45.49 60.07 47 60.07Q48.17 60.07 49 59.66Q49.68 59.32 50.08 58.78Q50.17 58.65 50.25 58.51Q50.33 58.38 50.39 58.24Q50.67 57.62 50.67 56.87Q50.67 55.71 50.1 54.97Q50.08 54.94 50.06 54.91Q49.9 54.71 49.71 54.55Q49.18 54.09 48.41 53.9L48.41 53.82Q48.92 53.7 49.32 53.43Q49.64 53.21 49.89 52.89Q50.07 52.66 50.2 52.4Q50.46 51.85 50.46 51.18Q50.46 50.53 50.22 49.99Q50.15 49.82 50.05 49.66Q49.99 49.57 49.93 49.48Q49.53 48.93 48.85 48.6Q48.06 48.2 46.97 48.2Q45.45 48.2 44.45 48.93Q44.38 48.98 44.31 49.03Q43.98 49.3 43.75 49.64ZM37.71 48.43L37.71 49.76L39.24 49.76L39.24 60L40.72 60L40.72 48.43L37.71 48.43ZM52.28 56.32L52.28 57.42L58.2 57.42L58.2 60L59.64 60L59.64 57.42L61.24 57.42L61.24 56.16L59.64 56.16L59.64 48.54L57.9 48.54L52.28 56.32ZM79.57 59.72Q80.44 60.11 81.55 60.11Q82.7 60.11 83.55 59.66Q84.35 59.24 84.77 58.57Q84.8 58.53 84.83 58.49Q85.08 58.06 85.19 57.6Q85.26 57.29 85.26 56.96Q85.26 55.9 84.78 55.28Q84.41 54.82 83.94 54.53Q83.79 54.44 83.63 54.37Q82.95 54.07 81.85 53.77Q80.94 53.51 80.43 53.32Q80.06 53.17 79.77 52.92Q79.68 52.83 79.59 52.73Q79.52 52.66 79.47 52.58Q79.24 52.23 79.24 51.74Q79.24 51.16 79.51 50.76Q79.63 50.57 79.82 50.42Q79.87 50.38 79.93 50.34Q80.48 49.95 81.31 49.95Q82.26 49.95 82.84 50.41Q82.86 50.42 82.87 50.44Q83.36 50.83 83.5 51.33Q83.53 51.44 83.55 51.56L85.15 51.56Q85.08 50.87 84.76 50.32Q84.48 49.85 84.02 49.48Q83.96 49.44 83.91 49.4Q82.93 48.7 81.45 48.7Q80.36 48.7 79.52 49.08Q78.86 49.39 78.43 49.89Q78.31 50.02 78.22 50.17Q78.1 50.35 78.01 50.54Q77.76 51.1 77.76 51.79Q77.76 52.83 78.23 53.44Q78.6 53.93 79.09 54.21Q79.22 54.28 79.36 54.35Q80.02 54.64 81.13 54.92Q82.02 55.16 82.55 55.37Q82.98 55.54 83.29 55.83Q83.37 55.9 83.43 55.98Q83.49 56.04 83.53 56.1Q83.79 56.47 83.79 57.02Q83.79 57.46 83.61 57.81Q83.46 58.11 83.18 58.35Q83.18 58.36 83.17 58.37Q82.57 58.87 81.55 58.87Q80.46 58.87 79.89 58.34Q79.62 58.08 79.46 57.77Q79.28 57.43 79.24 57.02L77.69 57.02Q77.7 57.65 77.94 58.18Q78.05 58.41 78.2 58.63Q78.25 58.7 78.31 58.76Q78.79 59.36 79.57 59.72ZM6.54 50.03L6.54 48.84L0.23 48.84L0.23 60L1.69 60L1.69 54.97L5.63 54.97L5.63 53.79L1.69 53.79L1.69 50.03L6.54 50.03ZM13.66 58.81L9.75 58.81L9.75 48.84L8.3 48.84L8.3 60L13.66 60L13.66 58.81ZM68.63 55.9L68.63 48.84L67.18 48.84L67.18 55.88Q67.18 57.28 67.73 58.23Q68.07 58.82 68.56 59.22Q68.87 59.47 69.23 59.64Q70.19 60.11 71.37 60.11Q72.55 60.11 73.51 59.64Q73.87 59.46 74.18 59.21Q74.67 58.81 75.02 58.23Q75.58 57.28 75.58 55.88L75.58 48.84L74.12 48.84L74.12 55.9Q74.12 57.39 73.39 58.11Q73.29 58.21 73.18 58.29Q72.49 58.83 71.38 58.83Q70.26 58.83 69.56 58.28Q69.45 58.2 69.36 58.11Q68.63 57.39 68.63 55.9ZM89.13 57.51L93.99 57.51L94.89 60L96.43 60L92.41 48.91L90.73 48.91L86.7 60L88.23 60L89.13 57.51ZM53.96 56.16L58.27 50.06L58.27 56.16L53.96 56.16ZM91.56 50.7L93.58 56.33L89.55 56.33L91.56 50.7Z" fill="#9F9F9F" fill-opacity="1.000000" fill-rule="evenodd"/>
</svg>
