<svg width="82.000000" height="20.000000" viewBox="0 0 82 20" fill="none" xmlns="http://www.w3.org/2000/svg" xmlns:xlink="http://www.w3.org/1999/xlink">
	<desc>
			Created with Pixso.
	</desc>
	<defs/>
	<path id="Funiro." d="M45.61 3.84Q46.2 4.21 47.03 4.21Q47.79 4.21 48.36 3.88Q48.58 3.75 48.77 3.58Q49.11 3.26 49.28 2.87Q49.45 2.47 49.45 2Q49.45 1.48 49.25 1.05Q49.08 0.7 48.77 0.41Q48.57 0.23 48.35 0.1Q47.78 -0.23 47.03 -0.23Q46.21 -0.23 45.62 0.13Q45.43 0.25 45.26 0.41Q44.95 0.7 44.78 1.05Q44.58 1.48 44.58 2Q44.58 2.47 44.75 2.87Q44.92 3.26 45.26 3.58Q45.42 3.73 45.61 3.84ZM10.45 5.44L10.45 2.15L-0.52 2.15L-0.52 19L3.58 19L3.58 12.18L8.72 12.18L8.72 8.99L3.58 8.99L3.58 5.44L10.45 5.44ZM65.15 18.49Q66.61 19.19 68.41 19.19Q70.13 19.19 71.57 18.55Q71.77 18.45 71.97 18.35Q72.74 17.95 73.35 17.38Q74.01 16.75 74.49 15.94Q74.57 15.81 74.64 15.67Q75.42 14.19 75.42 12.3Q75.42 10.36 74.61 8.85Q74.56 8.76 74.5 8.66Q74.01 7.81 73.32 7.17Q72.73 6.63 72.01 6.25Q71.82 6.15 71.63 6.07Q70.19 5.41 68.46 5.41Q66.72 5.41 65.27 6.07Q65.09 6.15 64.9 6.25Q64.21 6.62 63.64 7.14Q62.92 7.79 62.41 8.66Q62.36 8.74 62.32 8.82Q61.5 10.34 61.5 12.3Q61.5 14.39 62.4 15.95Q62.88 16.78 63.55 17.41Q64.14 17.96 64.87 18.35Q65.01 18.42 65.15 18.49ZM39.75 6.19Q38.58 5.46 36.95 5.46Q35.62 5.46 34.57 5.98Q33.73 6.39 33.16 7.03Q33.02 7.2 32.89 7.38L32.89 5.6L28.79 5.6L28.79 19L32.89 19L32.89 11.72Q32.89 10.45 33.52 9.71Q33.55 9.67 33.59 9.64Q33.78 9.43 34.01 9.28Q34.61 8.89 35.46 8.89Q36.3 8.89 36.89 9.27Q37.13 9.42 37.33 9.64Q37.36 9.67 37.4 9.71Q38.03 10.45 38.03 11.72L38.03 19L42.11 19L42.11 11.17Q42.11 8.7 40.89 7.21Q40.8 7.09 40.7 6.98Q40.27 6.51 39.75 6.19ZM57.42 6.45Q56.68 7.01 56.14 7.83L56.14 5.6L52.04 5.6L52.04 19L56.14 19L56.14 12.78Q56.14 11.13 56.91 10.46Q57.69 9.8 59.22 9.8L60.35 9.8L60.35 5.46Q59.47 5.46 58.69 5.74Q58.3 5.89 57.94 6.1Q57.67 6.26 57.42 6.45ZM25.84 19L25.84 5.6L21.73 5.6L21.73 12.88Q21.73 14.15 21.1 14.89Q21.07 14.93 21.03 14.96Q20.86 15.15 20.66 15.29Q20.04 15.71 19.14 15.71Q18.29 15.71 17.69 15.32Q17.46 15.17 17.26 14.96Q17.24 14.93 17.21 14.9Q16.57 14.17 16.57 12.88L16.57 5.6L12.49 5.6L12.49 13.43Q12.49 15.18 13.14 16.48Q13.59 17.38 14.3 17.99Q14.61 18.25 14.96 18.46Q15.06 18.51 15.16 18.56Q16.26 19.14 17.67 19.14Q18.79 19.14 19.74 18.74Q19.89 18.68 20.03 18.6Q21.04 18.09 21.65 17.28Q21.69 17.23 21.73 17.17L21.73 19L25.84 19ZM49.06 19L49.06 5.6L44.96 5.6L44.96 19L49.06 19ZM69.46 15.44Q68.97 15.64 68.41 15.64Q67.81 15.64 67.32 15.42Q66.84 15.2 66.45 14.78Q65.67 13.91 65.67 12.3Q65.67 10.67 66.46 9.82Q66.83 9.43 67.28 9.22Q67.81 8.96 68.46 8.96Q69.03 8.96 69.52 9.17Q70.02 9.39 70.44 9.83Q70.44 9.84 70.45 9.85Q71.24 10.71 71.24 12.3Q71.24 13.85 70.47 14.71Q70.44 14.74 70.41 14.78Q69.98 15.23 69.46 15.44ZM78.09 18.81Q78.69 19.19 79.52 19.19Q80.3 19.19 80.87 18.85Q81.08 18.73 81.26 18.56Q81.6 18.24 81.77 17.84Q81.94 17.45 81.94 16.98Q81.94 16.47 81.75 16.04Q81.58 15.67 81.26 15.37Q81.06 15.18 80.82 15.04Q80.26 14.72 79.52 14.72Q78.72 14.72 78.13 15.08Q77.93 15.21 77.76 15.37Q77.44 15.67 77.27 16.03Q77.08 16.46 77.08 16.98Q77.08 17.46 77.25 17.86Q77.42 18.24 77.76 18.56Q77.91 18.7 78.09 18.81Z" fill="#000000" fill-opacity="1.000000" fill-rule="evenodd"/>
</svg>
