<svg width="1440.000000" height="270.000000" viewBox="0 0 1440 270" fill="none" xmlns="http://www.w3.org/2000/svg" xmlns:xlink="http://www.w3.org/1999/xlink">
	<desc>
			Created with Pixso.
	</desc>
	<defs>
		<clipPath id="clip117_1309">
			<rect id="trophy 1" width="60.000000" height="60.000000" transform="translate(53.000000 105.000000)" fill="white" fill-opacity="0"/>
		</clipPath>
		<clipPath id="clip117_1317">
			<rect id="guarantee" width="60.000000" height="60.000000" transform="translate(445.333344 105.000000)" fill="white" fill-opacity="0"/>
		</clipPath>
		<clipPath id="clip117_1325">
			<rect id="shipping" width="60.000000" height="60.000000" transform="translate(828.666687 105.000000)" fill="white" fill-opacity="0"/>
		</clipPath>
		<clipPath id="clip117_1331">
			<rect id="customer-support" width="60.000000" height="60.000000" transform="translate(1128.000000 105.000000)" fill="white" fill-opacity="0"/>
		</clipPath>
	</defs>
	<rect id="Frame 161" width="1440.000000" height="270.000000" fill="#FAF3EA" fill-opacity="1.000000"/>
	<rect id="trophy 1" width="60.000000" height="60.000000" transform="translate(53.000000 105.000000)" fill="#FFFFFF" fill-opacity="0"/>
	<g clip-path="url(#clip117_1309)">
		<path id="Vector" d="M102.35 108.51C101.07 108.51 99.87 108.86 98.83 109.46L98.83 106.75C98.83 105.78 98.05 105 97.08 105L68.95 105C67.98 105 67.19 105.78 67.19 106.75L67.19 109.48C66.15 108.86 64.94 108.51 63.64 108.51C59.76 108.51 56.61 111.67 56.61 115.54C56.61 118.5 57.49 121.36 59.14 123.81C61.97 127.97 65.45 129.06 68.33 130.21C69.99 134.34 73.34 137.62 77.53 139.17L76.24 147.42L75.98 147.42C73.07 147.42 70.71 149.78 70.71 152.69L70.71 161.48L68.95 161.48C67.98 161.48 67.19 162.27 67.19 163.24C67.19 164.21 67.98 165 68.95 165L97.08 165C98.05 165 98.83 164.21 98.83 163.24C98.83 162.27 98.05 161.48 97.08 161.48L95.32 161.48L95.32 152.69C95.32 149.78 92.95 147.42 90.04 147.42L89.79 147.42L88.49 139.17C92.69 137.62 96.05 134.33 97.71 130.19C100.43 129.1 104 128.02 106.85 123.81C108.51 121.36 109.38 118.5 109.38 115.54C109.38 111.67 106.23 108.51 102.35 108.51ZM67.18 125.96C62.89 124.25 60.12 120.16 60.12 115.54C60.12 113.6 61.7 112.03 63.64 112.03C65.58 112.03 67.16 113.6 67.16 115.54C67.16 115.67 67.17 115.79 67.19 115.9L67.19 124.33C67.19 124.9 67.22 125.45 67.28 126L67.18 125.96ZM91.8 161.48L74.22 161.48L74.22 157.96L91.8 157.96L91.8 161.48ZM90.04 150.93C91.01 150.93 91.8 151.72 91.8 152.69L91.8 154.45L74.22 154.45L74.22 152.69C74.22 151.72 75.01 150.93 75.98 150.93C76.94 150.93 87.81 150.93 90.04 150.93ZM79.8 147.42L80.96 140.02C81.63 140.11 82.32 140.15 83.01 140.15C83.71 140.15 84.4 140.11 85.07 140.02L86.23 147.42L79.8 147.42ZM95.32 124.33C95.32 131.12 89.8 136.64 83.01 136.64C76.23 136.64 70.71 131.12 70.71 124.33L70.71 115.54L95.32 115.54L95.32 124.33ZM95.32 112.03L70.71 112.03L70.71 108.51L95.32 108.51L95.32 112.03ZM98.81 125.96L98.75 125.99C98.8 125.44 98.83 124.89 98.83 124.33L98.83 115.54C98.83 113.6 100.41 112.03 102.35 112.03C104.29 112.03 105.87 113.6 105.87 115.54C105.87 120.16 103.1 124.25 98.81 125.96Z" fill="#242424" fill-opacity="1.000000" fill-rule="nonzero"/>
	</g>
	<path id="High Quality" d="M143.36 112.25Q143.82 112.49 144.42 112.49Q145.03 112.49 145.51 112.23Q145.75 112.1 145.96 111.91Q146.24 111.64 146.39 111.31Q146.57 110.92 146.57 110.45Q146.57 109.96 146.38 109.57Q146.23 109.25 145.96 108.98Q145.75 108.79 145.51 108.65Q145.03 108.4 144.42 108.4Q143.82 108.4 143.36 108.64Q143.1 108.77 142.88 108.98Q142.61 109.24 142.46 109.55Q142.27 109.95 142.27 110.45Q142.27 110.93 142.45 111.32Q142.61 111.64 142.88 111.91Q143.1 112.11 143.36 112.25ZM249.83 112.25Q250.3 112.49 250.89 112.49Q251.51 112.49 251.98 112.23Q252.23 112.1 252.43 111.91Q252.71 111.64 252.87 111.31Q253.05 110.92 253.05 110.45Q253.05 109.96 252.86 109.57Q252.71 109.25 252.43 108.98Q252.23 108.79 251.98 108.65Q251.51 108.4 250.89 108.4Q250.3 108.4 249.83 108.64Q249.57 108.77 249.35 108.98Q249.09 109.24 248.94 109.55Q248.74 109.95 248.74 110.45Q248.74 110.93 248.93 111.32Q249.08 111.64 249.35 111.91Q249.57 112.11 249.83 112.25ZM176.96 114.54Q175.81 113.95 174.35 113.95Q172.97 113.95 171.85 114.46Q170.86 114.91 170.22 115.65Q170.13 115.76 170.05 115.87L170.05 109.5L166.55 109.5L166.55 128L170.05 128L170.05 120.35Q170.05 118.72 170.86 117.83Q170.87 117.82 170.88 117.81Q171.08 117.6 171.31 117.44Q172.06 116.92 173.17 116.92Q174.23 116.92 174.96 117.41Q175.21 117.58 175.42 117.81Q176.25 118.69 176.25 120.35L176.25 128L179.74 128L179.74 119.87Q179.74 118 179.05 116.66Q178.57 115.72 177.82 115.1Q177.51 114.84 177.14 114.63Q177.06 114.58 176.96 114.54ZM245.67 128L245.67 109.5L242.17 109.5L242.17 128L245.67 128ZM199.37 127.9L202.02 131.07L206.37 131.07L202.37 126.57Q202.96 126.15 203.47 125.65Q204.41 124.7 205.06 123.46Q205.22 123.14 205.36 122.8Q206.05 121.15 206.05 119.22Q206.05 117.26 205.34 115.6Q205.13 115.1 204.86 114.63Q204.23 113.56 203.37 112.73Q202.59 111.99 201.63 111.45Q201.03 111.11 200.39 110.87Q198.87 110.3 197.12 110.3Q195.5 110.3 194.05 110.8Q193.31 111.06 192.62 111.45Q191.67 111.98 190.9 112.71Q190.01 113.55 189.37 114.63Q189.08 115.13 188.86 115.65Q188.17 117.29 188.17 119.22Q188.17 121.27 188.93 122.99Q189.13 123.42 189.37 123.83Q190.01 124.91 190.88 125.75Q191.66 126.48 192.62 127.03Q193.3 127.41 194.02 127.66Q195.48 128.17 197.12 128.17Q197.95 128.17 198.75 128.03Q199.06 127.97 199.37 127.9ZM139.19 128L139.19 110.55L135.7 110.55L135.7 117.72L128.22 117.72L128.22 110.55L124.72 110.55L124.72 128L128.22 128L128.22 120.57L135.7 120.57L135.7 128L139.19 128ZM260.14 123.72L260.14 117.02L263.24 117.02L263.24 114.15L260.14 114.15L260.14 110.72L256.62 110.72L256.62 114.15L254.97 114.15L254.97 117.02L256.62 117.02L256.62 123.69Q256.62 125.78 257.67 126.86Q258.77 128 261.05 128L263.24 128L263.24 125.05L261.62 125.05Q260.82 125.05 260.48 124.74Q260.14 124.42 260.14 123.72ZM192.44 122.29Q191.77 120.97 191.77 119.22Q191.77 117.47 192.44 116.16Q192.89 115.29 193.57 114.69Q193.92 114.38 194.33 114.15Q194.44 114.08 194.55 114.03Q195.69 113.44 197.12 113.44Q198.6 113.44 199.74 114.06Q199.82 114.1 199.89 114.15Q200.28 114.37 200.61 114.66Q201.31 115.27 201.77 116.16Q202.44 117.47 202.44 119.22Q202.44 120.97 201.77 122.29Q201.3 123.21 200.59 123.83Q200.27 124.11 199.89 124.33Q199.79 124.4 199.68 124.45Q198.56 125.05 197.12 125.05Q195.73 125.05 194.61 124.49Q194.47 124.41 194.33 124.33Q193.94 124.1 193.59 123.8Q192.9 123.19 192.44 122.29ZM157.74 114.54Q156.57 113.92 155.02 113.92Q153.85 113.92 152.82 114.31Q152.29 114.5 151.81 114.8Q151.5 114.98 151.23 115.2Q150.19 116.02 149.53 117.3Q148.69 118.92 148.69 121.02Q148.69 123.14 149.53 124.79Q150.17 126.04 151.17 126.86Q151.48 127.11 151.82 127.32Q152.44 127.71 153.11 127.93Q154.02 128.22 155.02 128.22Q156.5 128.22 157.67 127.61Q157.7 127.59 157.73 127.57Q158.92 126.92 159.6 125.94L159.6 128.09Q159.6 129.89 158.7 130.8Q158.67 130.83 158.64 130.85Q158.41 131.08 158.14 131.25Q157.32 131.77 156.17 131.77Q154.87 131.77 153.96 131.21Q153.36 130.84 153.03 130.3Q152.87 130.02 152.77 129.7L149.29 129.7Q149.43 130.97 150.03 131.95Q150.55 132.81 151.43 133.45Q153.32 134.82 156.27 134.82Q158.47 134.82 160.02 133.93Q161.03 133.35 161.71 132.52Q162.08 132.06 162.35 131.53Q163.12 130.02 163.12 128.09L163.12 114.15L159.6 114.15L159.6 116.12Q159.58 116.09 159.56 116.07Q158.89 115.13 157.74 114.54ZM225.16 117.3Q224.32 118.92 224.32 121.02Q224.32 123.14 225.16 124.79Q225.82 126.07 226.85 126.91Q227.13 127.13 227.43 127.32Q228.02 127.69 228.65 127.91Q229.58 128.22 230.62 128.22Q232.17 128.22 233.35 127.59Q234.54 126.95 235.22 125.97L235.22 128L238.75 128L238.75 114.15L235.22 114.15L235.22 116.12Q234.52 115.17 233.35 114.55Q232.19 113.92 230.64 113.92Q229.47 113.92 228.44 114.31Q227.92 114.5 227.43 114.8Q227.13 114.98 226.85 115.2Q225.82 116.02 225.16 117.3ZM146.14 128L146.14 114.15L142.65 114.15L142.65 128L146.14 128ZM221.77 128L221.77 114.15L218.24 114.15L218.24 121.77Q218.24 123.41 217.43 124.3L217.42 124.31Q217.23 124.51 217.02 124.66Q216.27 125.19 215.14 125.19Q214.08 125.19 213.36 124.7Q213.11 124.53 212.9 124.31L212.89 124.3Q212.07 123.41 212.07 121.77L212.07 114.15L208.57 114.15L208.57 122.27Q208.57 124.12 209.28 125.46Q209.78 126.38 210.53 127Q210.86 127.27 211.24 127.48Q211.26 127.49 211.28 127.5Q212.52 128.17 214.12 128.17Q215.15 128.17 216.06 127.84Q216.27 127.76 216.48 127.66Q217.34 127.26 217.94 126.61Q218.1 126.44 218.24 126.24L218.24 128L221.77 128ZM252.62 128L252.62 114.15L249.12 114.15L249.12 128L252.62 128ZM270.45 134.54L279.02 114.15L275.29 114.15L271.67 123.82L268.1 114.15L264.17 114.15L269.72 127.65L266.72 134.54L270.45 134.54ZM159.09 118.89Q159.6 119.8 159.6 121.07Q159.6 122.34 159.09 123.26Q158.74 123.9 158.22 124.33Q158 124.51 157.75 124.66Q157.31 124.91 156.85 125.03Q156.4 125.15 155.92 125.15Q155.52 125.15 155.14 125.06Q154.62 124.94 154.13 124.64Q153.98 124.55 153.84 124.45Q153.2 123.97 152.78 123.21Q152.27 122.27 152.27 121.02Q152.27 119.77 152.78 118.86Q153.21 118.09 153.87 117.63Q153.99 117.55 154.12 117.47Q154.45 117.28 154.81 117.17Q155.34 117 155.92 117Q156.4 117 156.85 117.11Q157.31 117.24 157.75 117.49Q157.99 117.62 158.2 117.8Q158.74 118.23 159.09 118.89ZM234.72 118.89Q235.22 119.8 235.22 121.07Q235.22 122.34 234.72 123.26Q234.37 123.9 233.85 124.33Q233.63 124.51 233.37 124.66Q232.94 124.91 232.47 125.03Q232.03 125.15 231.55 125.15Q231.15 125.15 230.77 125.06Q230.24 124.94 229.76 124.64Q229.6 124.55 229.46 124.45Q228.83 123.97 228.41 123.21Q227.9 122.27 227.9 121.02Q227.9 119.77 228.41 118.86Q228.84 118.09 229.49 117.63Q229.61 117.55 229.75 117.47Q230.08 117.28 230.44 117.17Q230.96 117 231.55 117Q232.03 117 232.47 117.11Q232.94 117.24 233.37 117.49Q233.61 117.62 233.83 117.8Q234.36 118.23 234.72 118.89Z" fill="#242424" fill-opacity="1.000000" fill-rule="evenodd"/>
	<path id="crafted from top materials" d="M160.32 152.84L162.35 152.84L162.35 150.97L160.32 150.97L160.32 150.19Q160.32 149.24 160.74 148.85Q161.16 148.46 162.2 148.46L162.2 146.56Q160.03 146.56 159.02 147.42Q158.97 147.47 158.91 147.53Q158.02 148.4 158.02 150.19L158.02 150.97L156.71 150.97L156.71 152.84L158.02 152.84L158.02 162L160.32 162L160.32 152.84ZM205.5 152.84L207.53 152.84L207.53 150.97L205.5 150.97L205.5 150.19Q205.5 149.24 205.92 148.85Q206.34 148.46 207.38 148.46L207.38 146.56Q205.21 146.56 204.2 147.42Q204.15 147.47 204.09 147.53Q203.2 148.4 203.2 150.19L203.2 150.97L201.89 150.97L201.89 152.84L203.2 152.84L203.2 162L205.5 162L205.5 152.84ZM357.25 149.38Q357.54 149.52 357.9 149.52Q358.21 149.52 358.47 149.4Q358.72 149.3 358.92 149.1Q359.1 148.92 359.2 148.7Q359.34 148.41 359.34 148.06Q359.34 147.7 359.2 147.41Q359.1 147.19 358.92 147.02Q358.72 146.81 358.47 146.71Q358.21 146.6 357.9 146.6Q357.54 146.6 357.25 146.73Q357.04 146.84 356.86 147.02Q356.68 147.19 356.57 147.41Q356.44 147.7 356.44 148.06Q356.44 148.41 356.57 148.7Q356.68 148.92 356.86 149.1Q357.04 149.27 357.25 149.38ZM184.09 153.49Q183.4 154.77 183.4 156.43Q183.4 158.04 184.04 159.32Q184.06 159.37 184.09 159.41Q184.57 160.32 185.29 160.95Q185.61 161.23 185.97 161.45Q186.43 161.73 186.94 161.91Q187.72 162.18 188.6 162.18Q189.88 162.18 190.86 161.66Q191.85 161.14 192.42 160.34L192.42 162L194.72 162L194.72 147.2L192.42 147.2L192.42 152.51Q191.8 151.74 190.75 151.27Q189.84 150.86 188.92 150.8Q188.77 150.79 188.62 150.79Q187.63 150.79 186.77 151.12Q186.35 151.28 185.97 151.51Q185.57 151.75 185.22 152.05Q184.54 152.64 184.09 153.49ZM377.85 162L377.85 147.2L375.57 147.2L375.57 162L377.85 162ZM167.04 158.93L167.04 152.84L169.72 152.84L169.72 150.97L167.04 150.97L167.04 148.24L164.74 148.24L164.74 150.97L163.44 150.97L163.44 152.84L164.74 152.84L164.74 158.93Q164.74 160.53 165.53 161.25Q165.54 161.27 165.56 161.28Q166.38 162 167.91 162L169.72 162L169.72 160.1L168.31 160.1Q167.62 160.1 167.32 159.83Q167.04 159.55 167.04 158.93ZM258.64 158.93L258.64 152.84L261.32 152.84L261.32 150.97L258.64 150.97L258.64 148.24L256.34 148.24L256.34 150.97L255.04 150.97L255.04 152.84L256.34 152.84L256.34 158.93Q256.34 160.53 257.13 161.25Q257.14 161.27 257.16 161.28Q257.98 162 259.51 162L261.32 162L261.32 160.1L259.91 160.1Q259.22 160.1 258.92 159.83Q258.64 159.55 258.64 158.93ZM331.94 158.93L331.94 152.84L334.62 152.84L334.62 150.97L331.94 150.97L331.94 148.24L329.64 148.24L329.64 150.97L328.34 150.97L328.34 152.84L329.64 152.84L329.64 158.93Q329.64 160.53 330.43 161.25Q330.44 161.27 330.46 161.28Q331.28 162 332.81 162L334.62 162L334.62 160.1L333.21 160.1Q332.52 160.1 332.22 159.83Q331.94 159.55 331.94 158.93ZM124.43 153.48Q123.74 154.77 123.74 156.48Q123.74 158.18 124.43 159.47Q124.85 160.25 125.47 160.83Q125.86 161.19 126.34 161.47Q126.46 161.54 126.6 161.61Q127.72 162.18 129.13 162.18Q130.91 162.18 132.16 161.36Q132.29 161.28 132.41 161.18Q132.9 160.82 133.27 160.37Q133.91 159.58 134.22 158.51L131.75 158.51Q131.47 159.3 130.91 159.73Q130.22 160.26 129.13 160.26Q128.3 160.26 127.67 159.9Q127.24 159.66 126.91 159.26Q126.08 158.25 126.08 156.48Q126.08 154.7 126.91 153.7Q127.23 153.31 127.65 153.08Q128.28 152.71 129.13 152.71Q130.13 152.71 130.79 153.18Q130.99 153.31 131.15 153.48Q131.54 153.88 131.75 154.46L134.22 154.46Q133.87 153.14 133.05 152.27Q132.77 151.98 132.44 151.75Q131.14 150.79 129.13 150.79Q127.71 150.79 126.57 151.37Q126.45 151.43 126.34 151.5Q125.88 151.76 125.49 152.1Q124.86 152.68 124.43 153.48ZM139.5 151.7Q139.08 152.07 138.77 152.58L138.77 150.97L136.49 150.97L136.49 162L138.77 162L138.77 156.19Q138.77 154.52 139.46 153.84Q139.47 153.83 139.49 153.82Q140.18 153.16 141.49 153.16L142.08 153.16L142.08 150.79Q140.94 150.79 140.11 151.27Q139.78 151.45 139.5 151.7ZM144.11 153.49Q143.42 154.77 143.42 156.43Q143.42 158.04 144.06 159.32Q144.08 159.37 144.11 159.41Q144.6 160.35 145.35 160.99Q145.65 161.24 145.98 161.45Q146.49 161.76 147.04 161.94Q147.77 162.18 148.57 162.18Q149.85 162.18 150.85 161.66Q151.86 161.14 152.44 160.35L152.44 162L154.74 162L154.74 150.97L152.44 150.97L152.44 152.58Q151.86 151.81 150.88 151.31Q149.92 150.79 148.62 150.79Q147.71 150.79 146.9 151.08Q146.43 151.24 145.99 151.51Q145.59 151.75 145.24 152.05Q144.56 152.64 144.11 153.49ZM181.83 157.34Q181.92 156.83 181.92 156.21Q181.92 154.66 181.27 153.46Q181.25 153.42 181.23 153.39Q180.88 152.75 180.38 152.26Q179.92 151.8 179.33 151.48Q179.22 151.41 179.1 151.35Q177.96 150.79 176.56 150.79Q175.01 150.79 173.81 151.43Q173.74 151.46 173.68 151.5Q173.14 151.8 172.7 152.22Q172.13 152.76 171.75 153.48Q171.06 154.77 171.06 156.48Q171.06 158.18 171.77 159.47Q172.17 160.21 172.76 160.75Q173.19 161.16 173.72 161.47Q173.9 161.57 174.08 161.65Q175.2 162.18 176.56 162.18Q178.33 162.18 179.58 161.36Q179.69 161.29 179.8 161.21Q180.53 160.67 181 159.97Q181.39 159.4 181.61 158.71L179.15 158.71Q178.82 159.39 178.28 159.77Q177.59 160.26 176.56 160.26Q175.74 160.26 175.09 159.94Q174.72 159.75 174.39 159.46Q174.12 159.21 173.92 158.91Q173.48 158.25 173.42 157.34L181.83 157.34ZM212.56 151.7Q212.14 152.07 211.83 152.58L211.83 150.97L209.55 150.97L209.55 162L211.83 162L211.83 156.19Q211.83 154.52 212.52 153.84Q212.53 153.83 212.55 153.82Q213.24 153.16 214.55 153.16L215.14 153.16L215.14 150.79Q214 150.79 213.17 151.27Q212.84 151.45 212.56 151.7ZM219.75 161.74Q220.79 162.18 222.01 162.18Q223.2 162.18 224.24 161.78Q224.58 161.64 224.91 161.47Q225.51 161.14 226 160.68Q226.57 160.15 226.98 159.46Q227.07 159.3 227.14 159.14Q227.74 157.96 227.74 156.48Q227.74 154.91 227.1 153.68Q227.05 153.59 227 153.49Q226.56 152.73 225.94 152.17Q225.5 151.78 224.97 151.5Q224.73 151.36 224.47 151.25Q223.39 150.79 222.12 150.79Q220.82 150.79 219.73 151.26Q219.49 151.37 219.26 151.5Q218.73 151.78 218.29 152.17Q217.67 152.73 217.23 153.49Q217.19 153.57 217.15 153.66Q216.5 154.9 216.5 156.48Q216.5 158.18 217.21 159.47Q217.63 160.2 218.22 160.75Q218.66 161.16 219.2 161.47Q219.47 161.62 219.75 161.74ZM245.57 151.29Q244.57 150.79 243.33 150.79Q242.69 150.79 242.1 150.96Q241.56 151.1 241.05 151.39Q240.28 151.82 239.81 152.47Q239.63 152.71 239.5 152.98Q239.19 152.4 238.75 151.97Q238.37 151.61 237.89 151.36Q237.83 151.32 237.76 151.28Q236.77 150.79 235.54 150.79Q234.8 150.79 234.13 151.01Q233.91 151.08 233.7 151.17Q233.01 151.48 232.51 151.98Q232.39 152.1 232.27 152.23L232.27 150.97L229.99 150.97L229.99 162L232.27 162L232.27 155.83Q232.27 154.37 233 153.59Q233.01 153.58 233.02 153.57Q233.21 153.37 233.44 153.22Q234.1 152.78 235.05 152.78Q236.03 152.78 236.69 153.23Q236.9 153.38 237.07 153.57Q237.08 153.57 237.08 153.58Q237.82 154.36 237.82 155.83L237.82 162L240.08 162L240.08 155.83Q240.08 154.37 240.81 153.59Q240.82 153.58 240.82 153.57Q241.02 153.37 241.24 153.22Q241.9 152.78 242.86 152.78Q243.82 152.78 244.48 153.23Q244.69 153.37 244.87 153.57Q244.88 153.57 244.88 153.58Q245.61 154.36 245.61 155.83L245.61 162L247.88 162L247.88 155.5Q247.88 154 247.28 152.94Q246.91 152.26 246.35 151.79Q246.03 151.53 245.66 151.34Q245.62 151.31 245.57 151.29ZM265.93 161.74Q266.97 162.18 268.19 162.18Q269.38 162.18 270.42 161.78Q270.76 161.64 271.09 161.47Q271.69 161.14 272.18 160.68Q272.75 160.15 273.16 159.46Q273.25 159.3 273.32 159.14Q273.92 157.96 273.92 156.48Q273.92 154.91 273.28 153.68Q273.23 153.59 273.18 153.49Q272.74 152.73 272.12 152.17Q271.68 151.78 271.15 151.5Q270.91 151.36 270.65 151.25Q269.57 150.79 268.3 150.79Q267 150.79 265.91 151.26Q265.67 151.37 265.44 151.5Q264.91 151.78 264.47 152.17Q263.85 152.73 263.41 153.49Q263.37 153.57 263.33 153.66Q262.68 154.9 262.68 156.48Q262.68 158.18 263.39 159.47Q263.81 160.2 264.4 160.75Q264.84 161.16 265.38 161.47Q265.65 161.62 265.93 161.74ZM280.04 151.32Q279.04 151.83 278.45 152.6L278.45 150.97L276.17 150.97L276.17 167.23L278.45 167.23L278.45 160.39Q279.07 161.16 280.06 161.67Q281.04 162.18 282.3 162.18Q283.15 162.18 283.92 161.92Q284.44 161.74 284.92 161.45Q285.3 161.22 285.63 160.92Q286.33 160.3 286.79 159.41Q286.8 159.39 286.81 159.38Q287.47 158.08 287.47 156.43Q287.47 154.77 286.79 153.49Q286.35 152.66 285.7 152.07Q285.34 151.75 284.92 151.51Q284.47 151.23 283.98 151.07Q283.18 150.79 282.3 150.79Q281.09 150.79 280.12 151.27Q280.08 151.3 280.04 151.32ZM310.51 151.29Q309.51 150.79 308.27 150.79Q307.63 150.79 307.04 150.96Q306.5 151.1 305.99 151.39Q305.22 151.82 304.75 152.47Q304.57 152.71 304.44 152.98Q304.13 152.4 303.69 151.97Q303.31 151.61 302.83 151.36Q302.77 151.32 302.7 151.28Q301.71 150.79 300.48 150.79Q299.74 150.79 299.07 151.01Q298.85 151.08 298.64 151.17Q297.95 151.48 297.45 151.98Q297.32 152.1 297.21 152.23L297.21 150.97L294.93 150.97L294.93 162L297.21 162L297.21 155.83Q297.21 154.37 297.94 153.59Q297.95 153.58 297.96 153.57Q298.15 153.37 298.38 153.22Q299.04 152.78 299.99 152.78Q300.97 152.78 301.63 153.23Q301.84 153.38 302.01 153.57L302.02 153.58Q302.76 154.36 302.76 155.83L302.76 162L305.02 162L305.02 155.83Q305.02 154.37 305.75 153.59Q305.76 153.58 305.76 153.57Q305.96 153.37 306.18 153.22Q306.84 152.78 307.79 152.78Q308.76 152.78 309.42 153.23Q309.63 153.37 309.81 153.57L309.82 153.58Q310.55 154.36 310.55 155.83L310.55 162L312.82 162L312.82 155.5Q312.82 154 312.22 152.94Q311.85 152.26 311.29 151.79Q310.97 151.53 310.6 151.34Q310.56 151.31 310.51 151.29ZM315.65 153.49Q314.96 154.77 314.96 156.43Q314.96 158.04 315.6 159.32Q315.62 159.37 315.65 159.41Q316.14 160.35 316.89 160.99Q317.19 161.24 317.52 161.45Q318.03 161.76 318.58 161.94Q319.31 162.18 320.11 162.18Q321.39 162.18 322.39 161.66Q323.4 161.14 323.98 160.35L323.98 162L326.28 162L326.28 150.97L323.98 150.97L323.98 152.58Q323.4 151.81 322.42 151.31Q321.46 150.79 320.16 150.79Q319.25 150.79 318.44 151.08Q317.97 151.24 317.53 151.51Q317.13 151.75 316.78 152.05Q316.1 152.64 315.65 153.49ZM346.73 157.34Q346.82 156.83 346.82 156.21Q346.82 154.66 346.17 153.46Q346.15 153.42 346.13 153.39Q345.78 152.75 345.28 152.26Q344.82 151.8 344.23 151.48Q344.12 151.41 344 151.35Q342.86 150.79 341.46 150.79Q339.91 150.79 338.71 151.43Q338.64 151.46 338.58 151.5Q338.04 151.8 337.6 152.22Q337.03 152.76 336.65 153.48Q335.96 154.77 335.96 156.48Q335.96 158.18 336.67 159.47Q337.07 160.21 337.66 160.75Q338.09 161.16 338.62 161.47Q338.8 161.57 338.98 161.65Q340.1 162.18 341.46 162.18Q343.23 162.18 344.48 161.36Q344.59 161.29 344.7 161.21Q345.43 160.67 345.9 159.97Q346.29 159.4 346.51 158.71L344.05 158.71Q343.72 159.39 343.18 159.77Q342.49 160.26 341.46 160.26Q340.64 160.26 339.99 159.94Q339.62 159.75 339.29 159.46Q339.02 159.21 338.82 158.91Q338.38 158.25 338.32 157.34L346.73 157.34ZM352.06 151.7Q351.64 152.07 351.33 152.58L351.33 150.97L349.05 150.97L349.05 162L351.33 162L351.33 156.19Q351.33 154.52 352.02 153.84Q352.03 153.83 352.05 153.82Q352.74 153.16 354.05 153.16L354.64 153.16L354.64 150.79Q353.5 150.79 352.67 151.27Q352.34 151.45 352.06 151.7ZM361.95 153.49Q361.26 154.77 361.26 156.43Q361.26 158.04 361.9 159.32Q361.92 159.37 361.95 159.41Q362.44 160.35 363.19 160.99Q363.49 161.24 363.82 161.45Q364.33 161.76 364.88 161.94Q365.61 162.18 366.41 162.18Q367.69 162.18 368.69 161.66Q369.7 161.14 370.28 160.35L370.28 162L372.58 162L372.58 150.97L370.28 150.97L370.28 152.58Q369.7 151.81 368.72 151.31Q367.76 150.79 366.46 150.79Q365.55 150.79 364.74 151.08Q364.27 151.24 363.83 151.51Q363.43 151.75 363.08 152.05Q362.4 152.64 361.95 153.49ZM382.52 161.71Q383.55 162.18 384.85 162.18Q386.14 162.18 387.08 161.76Q388.01 161.35 388.52 160.64Q388.54 160.62 388.55 160.6Q388.76 160.3 388.89 159.98Q389.08 159.48 389.08 158.91Q389.06 157.94 388.58 157.31Q388.54 157.26 388.5 157.22Q388.17 156.85 387.78 156.58Q387.49 156.39 387.16 156.25Q386.4 155.92 385.2 155.59Q384.3 155.34 383.83 155.16Q383.37 154.99 383.05 154.7Q382.9 154.56 382.82 154.39Q382.73 154.19 382.73 153.95Q382.73 153.71 382.82 153.51Q382.94 153.25 383.21 153.06Q383.7 152.71 384.59 152.71Q385.52 152.71 386.05 153.16Q386.28 153.34 386.42 153.56Q386.62 153.9 386.66 154.33L388.94 154.33Q388.89 153.28 388.39 152.51Q388.11 152.08 387.71 151.75Q387.65 151.7 387.6 151.66Q386.47 150.79 384.68 150.79Q383.41 150.79 382.44 151.21Q381.47 151.63 380.95 152.37Q380.68 152.75 380.55 153.18Q380.43 153.56 380.43 153.98Q380.43 154.95 380.9 155.58Q380.95 155.65 381.01 155.72Q381.39 156.16 381.87 156.45Q382.1 156.59 382.35 156.7Q383.13 157.02 384.38 157.36Q385.65 157.71 386.25 158.02Q386.58 158.18 386.72 158.45Q386.84 158.66 386.84 158.93Q386.84 159.15 386.76 159.34Q386.64 159.65 386.3 159.89Q385.78 160.26 384.81 160.26Q383.99 160.26 383.41 159.88Q383.35 159.84 383.29 159.79Q382.89 159.48 382.73 159.08Q382.64 158.86 382.62 158.62L380.25 158.62Q380.28 159.11 380.43 159.55Q380.59 160.01 380.89 160.43Q380.91 160.45 380.93 160.48Q381.53 161.25 382.52 161.71ZM359.01 162L359.01 150.97L356.73 150.97L356.73 162L359.01 162ZM179.18 154.13Q179.52 154.72 179.53 155.5L173.44 155.5Q173.56 154.52 174.08 153.85Q174.24 153.64 174.44 153.47Q174.79 153.15 175.19 152.97Q175.77 152.71 176.45 152.71Q177.4 152.71 178.13 153.12Q178.4 153.27 178.64 153.47Q178.97 153.77 179.18 154.13ZM344.08 154.13Q344.42 154.72 344.43 155.5L338.34 155.5Q338.46 154.52 338.98 153.85Q339.14 153.64 339.34 153.47Q339.69 153.15 340.09 152.97Q340.67 152.71 341.35 152.71Q342.3 152.71 343.03 153.12Q343.3 153.27 343.54 153.47Q343.87 153.77 344.08 154.13ZM151.96 154.5Q152.44 155.34 152.44 156.48Q152.44 157.62 151.96 158.47Q151.57 159.17 150.98 159.59Q150.86 159.68 150.73 159.75Q150.37 159.97 149.97 160.08Q149.55 160.19 149.1 160.19Q148.79 160.19 148.49 160.14Q147.96 160.03 147.47 159.74Q147.32 159.66 147.18 159.56Q146.61 159.13 146.23 158.44Q145.76 157.58 145.76 156.43Q145.76 155.3 146.23 154.47Q146.6 153.81 147.15 153.4Q147.3 153.3 147.46 153.21Q147.82 153 148.22 152.89Q148.64 152.78 149.1 152.78Q149.55 152.78 149.97 152.89Q150.37 153 150.73 153.22Q150.88 153.3 151.01 153.4Q151.58 153.82 151.96 154.5ZM191.94 154.5Q192.42 155.34 192.42 156.48Q192.42 157.62 191.94 158.47Q191.55 159.17 190.96 159.59Q190.84 159.68 190.71 159.75Q190.35 159.97 189.95 160.08Q189.53 160.19 189.08 160.19Q188.77 160.19 188.47 160.14Q187.94 160.03 187.45 159.74Q187.3 159.66 187.16 159.56Q186.59 159.13 186.21 158.44Q185.74 157.58 185.74 156.43Q185.74 155.3 186.21 154.47Q186.58 153.81 187.13 153.4Q187.28 153.3 187.44 153.21Q187.8 153 188.2 152.89Q188.62 152.78 189.08 152.78Q189.53 152.78 189.95 152.89Q190.35 153 190.71 153.22Q190.86 153.3 190.99 153.4Q191.56 153.82 191.94 154.5ZM222.87 160.09Q222.46 160.19 222.01 160.19Q221.25 160.19 220.63 159.89Q220.13 159.66 219.72 159.23Q219.7 159.2 219.67 159.17Q218.82 158.2 218.82 156.48Q218.82 155.28 219.26 154.45Q219.6 153.8 220.13 153.4Q220.28 153.29 220.44 153.2Q220.76 153.02 221.1 152.92Q221.56 152.78 222.07 152.78Q222.59 152.78 223.06 152.92Q223.4 153.02 223.71 153.2Q223.89 153.29 224.04 153.41Q224.58 153.8 224.93 154.45Q225.39 155.28 225.39 156.48Q225.39 157.67 224.92 158.51Q224.53 159.19 223.95 159.6Q223.81 159.69 223.67 159.77Q223.28 159.98 222.87 160.09ZM269.05 160.09Q268.64 160.19 268.19 160.19Q267.43 160.19 266.81 159.89Q266.31 159.66 265.9 159.23Q265.88 159.2 265.85 159.17Q265 158.2 265 156.48Q265 155.28 265.44 154.45Q265.78 153.8 266.31 153.4Q266.46 153.29 266.62 153.2Q266.94 153.02 267.28 152.92Q267.74 152.78 268.25 152.78Q268.77 152.78 269.24 152.92Q269.58 153.02 269.89 153.2Q270.07 153.29 270.22 153.41Q270.76 153.8 271.11 154.45Q271.57 155.28 271.57 156.48Q271.57 157.67 271.1 158.51Q270.71 159.19 270.13 159.6Q269.99 159.69 269.85 159.77Q269.46 159.98 269.05 160.09ZM284.69 154.47Q285.15 155.3 285.15 156.43Q285.15 157.58 284.69 158.44Q284.31 159.13 283.73 159.56Q283.59 159.66 283.45 159.74Q283.01 159.99 282.55 160.11Q282.18 160.19 281.79 160.19Q281.47 160.19 281.16 160.13Q280.65 160.03 280.16 159.75Q280.03 159.68 279.91 159.59Q279.31 159.17 278.92 158.47Q278.45 157.62 278.45 156.48Q278.45 155.34 278.92 154.5Q279.3 153.82 279.87 153.41Q280.01 153.3 280.16 153.22Q280.65 152.94 281.16 152.84Q281.47 152.78 281.79 152.78Q282.22 152.78 282.62 152.88Q283.04 152.98 283.45 153.21Q283.63 153.31 283.8 153.44Q284.33 153.84 284.69 154.47ZM323.5 154.5Q323.98 155.34 323.98 156.48Q323.98 157.62 323.5 158.47Q323.11 159.17 322.52 159.59Q322.4 159.68 322.27 159.75Q321.91 159.97 321.51 160.08Q321.09 160.19 320.64 160.19Q320.33 160.19 320.03 160.14Q319.5 160.03 319.01 159.74Q318.86 159.66 318.72 159.56Q318.15 159.13 317.76 158.44Q317.3 157.58 317.3 156.43Q317.3 155.3 317.76 154.47Q318.14 153.81 318.69 153.4Q318.84 153.3 319 153.21Q319.36 153 319.76 152.89Q320.18 152.78 320.64 152.78Q321.09 152.78 321.51 152.89Q321.91 153 322.27 153.22Q322.42 153.3 322.55 153.4Q323.12 153.82 323.5 154.5ZM369.8 154.5Q370.28 155.34 370.28 156.48Q370.28 157.62 369.8 158.47Q369.41 159.17 368.82 159.59Q368.7 159.68 368.57 159.75Q368.21 159.97 367.81 160.08Q367.39 160.19 366.94 160.19Q366.63 160.19 366.33 160.14Q365.8 160.03 365.31 159.74Q365.16 159.66 365.02 159.56Q364.45 159.13 364.07 158.44Q363.6 157.58 363.6 156.43Q363.6 155.3 364.07 154.47Q364.44 153.81 364.99 153.4Q365.14 153.3 365.3 153.21Q365.66 153 366.06 152.89Q366.48 152.78 366.94 152.78Q367.39 152.78 367.81 152.89Q368.21 153 368.57 153.22Q368.72 153.3 368.85 153.4Q369.42 153.82 369.8 154.5Z" fill="#898989" fill-opacity="1.000000" fill-rule="evenodd"/>
	<rect id="guarantee" width="60.000000" height="60.000000" transform="translate(445.333344 105.000000)" fill="#FFFFFF" fill-opacity="0"/>
	<g clip-path="url(#clip117_1317)">
		<path id="Vector" d="M502.11 126.26C501.32 123.81 501.66 120.13 499.6 117.28C497.53 114.42 493.92 113.61 491.88 112.12C489.87 110.64 487.99 107.43 484.6 106.33C481.31 105.25 477.94 106.71 475.33 106.71C472.72 106.71 469.35 105.25 466.05 106.33C462.66 107.43 460.79 110.64 458.77 112.12C456.74 113.6 453.13 114.42 451.06 117.28C449 120.12 449.33 123.81 448.54 126.26C447.79 128.58 445.33 131.38 445.33 135C445.33 138.62 447.79 141.4 448.54 143.73C449.33 146.19 449 149.87 451.05 152.71C453.13 155.57 456.74 156.39 458.77 157.88C460.79 159.35 462.66 162.56 466.05 163.66C469.35 164.74 472.72 163.28 475.33 163.28C477.93 163.28 481.32 164.74 484.6 163.66C487.99 162.56 489.87 159.35 491.88 157.88C493.92 156.39 497.53 155.57 499.6 152.71C501.66 149.87 501.32 146.18 502.11 143.73C502.87 141.41 505.33 138.61 505.33 135C505.33 131.38 502.87 128.59 502.11 126.26ZM497.65 142.29C496.73 145.15 496.97 148.35 495.81 149.96C494.62 151.59 491.52 152.34 489.12 154.09C486.75 155.83 485.08 158.58 483.15 159.21C481.32 159.8 478.34 158.59 475.33 158.59C472.3 158.59 469.35 159.81 467.51 159.21C465.57 158.58 463.91 155.83 461.54 154.09C459.16 152.35 456.03 151.59 454.85 149.96C453.69 148.35 453.92 145.13 453 142.29C452.1 139.51 450.02 137.1 450.02 135C450.02 132.89 452.1 130.49 453 127.7C453.93 124.84 453.68 121.64 454.85 120.03C456.03 118.4 459.14 117.65 461.54 115.9C463.92 114.16 465.57 111.42 467.51 110.78C469.33 110.19 472.33 111.4 475.33 111.4C478.37 111.4 481.31 110.18 483.15 110.78C485.08 111.42 486.74 114.16 489.12 115.9C491.5 117.64 494.63 118.4 495.81 120.03C496.97 121.64 496.74 124.86 497.65 127.7L497.65 127.7C498.55 130.48 500.64 132.89 500.64 135C500.64 137.1 498.56 139.5 497.65 142.29ZM486.13 127.47C487.04 128.39 487.04 129.87 486.13 130.79L474.4 142.52C473.48 143.43 472 143.43 471.08 142.52L464.53 135.97C463.62 135.05 463.62 133.57 464.53 132.65C465.45 131.74 466.93 131.74 467.85 132.65L472.74 137.55L482.81 127.47C483.73 126.56 485.21 126.56 486.13 127.47Z" fill="#242424" fill-opacity="1.000000" fill-rule="nonzero"/>
	</g>
	<path id="Warranty Protection" d="M735.89 112.25Q736.36 112.49 736.95 112.49Q737.57 112.49 738.04 112.23Q738.28 112.1 738.49 111.91Q738.77 111.64 738.92 111.31Q739.11 110.92 739.11 110.45Q739.11 109.96 738.92 109.57Q738.76 109.25 738.49 108.98Q738.28 108.79 738.04 108.65Q737.57 108.4 736.95 108.4Q736.36 108.4 735.89 108.64Q735.63 108.77 735.41 108.98Q735.15 109.24 735 109.55Q734.8 109.95 734.8 110.45Q734.8 110.93 734.99 111.32Q735.14 111.64 735.41 111.91Q735.63 112.11 735.89 112.25ZM535.5 128L540.38 110.55L536.61 110.55L533.51 124.02L530.15 110.55L526.25 110.55L522.7 124.1L519.63 110.55L515.88 110.55L520.58 128.02L524.68 128L528.1 115.57L531.38 128L535.5 128ZM656.61 117.32Q656.78 116.65 656.78 115.95Q656.78 114.68 656.3 113.63Q656.19 113.4 656.06 113.17Q655.94 112.95 655.79 112.75Q655.1 111.82 653.93 111.25Q652.5 110.55 650.48 110.55L644.06 110.55L644.06 128L647.55 128L647.55 121.29L650.48 121.29Q652.63 121.29 654.04 120.55Q655.29 119.88 655.95 118.84Q656.04 118.71 656.11 118.57Q656.44 117.97 656.61 117.32ZM617.35 123.72L617.35 117.02L620.45 117.02L620.45 114.15L617.35 114.15L617.35 110.72L613.83 110.72L613.83 114.15L612.18 114.15L612.18 117.02L613.83 117.02L613.83 123.69Q613.83 125.78 614.88 126.86Q615.98 128 618.26 128L620.45 128L620.45 125.05L618.83 125.05Q618.03 125.05 617.69 124.74Q617.35 124.42 617.35 123.72ZM689.38 123.72L689.38 117.02L692.48 117.02L692.48 114.15L689.38 114.15L689.38 110.72L685.86 110.72L685.86 114.15L684.2 114.15L684.2 117.02L685.86 117.02L685.86 123.69Q685.86 125.78 686.9 126.86Q688.01 128 690.28 128L692.48 128L692.48 125.05L690.85 125.05Q690.05 125.05 689.71 124.74Q689.38 124.42 689.38 123.72ZM729.55 123.72L729.55 117.02L732.65 117.02L732.65 114.15L729.55 114.15L729.55 110.72L726.03 110.72L726.03 114.15L724.38 114.15L724.38 117.02L726.03 117.02L726.03 123.69Q726.03 125.78 727.08 126.86Q728.18 128 730.46 128L732.65 128L732.65 125.05L731.03 125.05Q730.23 125.05 729.89 124.74Q729.55 124.42 729.55 123.72ZM652.48 117.81Q651.78 118.47 650.33 118.47L647.55 118.47L647.55 113.4L650.33 113.4Q651.91 113.4 652.62 114.18Q653.18 114.81 653.18 115.95Q653.18 116.93 652.71 117.55Q652.61 117.69 652.48 117.81ZM542.59 117.3Q541.75 118.92 541.75 121.02Q541.75 123.14 542.59 124.79Q543.25 126.07 544.28 126.91Q544.56 127.13 544.87 127.32Q545.45 127.69 546.09 127.91Q547.02 128.22 548.05 128.22Q549.6 128.22 550.79 127.59Q551.98 126.95 552.65 125.97L552.65 128L556.18 128L556.18 114.15L552.65 114.15L552.65 116.12Q551.95 115.17 550.79 114.55Q549.63 113.92 548.08 113.92Q546.9 113.92 545.88 114.31Q545.35 114.5 544.87 114.8Q544.56 114.98 544.28 115.2Q543.25 116.02 542.59 117.3ZM579.74 117.3Q578.9 118.92 578.9 121.02Q578.9 123.14 579.74 124.79Q580.4 126.07 581.44 126.91Q581.71 127.13 582.02 127.32Q582.6 127.69 583.24 127.91Q584.17 128.22 585.2 128.22Q586.75 128.22 587.94 127.59Q589.13 126.95 589.8 125.97L589.8 128L593.33 128L593.33 114.15L589.8 114.15L589.8 116.12Q589.1 115.17 587.94 114.55Q586.78 113.92 585.23 113.92Q584.05 113.92 583.03 114.31Q582.5 114.5 582.02 114.8Q581.71 114.98 581.43 115.2Q580.4 116.02 579.74 117.3ZM672.45 127.61Q673.84 128.22 675.5 128.22Q677.22 128.22 678.65 127.59Q678.91 127.47 679.16 127.34Q679.93 126.92 680.55 126.34Q681.25 125.69 681.76 124.82Q681.85 124.67 681.93 124.52Q682.73 123.01 682.73 121.07Q682.73 119.08 681.9 117.53Q681.85 117.42 681.79 117.32Q681.29 116.45 680.59 115.8Q679.99 115.22 679.23 114.81Q678.9 114.63 678.55 114.49Q677.2 113.92 675.61 113.92Q674.01 113.92 672.64 114.49Q672.3 114.63 671.97 114.81Q671.24 115.21 670.65 115.76Q669.93 116.43 669.41 117.32Q669.36 117.41 669.31 117.49Q668.48 119.06 668.48 121.07Q668.48 123.19 669.38 124.81L669.39 124.82Q669.9 125.73 670.63 126.41Q671.2 126.95 671.9 127.34Q672.17 127.48 672.45 127.61ZM707.78 122.12Q707.88 121.52 707.88 120.77Q707.88 118.8 707.06 117.27Q707.04 117.22 707.01 117.18Q706.57 116.38 705.95 115.77Q705.35 115.18 704.59 114.77Q704.45 114.69 704.3 114.62Q702.85 113.92 701.05 113.92Q699.05 113.92 697.5 114.76Q697.47 114.78 697.43 114.8Q696.77 115.17 696.23 115.67Q695.49 116.35 694.98 117.3Q694.1 118.92 694.1 121.07Q694.1 123.2 694.99 124.82Q695.48 125.73 696.2 126.4Q696.76 126.94 697.47 127.34Q697.67 127.45 697.89 127.55Q699.31 128.22 701.05 128.22Q703.15 128.22 704.69 127.3Q704.97 127.13 705.22 126.93Q706.17 126.22 706.77 125.29Q707.26 124.54 707.53 123.64L703.75 123.64Q703.37 124.42 702.75 124.84Q702.03 125.32 700.98 125.32Q700.11 125.32 699.42 124.97Q699.03 124.78 698.7 124.47Q698.54 124.33 698.4 124.16Q697.76 123.36 697.66 122.12L707.78 122.12ZM710.4 117.31Q709.53 118.92 709.53 121.07Q709.53 123.22 710.4 124.83Q710.92 125.78 711.67 126.48Q712.19 126.97 712.83 127.34Q712.98 127.42 713.13 127.5Q714.57 128.22 716.38 128.22Q718.61 128.22 720.2 127.2Q720.42 127.06 720.62 126.9Q721.17 126.47 721.6 125.95Q722.51 124.85 722.91 123.32L719.13 123.32Q718.83 124.18 718.23 124.66Q717.51 125.22 716.35 125.22Q715.47 125.22 714.8 124.84Q714.34 124.58 713.98 124.13Q713.1 123.05 713.1 121.07Q713.1 119.07 713.98 117.99Q714.34 117.53 714.81 117.27Q715.48 116.89 716.35 116.89Q717.34 116.89 718.03 117.34Q718.07 117.37 718.12 117.41Q718.33 117.56 718.5 117.74Q718.92 118.19 719.13 118.82L722.91 118.82Q722.46 117.04 721.37 115.87Q721.03 115.51 720.64 115.21Q720.53 115.13 720.42 115.05Q718.79 113.92 716.38 113.92Q714.59 113.92 713.16 114.64Q712.99 114.72 712.83 114.81Q712.2 115.17 711.68 115.65Q710.92 116.35 710.4 117.31ZM745.22 127.61Q746.61 128.22 748.28 128.22Q749.99 128.22 751.43 127.59Q751.69 127.47 751.94 127.34Q752.71 126.92 753.33 126.34Q754.03 125.69 754.54 124.82Q754.63 124.67 754.71 124.52Q755.5 123.01 755.5 121.07Q755.5 119.08 754.68 117.53Q754.62 117.42 754.56 117.32Q754.07 116.45 753.37 115.8Q752.76 115.22 752 114.81Q751.67 114.63 751.33 114.49Q749.97 113.92 748.38 113.92Q746.78 113.92 745.42 114.49Q745.08 114.63 744.75 114.81Q744.02 115.21 743.43 115.76Q742.7 116.43 742.19 117.32Q742.14 117.41 742.09 117.49Q741.25 119.06 741.25 121.07Q741.25 123.19 742.15 124.81L742.16 124.82Q742.68 125.73 743.4 126.41Q743.97 126.95 744.68 127.34Q744.94 127.48 745.22 127.61ZM564.11 115.11Q563.53 115.61 563.1 116.3L563.1 114.15L559.61 114.15L559.61 128L563.1 128L563.1 121.1Q563.1 119.17 563.94 118.39Q564.78 117.62 566.43 117.62L567.35 117.62L567.35 113.95Q566.12 113.95 565.12 114.44Q564.99 114.5 564.87 114.57Q564.46 114.81 564.11 115.11ZM574.21 115.11Q573.63 115.61 573.2 116.3L573.2 114.15L569.71 114.15L569.71 128L573.2 128L573.2 121.1Q573.2 119.17 574.04 118.39Q574.88 117.62 576.53 117.62L577.45 117.62L577.45 113.95Q576.21 113.95 575.22 114.44Q575.09 114.5 574.97 114.57Q574.56 114.81 574.21 115.11ZM607.45 114.73Q606.18 113.95 604.43 113.95Q603.26 113.95 602.26 114.36Q602.15 114.41 602.04 114.46Q601.23 114.84 600.63 115.44Q600.43 115.64 600.25 115.87L600.25 114.15L596.76 114.15L596.76 128L600.25 128L600.25 120.35Q600.25 118.72 601.07 117.83Q601.08 117.82 601.09 117.81Q601.29 117.6 601.52 117.44Q602.27 116.92 603.38 116.92Q604.44 116.92 605.17 117.41Q605.42 117.58 605.63 117.81Q606.45 118.69 606.45 120.35L606.45 128L609.95 128L609.95 119.87Q609.95 117.35 608.72 115.84Q608.58 115.67 608.43 115.51Q607.98 115.05 607.45 114.73ZM663.76 115.11Q663.18 115.61 662.75 116.3L662.75 114.15L659.26 114.15L659.26 128L662.75 128L662.75 121.1Q662.75 119.17 663.59 118.39Q664.43 117.62 666.08 117.62L667 117.62L667 113.95Q665.77 113.95 664.77 114.44Q664.64 114.5 664.52 114.57Q664.11 114.81 663.76 115.11ZM768.78 114.73Q767.5 113.95 765.75 113.95Q764.58 113.95 763.59 114.36Q763.48 114.41 763.37 114.46Q762.56 114.84 761.96 115.44Q761.76 115.64 761.58 115.87L761.58 114.15L758.08 114.15L758.08 128L761.58 128L761.58 120.35Q761.58 118.72 762.39 117.83Q762.4 117.82 762.41 117.81Q762.61 117.6 762.85 117.44Q763.6 116.92 764.7 116.92Q765.77 116.92 766.5 117.41Q766.75 117.58 766.96 117.81Q767.78 118.69 767.78 120.35L767.78 128L771.28 128L771.28 119.87Q771.28 117.35 770.05 115.84Q769.91 115.67 769.75 115.51Q769.31 115.05 768.78 114.73ZM627.66 134.54L636.23 114.15L632.5 114.15L628.88 123.82L625.31 114.15L621.38 114.15L626.93 127.65L623.93 134.54L627.66 134.54ZM738.68 128L738.68 114.15L735.18 114.15L735.18 128L738.68 128ZM703.88 118.32Q704.24 118.94 704.25 119.77L697.68 119.77Q697.85 118.58 698.52 117.83Q698.63 117.7 698.77 117.58Q699.05 117.33 699.37 117.16Q700.07 116.8 700.95 116.8Q701.92 116.8 702.68 117.2Q703 117.37 703.28 117.61Q703.65 117.92 703.88 118.32ZM676.42 125.06Q675.97 125.17 675.5 125.17Q674.67 125.17 674 124.84Q673.45 124.58 673.01 124.11Q672.03 123.05 672.03 121.07Q672.03 119.16 672.98 118.11Q673.01 118.07 673.04 118.03Q673.52 117.54 674.1 117.27Q674.76 116.97 675.55 116.97Q676.33 116.97 676.98 117.26Q677.59 117.52 678.09 118.03Q678.15 118.1 678.21 118.16Q679.13 119.21 679.13 121.07Q679.13 122.39 678.63 123.32Q678.23 124.06 677.61 124.51Q677.46 124.62 677.29 124.71Q676.87 124.94 676.42 125.06ZM749.19 125.06Q748.75 125.17 748.28 125.17Q747.45 125.17 746.77 124.84Q746.23 124.58 745.79 124.11Q744.8 123.05 744.8 121.07Q744.8 119.16 745.75 118.11Q745.78 118.07 745.82 118.03Q746.29 117.54 746.88 117.27Q747.53 116.97 748.33 116.97Q749.1 116.97 749.76 117.26Q750.37 117.52 750.87 118.03Q750.93 118.1 750.98 118.16Q751.9 119.21 751.9 121.07Q751.9 122.39 751.4 123.32Q751 124.06 750.39 124.51Q750.23 124.62 750.07 124.71Q749.64 124.94 749.19 125.06ZM552.15 118.89Q552.65 119.8 552.65 121.07Q552.65 122.34 552.15 123.26Q551.8 123.9 551.28 124.33Q551.06 124.51 550.8 124.66Q550.37 124.91 549.91 125.03Q549.46 125.15 548.98 125.15Q548.58 125.15 548.2 125.06Q547.68 124.94 547.19 124.64Q547.04 124.55 546.9 124.45Q546.26 123.97 545.84 123.21Q545.33 122.27 545.33 121.02Q545.33 119.77 545.84 118.86Q546.27 118.09 546.92 117.63Q547.05 117.55 547.18 117.47Q547.51 117.28 547.87 117.17Q548.4 117 548.98 117Q549.46 117 549.91 117.11Q550.37 117.24 550.8 117.49Q551.05 117.62 551.26 117.8Q551.8 118.23 552.15 118.89ZM589.3 118.89Q589.8 119.8 589.8 121.07Q589.8 122.34 589.3 123.26Q588.95 123.9 588.43 124.33Q588.21 124.51 587.95 124.66Q587.52 124.91 587.06 125.03Q586.61 125.15 586.13 125.15Q585.73 125.15 585.35 125.06Q584.83 124.94 584.34 124.64Q584.19 124.55 584.05 124.45Q583.41 123.97 582.99 123.21Q582.48 122.27 582.48 121.02Q582.48 119.77 582.99 118.86Q583.42 118.09 584.07 117.63Q584.2 117.55 584.33 117.47Q584.66 117.28 585.02 117.17Q585.55 117 586.13 117Q586.61 117 587.06 117.11Q587.52 117.24 587.95 117.49Q588.2 117.62 588.41 117.8Q588.95 118.23 589.3 118.89Z" fill="#242424" fill-opacity="1.000000" fill-rule="evenodd"/>
	<path id="Over 2 years" d="M573.24 156.17Q572.13 157.23 570.21 158.89L568.77 160.14L568.77 161.8L578.49 161.8L578.49 159.89L572.15 159.89L573.05 159.1Q574.61 157.71 575.62 156.66Q576.63 155.61 577.36 154.28Q577.87 153.35 578.03 152.36Q578.09 151.94 578.09 151.52Q578.09 150.02 577.41 148.98Q577.17 148.62 576.86 148.32Q576.72 148.18 576.56 148.06Q575.38 147.12 573.45 147.12Q571.99 147.12 570.9 147.75Q570.48 147.99 570.12 148.33Q569.95 148.48 569.81 148.65Q568.8 149.82 568.75 151.81L570.95 151.81Q570.99 150.58 571.62 149.83Q571.63 149.82 571.64 149.81Q571.81 149.61 572.02 149.46Q572.6 149.06 573.47 149.06Q574.56 149.06 575.14 149.6Q575.2 149.67 575.26 149.73Q575.83 150.41 575.83 151.61Q575.83 152.78 575.09 153.94Q574.35 155.1 573.24 156.17ZM520.75 161.74Q521.89 162.14 523.17 162.14Q524.52 162.14 525.71 161.71Q526.25 161.51 526.76 161.23Q527.54 160.79 528.16 160.19Q528.84 159.54 529.33 158.68Q529.52 158.35 529.68 157.99Q530.27 156.63 530.27 155.01Q530.27 153.39 529.67 152.03Q529.52 151.68 529.33 151.36Q528.85 150.53 528.19 149.88Q527.56 149.27 526.76 148.83Q526.24 148.53 525.69 148.34Q524.5 147.91 523.17 147.91Q521.9 147.91 520.77 148.3Q520.16 148.51 519.6 148.83Q518.84 149.25 518.23 149.83Q517.53 150.49 517.02 151.36Q516.82 151.7 516.66 152.05Q516.07 153.4 516.07 155.01Q516.07 156.62 516.65 157.97Q516.82 158.34 517.02 158.68Q517.54 159.58 518.26 160.25Q518.86 160.81 519.6 161.23Q520.15 161.54 520.75 161.74ZM525.28 159.71Q524.33 160.15 523.17 160.15Q521.99 160.15 521.03 159.69Q520.86 159.62 520.71 159.52Q520.35 159.32 520.05 159.05Q519.43 158.51 519.02 157.73Q518.41 156.56 518.41 155.01Q518.41 153.47 519.02 152.32Q519.43 151.54 520.05 151Q520.35 150.74 520.71 150.53Q520.84 150.46 520.98 150.39Q521.96 149.92 523.17 149.92Q524.36 149.92 525.33 150.38Q525.48 150.45 525.63 150.53Q526.01 150.75 526.33 151.03Q526.92 151.56 527.32 152.32Q527.93 153.47 527.93 155.01Q527.93 156.56 527.32 157.73Q526.92 158.49 526.32 159.02Q526 159.31 525.63 159.52Q525.46 159.62 525.28 159.71ZM554.05 157.34Q554.13 156.83 554.13 156.21Q554.13 154.66 553.48 153.46Q553.46 153.42 553.45 153.39Q553.09 152.75 552.59 152.26Q552.13 151.8 551.55 151.48Q551.43 151.41 551.31 151.35Q550.18 150.79 548.77 150.79Q547.23 150.79 546.02 151.43Q545.96 151.46 545.9 151.5Q545.35 151.8 544.92 152.22Q544.35 152.76 543.96 153.48Q543.27 154.77 543.27 156.48Q543.27 158.18 543.98 159.47Q544.39 160.21 544.97 160.75Q545.4 161.16 545.94 161.47Q546.11 161.57 546.3 161.65Q547.41 162.18 548.77 162.18Q550.55 162.18 551.79 161.36Q551.91 161.29 552.02 161.21Q552.74 160.67 553.22 159.97Q553.6 159.4 553.83 158.71L551.37 158.71Q551.03 159.39 550.49 159.77Q549.8 160.26 548.77 160.26Q547.96 160.26 547.31 159.94Q546.93 159.75 546.61 159.46Q546.33 159.21 546.14 158.91Q545.7 158.25 545.63 157.34L554.05 157.34ZM559.37 151.7Q558.95 152.07 558.65 152.58L558.65 150.97L556.37 150.97L556.37 162L558.65 162L558.65 156.19Q558.65 154.52 559.34 153.84Q559.35 153.83 559.36 153.82Q560.05 153.16 561.37 153.16L561.95 153.16L561.95 150.79Q560.81 150.79 559.98 151.27Q559.65 151.45 559.37 151.7ZM607.65 157.34Q607.73 156.83 607.73 156.21Q607.73 154.66 607.08 153.46Q607.07 153.42 607.05 153.39Q606.69 152.75 606.19 152.26Q605.73 151.8 605.15 151.48Q605.03 151.41 604.91 151.35Q603.78 150.79 602.37 150.79Q600.83 150.79 599.62 151.43Q599.56 151.46 599.5 151.5Q598.95 151.8 598.52 152.22Q597.95 152.76 597.56 153.48Q596.87 154.77 596.87 156.48Q596.87 158.18 597.58 159.47Q597.99 160.21 598.57 160.75Q599 161.16 599.54 161.47Q599.71 161.57 599.9 161.65Q601.01 162.18 602.37 162.18Q604.15 162.18 605.39 161.36Q605.51 161.29 605.62 161.21Q606.34 160.67 606.82 159.97Q607.2 159.4 607.43 158.71L604.97 158.71Q604.63 159.39 604.09 159.77Q603.4 160.26 602.37 160.26Q601.56 160.26 600.9 159.94Q600.53 159.75 600.21 159.46Q599.93 159.21 599.74 158.91Q599.3 158.25 599.23 157.34L607.65 157.34ZM609.9 153.49Q609.21 154.77 609.21 156.43Q609.21 158.04 609.86 159.32Q609.88 159.37 609.9 159.41Q610.4 160.35 611.15 160.99Q611.44 161.24 611.77 161.45Q612.28 161.76 612.83 161.94Q613.56 162.18 614.37 162.18Q615.65 162.18 616.65 161.66Q617.65 161.14 618.23 160.35L618.23 162L620.53 162L620.53 150.97L618.23 150.97L618.23 152.58Q617.65 151.81 616.68 151.31Q615.71 150.79 614.41 150.79Q613.51 150.79 612.7 151.08Q612.22 151.24 611.78 151.51Q611.38 151.75 611.03 152.05Q610.36 152.64 609.9 153.49ZM626.53 151.7Q626.11 152.07 625.81 152.58L625.81 150.97L623.53 150.97L623.53 162L625.81 162L625.81 156.19Q625.81 154.52 626.5 153.84Q626.51 153.83 626.52 153.82Q627.21 153.16 628.53 153.16L629.11 153.16L629.11 150.79Q627.97 150.79 627.14 151.27Q626.81 151.45 626.53 151.7ZM632.88 161.71Q633.91 162.18 635.21 162.18Q636.49 162.18 637.44 161.76Q638.36 161.35 638.88 160.64Q638.89 160.62 638.91 160.6Q639.12 160.3 639.24 159.98Q639.43 159.48 639.43 158.91Q639.41 157.94 638.93 157.31Q638.89 157.26 638.85 157.22Q638.52 156.85 638.13 156.58Q637.84 156.39 637.52 156.25Q636.75 155.92 635.55 155.59Q634.65 155.34 634.19 155.16Q633.73 154.99 633.4 154.7Q633.26 154.56 633.18 154.39Q633.09 154.19 633.09 153.95Q633.09 153.71 633.18 153.51Q633.3 153.25 633.57 153.06Q634.05 152.71 634.95 152.71Q635.87 152.71 636.41 153.16Q636.63 153.34 636.77 153.56Q636.97 153.9 637.01 154.33L639.29 154.33Q639.24 153.28 638.74 152.51Q638.47 152.08 638.06 151.75Q638.01 151.7 637.95 151.66Q636.82 150.79 635.03 150.79Q633.77 150.79 632.79 151.21Q631.83 151.63 631.31 152.37Q631.03 152.75 630.9 153.18Q630.79 153.56 630.79 153.98Q630.79 154.95 631.25 155.58Q631.3 155.65 631.36 155.72Q631.74 156.16 632.22 156.45Q632.45 156.59 632.71 156.7Q633.49 157.02 634.73 157.36Q636.01 157.71 636.6 158.02Q636.93 158.18 637.07 158.45Q637.19 158.66 637.19 158.93Q637.19 159.15 637.12 159.34Q636.99 159.65 636.66 159.89Q636.13 160.26 635.17 160.26Q634.34 160.26 633.77 159.88Q633.7 159.84 633.64 159.79Q633.24 159.48 633.08 159.08Q632.99 158.86 632.97 158.62L630.61 158.62Q630.63 159.11 630.78 159.55Q630.94 160.01 631.25 160.43Q631.27 160.45 631.28 160.48Q631.88 161.25 632.88 161.71ZM539.89 150.97L536.77 159.95L533.65 150.97L531.21 150.97L535.39 162L538.11 162L542.31 150.97L539.89 150.97ZM589.15 167.18L595.91 150.97L593.55 150.97L590.33 159.37L587.23 150.97L584.69 150.97L589.03 161.81L586.79 167.18L589.15 167.18ZM551.39 154.13Q551.74 154.72 551.75 155.5L545.65 155.5Q545.77 154.52 546.29 153.85Q546.45 153.64 546.65 153.47Q547 153.15 547.41 152.97Q547.98 152.71 548.67 152.71Q549.62 152.71 550.34 153.12Q550.61 153.27 550.85 153.47Q551.18 153.77 551.39 154.13ZM604.99 154.13Q605.34 154.72 605.35 155.5L599.25 155.5Q599.37 154.52 599.89 153.85Q600.05 153.64 600.25 153.47Q600.6 153.15 601.01 152.97Q601.58 152.71 602.27 152.71Q603.21 152.71 603.94 153.12Q604.21 153.27 604.45 153.47Q604.78 153.77 604.99 154.13ZM617.76 154.5Q618.23 155.34 618.23 156.48Q618.23 157.62 617.76 158.47Q617.37 159.17 616.77 159.59Q616.65 159.68 616.53 159.75Q616.16 159.97 615.76 160.08Q615.34 160.19 614.89 160.19Q614.58 160.19 614.28 160.14Q613.75 160.03 613.26 159.74Q613.11 159.66 612.98 159.56Q612.4 159.13 612.02 158.44Q611.55 157.58 611.55 156.43Q611.55 155.3 612.02 154.47Q612.39 153.81 612.95 153.4Q613.09 153.3 613.25 153.21Q613.62 153 614.01 152.89Q614.43 152.78 614.89 152.78Q615.34 152.78 615.76 152.89Q616.16 153 616.53 153.22Q616.67 153.3 616.81 153.4Q617.38 153.82 617.76 154.5Z" fill="#898989" fill-opacity="1.000000" fill-rule="evenodd"/>
	<rect id="shipping" width="60.000000" height="60.000000" transform="translate(828.666687 105.000000)" fill="#FFFFFF" fill-opacity="0"/>
	<g clip-path="url(#clip117_1325)">
		<path id="Vector" d="M884.01 136.1L884.01 108.78C884.01 107.8 883.22 107.01 882.25 107.01L834.96 107.01C833.98 107.01 833.19 107.8 833.19 108.78L833.19 138.28C832.34 138.4 831.51 138.73 830.77 139.28C828.45 140.92 827.9 144.61 829.85 146.88L837.8 156.52C842.72 162.28 847.94 162.98 855.72 162.98C862.38 162.98 865.37 163.01 871.18 161.69L876.84 160.33C877.76 161.61 879.21 162.44 880.85 162.44L883.64 162.44C886.41 162.44 888.66 160.07 888.66 157.15L888.66 141.37C888.66 138.59 886.61 136.3 884.01 136.1ZM876.08 139.73L873.73 138.53C869.86 136.58 865.39 136.51 861.46 138.34C860.39 138.76 858.05 140.17 856.84 140.12L848.68 140.12C845.97 140.12 843.77 142.33 843.77 145.03L843.77 146.32C843.75 146.3 843.74 146.29 843.72 146.27L837.9 139.95C837.54 139.56 837.15 139.24 836.72 138.99L836.72 121.48L851.17 121.48L851.17 127.95C851.17 128.92 851.96 129.71 852.93 129.71L864.07 129.71C865.04 129.71 865.83 128.92 865.83 127.95L865.83 121.48L880.48 121.48L880.48 136.1C878.42 136.26 876.7 137.73 876.08 139.73ZM854.7 121.48L862.3 121.48L862.3 126.18L854.7 126.18L854.7 121.48ZM880.48 117.95L865.83 117.95L865.83 110.54L880.48 110.54L880.48 117.95L880.48 117.95ZM862.3 110.54L862.3 117.95L854.7 117.95L854.7 110.54L862.3 110.54ZM851.17 110.54L851.17 117.95L836.72 117.95L836.72 110.54L851.17 110.54ZM870.36 158.25C864.99 159.48 861.76 159.43 855.78 159.43C848.48 159.43 844.96 159.31 840.52 154.27L832.57 144.63C831.19 142.83 833.69 140.71 835.3 142.34L841.13 148.66C842.67 150.29 844.61 151.18 846.99 151.24L863.15 151.24C864.13 151.24 864.92 150.45 864.92 149.47C864.92 148.5 864.13 147.71 863.15 147.71L847.3 147.71L847.3 145.03C847.3 144.27 847.92 143.65 848.68 143.65L856.84 143.65C858.68 143.78 861.33 142.25 862.95 141.54C865.89 140.17 869.24 140.22 872.13 141.68L875.83 143.56L875.83 156.94L870.36 158.25ZM885.13 157.15C885.13 158.12 884.46 158.91 883.64 158.91L880.85 158.91C880.03 158.91 879.36 158.12 879.36 157.15L879.36 141.37C879.36 140.4 880.03 139.61 880.85 139.61L883.64 139.61C884.46 139.61 885.13 140.4 885.13 141.37L885.13 157.15Z" fill="#242424" fill-opacity="1.000000" fill-rule="nonzero"/>
	</g>
	<path id="Free Shipping" d="M993 112.25Q993.47 112.49 994.06 112.49Q994.67 112.49 995.15 112.23Q995.39 112.1 995.6 111.91Q995.88 111.64 996.03 111.31Q996.21 110.92 996.21 110.45Q996.21 109.96 996.03 109.57Q995.87 109.25 995.6 108.98Q995.39 108.79 995.15 108.65Q994.67 108.4 994.06 108.4Q993.47 108.4 993 108.64Q992.74 108.77 992.52 108.98Q992.25 109.24 992.1 109.55Q991.91 109.95 991.91 110.45Q991.91 110.93 992.1 111.32Q992.25 111.64 992.52 111.91Q992.74 112.11 993 112.25ZM1033.85 112.25Q1034.31 112.49 1034.91 112.49Q1035.53 112.49 1036 112.23Q1036.25 112.1 1036.44 111.91Q1036.73 111.64 1036.89 111.31Q1037.06 110.92 1037.06 110.45Q1037.06 109.96 1036.88 109.57Q1036.73 109.25 1036.44 108.98Q1036.25 108.79 1036 108.65Q1035.53 108.4 1034.91 108.4Q1034.31 108.4 1033.85 108.64Q1033.6 108.77 1033.38 108.98Q1033.11 109.24 1032.96 109.55Q1032.77 109.95 1032.77 110.45Q1032.77 110.93 1032.94 111.32Q1033.1 111.64 1033.38 111.91Q1033.6 112.11 1033.85 112.25ZM986.18 114.54Q985.03 113.95 983.56 113.95Q982.19 113.95 981.06 114.46Q980.08 114.91 979.44 115.65Q979.35 115.76 979.26 115.87L979.26 109.5L975.76 109.5L975.76 128L979.26 128L979.26 120.35Q979.26 118.72 980.07 117.83Q980.09 117.82 980.1 117.81Q980.3 117.6 980.53 117.44Q981.28 116.92 982.39 116.92Q983.45 116.92 984.18 117.41Q984.43 117.58 984.64 117.81Q985.46 118.69 985.46 120.35L985.46 128L988.96 128L988.96 119.87Q988.96 118 988.27 116.66Q987.79 115.72 987.04 115.1Q986.72 114.84 986.36 114.63Q986.27 114.58 986.18 114.54ZM963.27 127.55Q964.74 128.17 966.56 128.17Q968.49 128.17 969.88 127.46Q971.12 126.83 971.82 125.83Q971.92 125.69 972.01 125.55Q972.38 124.93 972.57 124.25Q972.73 123.62 972.73 122.95Q972.73 121.32 971.96 120.32Q971.38 119.57 970.62 119.1Q970.38 118.95 970.11 118.82Q969.04 118.32 967.34 117.82Q966.09 117.44 965.4 117.16Q964.71 116.87 964.25 116.41Q964.07 116.23 963.96 116.02Q963.79 115.68 963.79 115.25Q963.79 114.45 964.17 113.95Q964.27 113.83 964.4 113.72Q964.43 113.69 964.46 113.67Q965.07 113.19 966.04 113.19Q967.16 113.19 967.86 113.74Q967.89 113.76 967.92 113.79Q968.31 114.1 968.5 114.51Q968.67 114.86 968.69 115.27L972.54 115.27Q972.42 113.76 971.68 112.67Q971.27 112.07 970.67 111.61Q970.66 111.6 970.65 111.59Q968.97 110.3 966.29 110.3Q964.49 110.3 963.08 110.91Q961.98 111.39 961.27 112.21Q961.08 112.43 960.91 112.68Q960.77 112.88 960.66 113.11Q960.14 114.1 960.14 115.37Q960.14 117.02 960.9 118.01Q961.49 118.77 962.26 119.23Q962.48 119.37 962.72 119.48Q963.79 119.97 965.49 120.47Q966.73 120.82 967.45 121.11Q968.16 121.4 968.64 121.9Q968.78 122.04 968.87 122.21Q969.11 122.62 969.11 123.17Q969.11 123.69 968.9 124.11Q968.73 124.45 968.41 124.71Q967.71 125.3 966.48 125.3Q965.36 125.3 964.68 124.75Q964.64 124.71 964.6 124.68Q964.44 124.53 964.31 124.35Q963.9 123.79 963.84 122.97L960.09 122.97Q960.11 124.19 960.6 125.17Q960.76 125.47 960.96 125.75Q961.12 125.96 961.29 126.16Q962.08 127.04 963.27 127.55ZM911.16 113.37L911.16 110.55L900.39 110.55L900.39 128L903.89 128L903.89 120.62L909.46 120.62L909.46 117.85L903.89 117.85L903.89 113.37L911.16 113.37ZM936.51 122.12Q936.61 121.52 936.61 120.77Q936.61 118.8 935.79 117.27Q935.77 117.22 935.75 117.18Q935.31 116.38 934.68 115.77Q934.09 115.18 933.32 114.77Q933.18 114.69 933.03 114.62Q931.58 113.92 929.79 113.92Q927.78 113.92 926.23 114.76Q926.2 114.78 926.16 114.8Q925.5 115.17 924.96 115.67Q924.22 116.35 923.71 117.3Q922.84 118.92 922.84 121.07Q922.84 123.2 923.72 124.82Q924.22 125.73 924.93 126.4Q925.5 126.94 926.2 127.34Q926.41 127.45 926.62 127.55Q928.05 128.22 929.79 128.22Q931.88 128.22 933.42 127.3Q933.7 127.13 933.96 126.93Q934.9 126.22 935.51 125.29Q935.99 124.54 936.26 123.64L932.49 123.64Q932.1 124.42 931.48 124.84Q930.76 125.32 929.71 125.32Q928.85 125.32 928.15 124.97Q927.76 124.78 927.43 124.47Q927.27 124.33 927.14 124.16Q926.49 123.36 926.39 122.12L936.51 122.12ZM951.94 122.12Q952.04 121.52 952.04 120.77Q952.04 118.8 951.22 117.27Q951.19 117.22 951.17 117.18Q950.73 116.38 950.11 115.77Q949.51 115.18 948.75 114.77Q948.6 114.69 948.46 114.62Q947 113.92 945.21 113.92Q943.21 113.92 941.66 114.76Q941.62 114.78 941.59 114.8Q940.93 115.17 940.39 115.67Q939.64 116.35 939.13 117.3Q938.26 118.92 938.26 121.07Q938.26 123.2 939.15 124.82Q939.64 125.73 940.36 126.4Q940.92 126.94 941.62 127.34Q941.83 127.45 942.05 127.55Q943.47 128.22 945.21 128.22Q947.31 128.22 948.85 127.3Q949.12 127.13 949.38 126.93Q950.33 126.22 950.93 125.29Q951.42 124.54 951.69 123.64L947.91 123.64Q947.53 124.42 946.9 124.84Q946.18 125.32 945.14 125.32Q944.27 125.32 943.58 124.97Q943.19 124.78 942.86 124.47Q942.7 124.33 942.56 124.16Q941.91 123.36 941.81 122.12L951.94 122.12ZM1004.6 114.56Q1003.42 115.2 1002.74 116.14L1002.74 114.15L999.24 114.15L999.24 134.59L1002.74 134.59L1002.74 126.02Q1003.47 126.97 1004.63 127.6Q1005.79 128.22 1007.32 128.22Q1008.46 128.22 1009.47 127.85Q1010.02 127.64 1010.52 127.32Q1010.86 127.11 1011.16 126.87Q1012.16 126.04 1012.8 124.79Q1013.64 123.14 1013.64 121.02Q1013.64 118.9 1012.8 117.28Q1012.17 116.07 1011.2 115.28Q1010.88 115.02 1010.52 114.8Q1010.05 114.51 1009.54 114.32Q1008.51 113.92 1007.32 113.92Q1005.83 113.92 1004.65 114.53Q1004.63 114.55 1004.6 114.56ZM1021.55 114.56Q1020.37 115.2 1019.69 116.14L1019.69 114.15L1016.19 114.15L1016.19 134.59L1019.69 134.59L1019.69 126.02Q1020.42 126.97 1021.58 127.6Q1022.74 128.22 1024.27 128.22Q1025.42 128.22 1026.42 127.85Q1026.97 127.64 1027.47 127.32Q1027.81 127.11 1028.11 126.87Q1029.11 126.04 1029.75 124.79Q1030.59 123.14 1030.59 121.02Q1030.59 118.9 1029.75 117.28Q1029.12 116.07 1028.15 115.28Q1027.82 115.02 1027.47 114.8Q1027 114.51 1026.49 114.32Q1025.46 113.92 1024.27 113.92Q1022.78 113.92 1021.6 114.53Q1021.58 114.55 1021.55 114.56ZM1064.76 114.54Q1063.59 113.92 1062.04 113.92Q1060.87 113.92 1059.84 114.31Q1059.31 114.5 1058.82 114.8Q1058.52 114.98 1058.25 115.2Q1057.22 116.02 1056.55 117.3Q1055.72 118.92 1055.72 121.02Q1055.72 123.14 1056.55 124.79Q1057.19 126.04 1058.18 126.86Q1058.5 127.11 1058.84 127.32Q1059.46 127.71 1060.13 127.93Q1061.04 128.22 1062.04 128.22Q1063.53 128.22 1064.68 127.61Q1064.72 127.59 1064.75 127.57Q1065.93 126.92 1066.62 125.94L1066.62 128.09Q1066.62 129.89 1065.72 130.8Q1065.68 130.83 1065.66 130.85Q1065.43 131.08 1065.16 131.25Q1064.34 131.77 1063.18 131.77Q1061.89 131.77 1060.98 131.21Q1060.38 130.84 1060.06 130.3Q1059.89 130.02 1059.79 129.7L1056.31 129.7Q1056.44 130.97 1057.05 131.95Q1057.56 132.81 1058.44 133.45Q1060.34 134.82 1063.29 134.82Q1065.49 134.82 1067.04 133.93Q1068.05 133.35 1068.73 132.52Q1069.1 132.06 1069.37 131.53Q1070.14 130.02 1070.14 128.09L1070.14 114.15L1066.62 114.15L1066.62 116.12Q1066.6 116.09 1066.57 116.07Q1065.91 115.13 1064.76 114.54ZM918.14 115.11Q917.56 115.61 917.14 116.3L917.14 114.15L913.64 114.15L913.64 128L917.14 128L917.14 121.1Q917.14 119.17 917.97 118.39Q918.81 117.62 920.46 117.62L921.38 117.62L921.38 113.95Q920.15 113.95 919.16 114.44Q919.03 114.5 918.9 114.57Q918.49 114.81 918.14 115.11ZM1050.79 114.73Q1049.52 113.95 1047.77 113.95Q1046.6 113.95 1045.6 114.36Q1045.49 114.41 1045.38 114.46Q1044.56 114.84 1043.97 115.44Q1043.77 115.64 1043.59 115.87L1043.59 114.15L1040.09 114.15L1040.09 128L1043.59 128L1043.59 120.35Q1043.59 118.72 1044.4 117.83Q1044.42 117.82 1044.43 117.81Q1044.63 117.6 1044.86 117.44Q1045.61 116.92 1046.72 116.92Q1047.78 116.92 1048.51 117.41Q1048.76 117.58 1048.97 117.81Q1049.79 118.69 1049.79 120.35L1049.79 128L1053.29 128L1053.29 119.87Q1053.29 117.35 1052.06 115.84Q1051.92 115.67 1051.76 115.51Q1051.31 115.05 1050.79 114.73ZM995.79 128L995.79 114.15L992.29 114.15L992.29 128L995.79 128ZM1036.64 128L1036.64 114.15L1033.14 114.15L1033.14 128L1036.64 128ZM932.61 118.32Q932.97 118.94 932.99 119.77L926.41 119.77Q926.58 118.58 927.25 117.83Q927.37 117.7 927.5 117.58Q927.78 117.33 928.11 117.16Q928.8 116.8 929.68 116.8Q930.66 116.8 931.42 117.2Q931.73 117.37 932.01 117.61Q932.38 117.92 932.61 118.32ZM948.04 118.32Q948.4 118.94 948.41 119.77L941.84 119.77Q942.01 118.58 942.68 117.83Q942.79 117.7 942.92 117.58Q943.21 117.33 943.53 117.16Q944.22 116.8 945.11 116.8Q946.08 116.8 946.84 117.2Q947.16 117.37 947.43 117.61Q947.81 117.92 948.04 118.32ZM1009.55 118.86Q1010.07 119.77 1010.07 121.02Q1010.07 122.29 1009.55 123.22Q1009.15 123.95 1008.54 124.41Q1008.38 124.54 1008.2 124.64Q1007.79 124.89 1007.35 125.02Q1006.89 125.15 1006.39 125.15Q1005.97 125.15 1005.58 125.05Q1005.07 124.93 1004.6 124.66Q1004.43 124.56 1004.28 124.44Q1003.66 123.98 1003.25 123.25Q1002.74 122.32 1002.74 121.07Q1002.74 119.82 1003.25 118.9Q1003.67 118.15 1004.3 117.68Q1004.45 117.58 1004.6 117.49Q1005.07 117.21 1005.58 117.09Q1005.97 117 1006.39 117Q1006.93 117 1007.43 117.14Q1007.83 117.26 1008.2 117.47Q1008.37 117.57 1008.53 117.68Q1009.14 118.13 1009.55 118.86ZM1026.5 118.86Q1027.02 119.77 1027.02 121.02Q1027.02 122.29 1026.5 123.22Q1026.1 123.95 1025.49 124.41Q1025.32 124.54 1025.15 124.64Q1024.74 124.89 1024.3 125.02Q1023.84 125.15 1023.34 125.15Q1022.92 125.15 1022.53 125.05Q1022.02 124.93 1021.55 124.66Q1021.38 124.56 1021.23 124.44Q1020.61 123.98 1020.2 123.25Q1019.69 122.32 1019.69 121.07Q1019.69 119.82 1020.2 118.9Q1020.62 118.15 1021.25 117.68Q1021.4 117.58 1021.55 117.49Q1022.02 117.21 1022.53 117.09Q1022.92 117 1023.34 117Q1023.88 117 1024.38 117.14Q1024.78 117.26 1025.15 117.47Q1025.31 117.57 1025.48 117.68Q1026.09 118.13 1026.5 118.86ZM1066.12 118.89Q1066.62 119.8 1066.62 121.07Q1066.62 122.34 1066.12 123.26Q1065.77 123.9 1065.24 124.33Q1065.02 124.51 1064.77 124.66Q1064.34 124.91 1063.87 125.03Q1063.42 125.15 1062.93 125.15Q1062.54 125.15 1062.17 125.06Q1061.64 124.94 1061.15 124.64Q1061 124.55 1060.86 124.45Q1060.22 123.97 1059.81 123.21Q1059.29 122.27 1059.29 121.02Q1059.29 119.77 1059.81 118.86Q1060.24 118.09 1060.89 117.63Q1061.01 117.55 1061.14 117.47Q1061.47 117.28 1061.82 117.17Q1062.36 117 1062.93 117Q1063.42 117 1063.87 117.11Q1064.34 117.24 1064.77 117.49Q1065.01 117.62 1065.22 117.8Q1065.76 118.23 1066.12 118.89Z" fill="#242424" fill-opacity="1.000000" fill-rule="evenodd"/>
	<path id="Order over 150 $" d="M1058.87 158.97Q1058.99 158.52 1058.99 158.03Q1058.99 156.72 1058.4 155.97Q1058.03 155.47 1057.54 155.16Q1057.28 154.99 1056.99 154.87Q1056.15 154.52 1054.81 154.2L1054.81 149.88Q1055.38 150.02 1055.77 150.38Q1055.85 150.46 1055.93 150.55Q1056.18 150.83 1056.3 151.17Q1056.38 151.4 1056.41 151.65L1058.85 151.65Q1058.74 150.38 1058.07 149.52Q1057.89 149.27 1057.64 149.05Q1057.62 149.03 1057.61 149.02Q1056.54 148.09 1054.81 147.94L1054.81 146.32L1053.51 146.32L1053.51 147.94Q1051.86 148.09 1050.77 148.95Q1050.61 149.07 1050.47 149.21Q1049.97 149.68 1049.68 150.25Q1049.31 151.01 1049.31 151.96Q1049.31 153.27 1049.89 154.04Q1050.31 154.57 1050.85 154.9Q1051.07 155.04 1051.31 155.14Q1052.16 155.5 1053.51 155.83L1053.51 160.24Q1052.74 160.11 1052.31 159.65Q1052.28 159.62 1052.25 159.59Q1052.18 159.52 1052.14 159.45Q1051.8 158.97 1051.74 158.29L1049.31 158.29Q1049.31 159.28 1049.72 160.03Q1050 160.53 1050.47 160.94Q1051.63 161.94 1053.51 162.12L1053.51 163.73L1054.81 163.73L1054.81 162.12Q1056.1 162 1057.06 161.39Q1057.94 160.83 1058.43 160.02Q1058.47 159.97 1058.5 159.92Q1058.75 159.46 1058.87 158.97ZM1032.44 149.1Q1031.29 151.05 1031.29 154.52Q1031.29 158.02 1032.44 159.99Q1032.78 160.54 1033.25 160.94Q1034.43 161.96 1036.49 161.96Q1038.54 161.96 1039.72 160.94Q1040.18 160.55 1040.52 159.99Q1041.68 158.02 1041.68 154.52Q1041.68 151.05 1040.52 149.1Q1040.18 148.57 1039.75 148.18Q1038.56 147.16 1036.49 147.16Q1034.41 147.16 1033.22 148.19Q1032.77 148.57 1032.44 149.1ZM923.45 153.49Q922.76 154.77 922.76 156.43Q922.76 158.04 923.41 159.32Q923.43 159.37 923.45 159.41Q923.93 160.32 924.66 160.95Q924.97 161.23 925.33 161.45Q925.8 161.73 926.31 161.91Q927.09 162.18 927.96 162.18Q929.24 162.18 930.23 161.66Q931.22 161.14 931.78 160.34L931.78 162L934.08 162L934.08 147.2L931.78 147.2L931.78 152.51Q931.16 151.74 930.11 151.27Q929.21 150.86 928.29 150.8Q928.14 150.79 927.98 150.79Q927 150.79 926.13 151.12Q925.72 151.28 925.33 151.51Q924.93 151.75 924.59 152.05Q923.91 152.64 923.45 153.49ZM1021.21 149.37L1027.91 149.37L1027.91 147.38L1019.11 147.38L1019.11 155.79L1021.27 155.79Q1021.48 155.2 1021.87 154.78Q1022.04 154.61 1022.23 154.47Q1022.3 154.42 1022.36 154.38Q1023 153.98 1023.89 153.98Q1025.14 153.98 1025.85 154.6Q1025.93 154.67 1026 154.75L1026.01 154.76Q1026.73 155.52 1026.73 156.96Q1026.73 158.33 1026.06 159.18Q1026.03 159.21 1026.01 159.24Q1025.88 159.4 1025.72 159.53Q1025.03 160.1 1023.89 160.1Q1022.77 160.1 1022.02 159.57Q1022 159.56 1021.98 159.55Q1021.66 159.31 1021.43 159Q1021.13 158.59 1021.01 158.06L1018.79 158.06Q1018.94 159.13 1019.49 159.96Q1019.84 160.49 1020.36 160.92Q1020.39 160.94 1020.41 160.95Q1021.73 162 1023.86 162Q1025.5 162 1026.63 161.34Q1027.28 160.96 1027.74 160.43Q1028.09 160.03 1028.34 159.53Q1028.91 158.38 1028.91 156.9Q1028.91 156.08 1028.69 155.31Q1028.6 154.94 1028.44 154.58Q1028.31 154.24 1028.12 153.94Q1027.68 153.25 1026.96 152.76Q1025.91 152.03 1024.23 152.03Q1023.62 152.03 1023.06 152.19Q1022.75 152.28 1022.46 152.42Q1021.63 152.8 1021.21 153.36L1021.21 149.37ZM1011.21 147.42L1011.21 149.5L1013.07 149.5L1013.07 162L1015.37 162L1015.37 147.42L1011.21 147.42ZM904.08 161.74Q905.22 162.14 906.5 162.14Q907.85 162.14 909.04 161.71Q909.58 161.51 910.09 161.23Q910.87 160.79 911.49 160.19Q912.17 159.54 912.66 158.68Q912.86 158.35 913.01 157.99Q913.6 156.63 913.6 155.01Q913.6 153.39 913.01 152.03Q912.85 151.68 912.66 151.36Q912.18 150.53 911.52 149.88Q910.89 149.27 910.09 148.83Q909.57 148.53 909.02 148.34Q907.84 147.91 906.5 147.91Q905.24 147.91 904.1 148.3Q903.5 148.51 902.93 148.83Q902.17 149.25 901.56 149.83Q900.86 150.49 900.35 151.36Q900.15 151.7 900 152.05Q899.4 153.4 899.4 155.01Q899.4 156.62 899.99 157.97Q900.15 158.34 900.35 158.68Q900.87 159.58 901.59 160.25Q902.19 160.81 902.93 161.23Q903.49 161.54 904.08 161.74ZM1039.24 151.78Q1039.44 152.89 1039.44 154.52Q1039.44 156.19 1039.25 157.34Q1039.05 158.47 1038.4 159.18Q1038.32 159.25 1038.25 159.32Q1037.61 159.88 1036.49 159.88Q1035.36 159.88 1034.72 159.32Q1034.64 159.25 1034.56 159.18Q1033.92 158.47 1033.72 157.34Q1033.53 156.19 1033.53 154.52Q1033.53 152.89 1033.74 151.78Q1033.94 150.66 1034.59 149.95Q1034.67 149.86 1034.76 149.78Q1035.39 149.24 1036.49 149.24Q1037.59 149.24 1038.22 149.78Q1038.31 149.86 1038.39 149.95Q1039.03 150.66 1039.24 151.78ZM1051.93 152.92Q1051.63 152.49 1051.63 151.83Q1051.63 151.12 1051.97 150.64Q1052.04 150.53 1052.14 150.44Q1052.21 150.36 1052.29 150.29Q1052.77 149.9 1053.51 149.82L1053.51 153.86Q1052.61 153.58 1052.12 153.12Q1052.02 153.03 1051.93 152.92ZM908.62 159.71Q907.67 160.15 906.5 160.15Q905.32 160.15 904.36 159.69Q904.2 159.62 904.04 159.52Q903.69 159.32 903.38 159.05Q902.76 158.51 902.35 157.73Q901.74 156.56 901.74 155.01Q901.74 153.47 902.35 152.32Q902.76 151.54 903.38 151Q903.69 150.74 904.04 150.53Q904.17 150.46 904.31 150.39Q905.29 149.92 906.5 149.92Q907.7 149.92 908.67 150.38Q908.82 150.45 908.96 150.53Q909.34 150.75 909.66 151.03Q910.26 151.56 910.65 152.32Q911.26 153.47 911.26 155.01Q911.26 156.56 910.65 157.73Q910.26 158.49 909.66 159.02Q909.34 159.31 908.96 159.52Q908.79 159.62 908.62 159.71ZM918.84 151.7Q918.42 152.07 918.12 152.58L918.12 150.97L915.84 150.97L915.84 162L918.12 162L918.12 156.19Q918.12 154.52 918.81 153.84Q918.82 153.83 918.83 153.82Q919.52 153.16 920.84 153.16L921.42 153.16L921.42 150.79Q920.28 150.79 919.45 151.27Q919.12 151.45 918.84 151.7ZM947.1 157.34Q947.18 156.83 947.18 156.21Q947.18 154.66 946.54 153.46Q946.52 153.42 946.5 153.39Q946.15 152.75 945.65 152.26Q945.19 151.8 944.6 151.48Q944.48 151.41 944.36 151.35Q943.23 150.79 941.82 150.79Q940.28 150.79 939.07 151.43Q939.01 151.46 938.95 151.5Q938.41 151.8 937.97 152.22Q937.4 152.76 937.01 153.48Q936.32 154.77 936.32 156.48Q936.32 158.18 937.03 159.47Q937.44 160.21 938.02 160.75Q938.46 161.16 938.99 161.47Q939.17 161.57 939.35 161.65Q940.46 162.18 941.82 162.18Q943.6 162.18 944.85 161.36Q944.96 161.29 945.07 161.21Q945.79 160.67 946.27 159.97Q946.66 159.4 946.88 158.71L944.42 158.71Q944.09 159.39 943.55 159.77Q942.86 160.26 941.82 160.26Q941.01 160.26 940.36 159.94Q939.98 159.75 939.66 159.46Q939.39 159.21 939.19 158.91Q938.75 158.25 938.68 157.34L947.1 157.34ZM952.42 151.7Q952 152.07 951.7 152.58L951.7 150.97L949.42 150.97L949.42 162L951.7 162L951.7 156.19Q951.7 154.52 952.39 153.84Q952.4 153.83 952.41 153.82Q953.1 153.16 954.42 153.16L955 153.16L955 150.79Q953.86 150.79 953.03 151.27Q952.7 151.45 952.42 151.7ZM964.82 161.74Q965.86 162.18 967.08 162.18Q968.27 162.18 969.3 161.78Q969.65 161.64 969.97 161.47Q970.58 161.14 971.07 160.68Q971.63 160.15 972.04 159.46Q972.13 159.3 972.21 159.14Q972.8 157.96 972.8 156.48Q972.8 154.91 972.16 153.68Q972.11 153.59 972.06 153.49Q971.63 152.73 971 152.17Q970.57 151.78 970.04 151.5Q969.79 151.36 969.53 151.25Q968.45 150.79 967.18 150.79Q965.89 150.79 964.8 151.26Q964.56 151.37 964.32 151.5Q963.8 151.78 963.36 152.17Q962.74 152.73 962.3 153.49Q962.26 153.57 962.21 153.66Q961.56 154.9 961.56 156.48Q961.56 158.18 962.28 159.47Q962.69 160.2 963.28 160.75Q963.72 161.16 964.26 161.47Q964.53 161.62 964.82 161.74ZM996.6 157.34Q996.68 156.83 996.68 156.21Q996.68 154.66 996.04 153.46Q996.02 153.42 996 153.39Q995.65 152.75 995.15 152.26Q994.69 151.8 994.1 151.48Q993.98 151.41 993.86 151.35Q992.73 150.79 991.32 150.79Q989.78 150.79 988.57 151.43Q988.51 151.46 988.45 151.5Q987.91 151.8 987.47 152.22Q986.9 152.76 986.51 153.48Q985.82 154.77 985.82 156.48Q985.82 158.18 986.53 159.47Q986.94 160.21 987.52 160.75Q987.96 161.16 988.49 161.47Q988.67 161.57 988.85 161.65Q989.96 162.18 991.32 162.18Q993.1 162.18 994.35 161.36Q994.46 161.29 994.57 161.21Q995.29 160.67 995.77 159.97Q996.16 159.4 996.38 158.71L993.92 158.71Q993.59 159.39 993.05 159.77Q992.36 160.26 991.32 160.26Q990.51 160.26 989.86 159.94Q989.48 159.75 989.16 159.46Q988.89 159.21 988.69 158.91Q988.25 158.25 988.18 157.34L996.6 157.34ZM1001.93 151.7Q1001.51 152.07 1001.21 152.58L1001.21 150.97L998.92 150.97L998.92 162L1001.21 162L1001.21 156.19Q1001.21 154.52 1001.89 153.84Q1001.91 153.83 1001.92 153.82Q1002.61 153.16 1003.93 153.16L1004.51 153.16L1004.51 150.79Q1003.37 150.79 1002.54 151.27Q1002.21 151.45 1001.93 151.7ZM982.44 150.97L979.32 159.95L976.2 150.97L973.76 150.97L977.94 162L980.66 162L984.86 150.97L982.44 150.97ZM944.45 154.13Q944.79 154.72 944.8 155.5L938.7 155.5Q938.83 154.52 939.35 153.85Q939.51 153.64 939.7 153.47Q940.05 153.15 940.46 152.97Q941.03 152.71 941.72 152.71Q942.67 152.71 943.39 153.12Q943.66 153.27 943.9 153.47Q944.24 153.77 944.45 154.13ZM993.95 154.13Q994.29 154.72 994.3 155.5L988.2 155.5Q988.33 154.52 988.85 153.85Q989.01 153.64 989.2 153.47Q989.55 153.15 989.96 152.97Q990.53 152.71 991.22 152.71Q992.17 152.71 992.89 153.12Q993.16 153.27 993.4 153.47Q993.74 153.77 993.95 154.13ZM931.31 154.5Q931.78 155.34 931.78 156.48Q931.78 157.62 931.31 158.47Q930.92 159.17 930.33 159.59Q930.21 159.68 930.08 159.75Q929.71 159.97 929.32 160.08Q928.9 160.19 928.44 160.19Q928.13 160.19 927.83 160.14Q927.31 160.03 926.81 159.74Q926.67 159.66 926.53 159.56Q925.95 159.13 925.57 158.44Q925.1 157.58 925.1 156.43Q925.1 155.3 925.57 154.47Q925.94 153.81 926.5 153.4Q926.64 153.3 926.8 153.21Q927.17 153 927.56 152.89Q927.99 152.78 928.44 152.78Q928.9 152.78 929.32 152.89Q929.71 153 930.08 153.22Q930.22 153.3 930.36 153.4Q930.93 153.82 931.31 154.5ZM967.94 160.09Q967.52 160.19 967.08 160.19Q966.32 160.19 965.69 159.89Q965.2 159.66 964.79 159.23Q964.77 159.2 964.74 159.17Q963.88 158.2 963.88 156.48Q963.88 155.28 964.32 154.45Q964.67 153.8 965.2 153.4Q965.35 153.29 965.51 153.2Q965.83 153.02 966.16 152.92Q966.63 152.78 967.14 152.78Q967.66 152.78 968.13 152.92Q968.47 153.02 968.78 153.2Q968.95 153.29 969.11 153.41Q969.65 153.8 970 154.45Q970.46 155.28 970.46 156.48Q970.46 157.67 969.98 158.51Q969.59 159.19 969.01 159.6Q968.88 159.69 968.73 159.77Q968.35 159.98 967.94 160.09ZM1056 159.71Q1055.54 160.12 1054.81 160.24L1054.81 156.17Q1055.69 156.45 1056.18 156.91Q1056.31 157.01 1056.4 157.14Q1056.68 157.54 1056.68 158.16Q1056.68 158.63 1056.51 159.02Q1056.39 159.29 1056.18 159.52Q1056.1 159.62 1056 159.71Z" fill="#898989" fill-opacity="1.000000" fill-rule="evenodd"/>
	<rect id="customer-support" width="60.000000" height="60.000000" transform="translate(1128.000000 105.000000)" fill="#FFFFFF" fill-opacity="0"/>
	<g clip-path="url(#clip117_1331)">
		<path id="Vector" d="M1182.68 128.96C1182.3 115.68 1171.37 105 1158 105C1144.63 105 1133.69 115.68 1133.31 128.96L1131.53 130.74L1131.53 142.78L1133.29 144.55L1133.29 152.76C1133.29 157.56 1137.19 161.47 1142 161.47L1144.18 161.47C1144.91 163.52 1146.88 165 1149.18 165L1152.71 165C1155.01 165 1156.97 163.52 1157.69 161.46C1157.8 161.46 1157.9 161.47 1158 161.47C1166.52 161.47 1173.65 155.39 1175.29 147.35L1179.91 147.35L1184.47 142.78L1184.47 130.74L1182.68 128.96ZM1158 108.52C1168.47 108.52 1177.19 116.17 1178.88 126.17L1175.29 126.17C1173.65 118.13 1166.52 112.05 1158 112.05C1149.48 112.05 1142.35 118.13 1140.71 126.17L1137.12 126.17C1138.8 116.17 1147.53 108.52 1158 108.52ZM1171.67 126.17C1165.97 126.15 1161.93 126.5 1158.61 121.65L1157 119.29L1155.62 121.79C1153.6 125.43 1150.87 126.17 1147.41 126.17L1144.32 126.17C1145.9 120.09 1151.43 115.58 1158 115.58C1164.56 115.58 1170.1 120.09 1171.67 126.17ZM1140.35 143.82L1137.55 143.82L1135.06 141.32L1135.06 132.2L1137.55 129.7L1140.35 129.7L1140.35 143.82ZM1136.81 152.76L1136.81 147.35L1140.69 147.35C1141.37 150.64 1142.96 153.66 1145.31 156.09C1144.81 156.61 1144.43 157.24 1144.18 157.94L1142 157.94C1139.15 157.94 1136.81 155.61 1136.81 152.76ZM1152.71 161.47L1149.18 161.47C1148.19 161.47 1147.41 160.67 1147.41 159.7C1147.41 158.73 1148.19 157.94 1149.18 157.94L1152.71 157.94C1153.68 157.94 1154.47 158.73 1154.47 159.7C1154.47 160.67 1153.68 161.47 1152.71 161.47ZM1172.12 143.82C1172.12 151.6 1165.78 157.94 1158 157.94C1157.9 157.94 1157.8 157.93 1157.68 157.93C1156.97 155.88 1155 154.41 1152.71 154.41C1149.07 154.42 1149.14 154.39 1148.68 154.43C1145.62 151.75 1143.88 147.92 1143.88 143.82L1143.88 129.7L1147.41 129.7C1150.53 129.7 1154.34 129.19 1157.28 125.6C1161.17 129.67 1165.91 129.7 1170.18 129.7L1172.12 129.7L1172.12 143.82ZM1180.93 141.32L1178.44 143.82L1175.65 143.82L1175.65 129.7L1178.44 129.7L1180.93 132.2L1180.93 141.32Z" fill="#242424" fill-opacity="1.000000" fill-rule="nonzero"/>
	</g>
	<path id="24 / 7 Support" d="M1239.18 132.52L1245.93 104.32L1242.5 104.32L1235.75 132.52L1239.18 132.52ZM1204.25 120.71Q1202.82 122.04 1200.42 124.05L1199.12 125.15L1199.12 127.75L1211.48 127.75L1211.48 124.85L1204.1 124.85Q1206.28 123 1207.63 121.68Q1208.97 120.37 1210.02 118.6Q1210.77 117.34 1210.98 116Q1211.06 115.45 1211.06 114.87Q1211.06 113.06 1210.25 111.76Q1209.94 111.28 1209.55 110.88Q1209.43 110.78 1209.32 110.68Q1207.81 109.37 1205.18 109.37Q1203.27 109.37 1201.86 110.2Q1201.34 110.5 1200.89 110.92Q1200.74 111.06 1200.6 111.21Q1199.18 112.74 1199.1 115.47L1202.5 115.47Q1202.52 114.02 1203.19 113.18Q1203.41 112.92 1203.67 112.75Q1204.26 112.35 1205.12 112.35Q1206.18 112.35 1206.79 112.88Q1206.89 112.97 1206.97 113.07Q1207.57 113.79 1207.57 115.07Q1207.57 116.47 1206.62 117.92Q1205.67 119.37 1204.25 120.71ZM1259.19 128L1265.85 112.42L1265.85 109.82L1253.8 109.82L1253.8 112.82L1262.35 112.82L1255.65 128L1259.19 128ZM1213.53 121.7L1213.53 124.44L1222.27 124.44L1222.27 128L1225.78 128L1225.78 124.44L1227.97 124.44L1227.97 121.4L1225.78 121.4L1225.78 110L1221.69 110L1213.53 121.7ZM1277.04 127.55Q1278.5 128.17 1280.32 128.17Q1282.25 128.17 1283.65 127.46Q1284.88 126.83 1285.59 125.83Q1285.68 125.69 1285.77 125.55Q1286.15 124.93 1286.32 124.25Q1286.5 123.62 1286.5 122.95Q1286.5 121.32 1285.72 120.32Q1285.14 119.57 1284.39 119.1Q1284.14 118.95 1283.87 118.82Q1282.8 118.32 1281.1 117.82Q1279.85 117.44 1279.16 117.16Q1278.48 116.87 1278.01 116.41Q1277.82 116.23 1277.72 116.02Q1277.55 115.68 1277.55 115.25Q1277.55 114.45 1277.93 113.95Q1278.03 113.83 1278.16 113.72Q1278.18 113.69 1278.23 113.67Q1278.82 113.19 1279.8 113.19Q1280.92 113.19 1281.63 113.74Q1281.66 113.76 1281.68 113.79Q1282.06 114.1 1282.27 114.51Q1282.43 114.86 1282.44 115.27L1286.3 115.27Q1286.18 113.76 1285.44 112.67Q1285.04 112.07 1284.43 111.61Q1284.42 111.6 1284.42 111.59Q1282.73 110.3 1280.05 110.3Q1278.25 110.3 1276.85 110.91Q1275.74 111.39 1275.03 112.21Q1274.84 112.43 1274.67 112.68Q1274.53 112.88 1274.42 113.11Q1273.9 114.1 1273.9 115.37Q1273.9 117.02 1274.66 118.01Q1275.25 118.77 1276.02 119.23Q1276.24 119.37 1276.49 119.48Q1277.55 119.97 1279.25 120.47Q1280.5 120.82 1281.21 121.11Q1281.93 121.4 1282.4 121.9Q1282.54 122.04 1282.64 122.21Q1282.88 122.62 1282.88 123.17Q1282.88 123.69 1282.66 124.11Q1282.49 124.45 1282.18 124.71Q1281.47 125.3 1280.25 125.3Q1279.12 125.3 1278.43 124.75Q1278.4 124.71 1278.36 124.68Q1278.19 124.53 1278.06 124.35Q1277.66 123.79 1277.6 122.97L1273.85 122.97Q1273.87 124.19 1274.37 125.17Q1274.52 125.47 1274.72 125.75Q1274.88 125.96 1275.05 126.16Q1275.84 127.04 1277.04 127.55ZM1370.07 123.72L1370.07 117.02L1373.17 117.02L1373.17 114.15L1370.07 114.15L1370.07 110.72L1366.55 110.72L1366.55 114.15L1364.9 114.15L1364.9 117.02L1366.55 117.02L1366.55 123.69Q1366.55 125.78 1367.6 126.86Q1368.7 128 1370.98 128L1373.17 128L1373.17 125.05L1371.55 125.05Q1370.75 125.05 1370.41 124.74Q1370.07 124.42 1370.07 123.72ZM1217.37 121.4L1222.5 113.74L1222.5 121.4L1217.37 121.4ZM1311.41 114.56Q1310.23 115.2 1309.55 116.14L1309.55 114.15L1306.05 114.15L1306.05 134.59L1309.55 134.59L1309.55 126.02Q1310.28 126.97 1311.44 127.6Q1312.6 128.22 1314.13 128.22Q1315.27 128.22 1316.28 127.85Q1316.83 127.64 1317.33 127.32Q1317.67 127.11 1317.97 126.87Q1318.97 126.04 1319.61 124.79Q1320.45 123.14 1320.45 121.02Q1320.45 118.9 1319.61 117.28Q1318.98 116.07 1318.01 115.28Q1317.69 115.02 1317.33 114.8Q1316.86 114.51 1316.35 114.32Q1315.32 113.92 1314.13 113.92Q1312.63 113.92 1311.46 114.53Q1311.44 114.55 1311.41 114.56ZM1328.36 114.56Q1327.18 115.2 1326.5 116.14L1326.5 114.15L1323 114.15L1323 134.59L1326.5 134.59L1326.5 126.02Q1327.23 126.97 1328.39 127.6Q1329.55 128.22 1331.08 128.22Q1332.22 128.22 1333.23 127.85Q1333.78 127.64 1334.28 127.32Q1334.62 127.11 1334.92 126.87Q1335.92 126.04 1336.56 124.79Q1337.4 123.14 1337.4 121.02Q1337.4 118.9 1336.56 117.28Q1335.93 116.07 1334.96 115.28Q1334.64 115.02 1334.28 114.8Q1333.81 114.51 1333.3 114.32Q1332.27 113.92 1331.08 113.92Q1329.58 113.92 1328.41 114.53Q1328.39 114.55 1328.36 114.56ZM1343.04 127.61Q1344.44 128.22 1346.1 128.22Q1347.81 128.22 1349.25 127.59Q1349.51 127.47 1349.76 127.34Q1350.53 126.92 1351.15 126.34Q1351.85 125.69 1352.36 124.82Q1352.45 124.67 1352.53 124.52Q1353.33 123.01 1353.33 121.07Q1353.33 119.08 1352.5 117.53Q1352.44 117.42 1352.39 117.32Q1351.89 116.45 1351.19 115.8Q1350.58 115.22 1349.82 114.81Q1349.49 114.63 1349.15 114.49Q1347.79 113.92 1346.2 113.92Q1344.6 113.92 1343.24 114.49Q1342.9 114.63 1342.57 114.81Q1341.84 115.21 1341.25 115.76Q1340.52 116.43 1340.01 117.32Q1339.96 117.41 1339.91 117.49Q1339.07 119.06 1339.07 121.07Q1339.07 123.19 1339.98 124.81L1339.98 124.82Q1340.5 125.73 1341.23 126.41Q1341.8 126.95 1342.5 127.34Q1342.77 127.48 1343.04 127.61ZM1360.41 115.11Q1359.82 115.61 1359.4 116.3L1359.4 114.15L1355.9 114.15L1355.9 128L1359.4 128L1359.4 121.1Q1359.4 119.17 1360.24 118.39Q1361.07 117.62 1362.73 117.62L1363.65 117.62L1363.65 113.95Q1362.41 113.95 1361.42 114.44Q1361.29 114.5 1361.16 114.57Q1360.76 114.81 1360.41 115.11ZM1302.6 128L1302.6 114.15L1299.06 114.15L1299.06 121.77Q1299.06 123.41 1298.26 124.3L1298.25 124.31Q1298.06 124.51 1297.85 124.66Q1297.1 125.19 1295.97 125.19Q1294.91 125.19 1294.18 124.7Q1293.93 124.53 1293.73 124.31L1293.72 124.3Q1292.9 123.41 1292.9 121.77L1292.9 114.15L1289.4 114.15L1289.4 122.27Q1289.4 124.12 1290.11 125.46Q1290.61 126.38 1291.36 127Q1291.68 127.27 1292.06 127.48Q1292.09 127.49 1292.11 127.5Q1293.35 128.17 1294.94 128.17Q1295.98 128.17 1296.89 127.84Q1297.1 127.76 1297.31 127.66Q1298.17 127.26 1298.77 126.61Q1298.93 126.44 1299.06 126.24L1299.06 128L1302.6 128ZM1347.01 125.06Q1346.57 125.17 1346.1 125.17Q1345.27 125.17 1344.59 124.84Q1344.05 124.58 1343.61 124.11Q1342.63 123.05 1342.63 121.07Q1342.63 119.16 1343.57 118.11Q1343.61 118.07 1343.64 118.03Q1344.11 117.54 1344.7 117.27Q1345.35 116.97 1346.15 116.97Q1346.93 116.97 1347.58 117.26Q1348.19 117.52 1348.69 118.03Q1348.75 118.1 1348.8 118.16Q1349.72 119.21 1349.72 121.07Q1349.72 122.39 1349.22 123.32Q1348.82 124.06 1348.21 124.51Q1348.05 124.62 1347.89 124.71Q1347.46 124.94 1347.01 125.06ZM1316.36 118.86Q1316.87 119.77 1316.87 121.02Q1316.87 122.29 1316.36 123.22Q1315.96 123.95 1315.35 124.41Q1315.19 124.54 1315.01 124.64Q1314.6 124.89 1314.15 125.02Q1313.69 125.15 1313.2 125.15Q1312.78 125.15 1312.39 125.05Q1311.88 124.93 1311.41 124.66Q1311.24 124.56 1311.09 124.44Q1310.47 123.98 1310.06 123.25Q1309.55 122.32 1309.55 121.07Q1309.55 119.82 1310.06 118.9Q1310.48 118.15 1311.11 117.68Q1311.25 117.58 1311.41 117.49Q1311.88 117.21 1312.39 117.09Q1312.78 117 1313.2 117Q1313.74 117 1314.24 117.14Q1314.64 117.26 1315.01 117.47Q1315.18 117.57 1315.34 117.68Q1315.95 118.13 1316.36 118.86ZM1333.31 118.86Q1333.82 119.77 1333.82 121.02Q1333.82 122.29 1333.31 123.22Q1332.91 123.95 1332.3 124.41Q1332.14 124.54 1331.96 124.64Q1331.55 124.89 1331.1 125.02Q1330.65 125.15 1330.15 125.15Q1329.73 125.15 1329.34 125.05Q1328.83 124.93 1328.36 124.66Q1328.19 124.56 1328.04 124.44Q1327.42 123.98 1327.01 123.25Q1326.5 122.32 1326.5 121.07Q1326.5 119.82 1327.01 118.9Q1327.43 118.15 1328.06 117.68Q1328.2 117.58 1328.36 117.49Q1328.83 117.21 1329.34 117.09Q1329.73 117 1330.15 117Q1330.69 117 1331.19 117.14Q1331.59 117.26 1331.96 117.47Q1332.13 117.57 1332.29 117.68Q1332.9 118.13 1333.31 118.86Z" fill="#242424" fill-opacity="1.000000" fill-rule="evenodd"/>
	<path id="Dedicated support" d="M1240.1 149.38Q1240.39 149.52 1240.74 149.52Q1241.05 149.52 1241.31 149.4Q1241.56 149.3 1241.76 149.1Q1241.93 148.92 1242.04 148.7Q1242.18 148.41 1242.18 148.06Q1242.18 147.7 1242.04 147.41Q1241.93 147.19 1241.76 147.02Q1241.56 146.81 1241.31 146.71Q1241.05 146.6 1240.74 146.6Q1240.39 146.6 1240.1 146.73Q1239.88 146.84 1239.69 147.02Q1239.52 147.19 1239.42 147.41Q1239.28 147.7 1239.28 148.06Q1239.28 148.41 1239.42 148.7Q1239.52 148.92 1239.69 149.1Q1239.88 149.27 1240.1 149.38ZM1225.94 153.49Q1225.26 154.77 1225.26 156.43Q1225.26 158.04 1225.91 159.32Q1225.93 159.37 1225.94 159.41Q1226.43 160.32 1227.15 160.95Q1227.47 161.23 1227.82 161.45Q1228.3 161.73 1228.81 161.91Q1229.59 162.18 1230.46 162.18Q1231.74 162.18 1232.73 161.66Q1233.72 161.14 1234.28 160.34L1234.28 162L1236.57 162L1236.57 147.2L1234.28 147.2L1234.28 152.51Q1233.66 151.74 1232.61 151.27Q1231.71 150.86 1230.78 150.8Q1230.63 150.79 1230.48 150.79Q1229.5 150.79 1228.63 151.12Q1228.22 151.28 1227.82 151.51Q1227.43 151.75 1227.09 152.05Q1226.41 152.64 1225.94 153.49ZM1290.13 153.49Q1289.43 154.77 1289.43 156.43Q1289.43 158.04 1290.09 159.32Q1290.11 159.37 1290.13 159.41Q1290.61 160.32 1291.32 160.95Q1291.65 161.23 1292.01 161.45Q1292.48 161.73 1292.99 161.91Q1293.77 162.18 1294.64 162.18Q1295.92 162.18 1296.91 161.66Q1297.9 161.14 1298.46 160.34L1298.46 162L1300.76 162L1300.76 147.2L1298.46 147.2L1298.46 152.51Q1297.84 151.74 1296.79 151.27Q1295.89 150.86 1294.96 150.8Q1294.81 150.79 1294.66 150.79Q1293.68 150.79 1292.81 151.12Q1292.4 151.28 1292.01 151.51Q1291.61 151.75 1291.27 152.05Q1290.59 152.64 1290.13 153.49ZM1207.93 148.94Q1206.26 148.09 1204.04 148.09L1199.5 148.09L1199.5 162L1204.04 162Q1206.26 162 1207.93 161.17Q1208.93 160.67 1209.67 159.9Q1210.15 159.4 1210.51 158.78Q1211.42 157.22 1211.42 155.1Q1211.42 152.98 1210.51 151.39Q1210.12 150.7 1209.57 150.15Q1208.88 149.42 1207.93 148.94ZM1273.07 158.93L1273.07 152.84L1275.76 152.84L1275.76 150.97L1273.07 150.97L1273.07 148.24L1270.78 148.24L1270.78 150.97L1269.48 150.97L1269.48 152.84L1270.78 152.84L1270.78 158.93Q1270.78 160.53 1271.56 161.25Q1271.59 161.27 1271.6 161.28Q1272.42 162 1273.96 162L1275.76 162L1275.76 160.1L1274.36 160.1Q1273.66 160.1 1273.37 159.83Q1273.07 159.55 1273.07 158.93ZM1382.84 158.93L1382.84 152.84L1385.52 152.84L1385.52 150.97L1382.84 150.97L1382.84 148.24L1380.54 148.24L1380.54 150.97L1379.24 150.97L1379.24 152.84L1380.54 152.84L1380.54 158.93Q1380.54 160.53 1381.33 161.25Q1381.35 161.27 1381.36 161.28Q1382.18 162 1383.72 162L1385.52 162L1385.52 160.1L1384.12 160.1Q1383.42 160.1 1383.13 159.83Q1382.84 159.55 1382.84 158.93ZM1207.56 159.03Q1206.28 160.14 1204.04 160.14L1201.78 160.14L1201.78 149.95L1204.04 149.95Q1206.18 149.95 1207.46 151.02Q1207.63 151.16 1207.78 151.32Q1207.89 151.43 1207.99 151.56Q1209.07 152.88 1209.07 155.1Q1209.07 157.27 1208.01 158.56Q1207.9 158.69 1207.78 158.82Q1207.67 158.93 1207.56 159.03ZM1223.69 157.34Q1223.78 156.83 1223.78 156.21Q1223.78 154.66 1223.14 153.46Q1223.12 153.42 1223.1 153.39Q1222.74 152.75 1222.25 152.26Q1221.78 151.8 1221.19 151.48Q1221.07 151.41 1220.96 151.35Q1219.82 150.79 1218.42 150.79Q1216.88 150.79 1215.67 151.43Q1215.61 151.46 1215.55 151.5Q1215 151.8 1214.56 152.22Q1214 152.76 1213.61 153.48Q1212.92 154.77 1212.92 156.48Q1212.92 158.18 1213.63 159.47Q1214.04 160.21 1214.62 160.75Q1215.06 161.16 1215.59 161.47Q1215.76 161.57 1215.94 161.65Q1217.06 162.18 1218.42 162.18Q1220.19 162.18 1221.44 161.36Q1221.56 161.29 1221.67 161.21Q1222.39 160.67 1222.87 159.97Q1223.26 159.4 1223.48 158.71L1221.02 158.71Q1220.68 159.39 1220.14 159.77Q1219.44 160.26 1218.42 160.26Q1217.61 160.26 1216.96 159.94Q1216.57 159.75 1216.26 159.46Q1215.98 159.21 1215.79 158.91Q1215.35 158.25 1215.28 157.34L1223.69 157.34ZM1244.79 153.48Q1244.1 154.77 1244.1 156.48Q1244.1 158.18 1244.79 159.47Q1245.21 160.25 1245.82 160.83Q1246.23 161.19 1246.69 161.47Q1246.82 161.54 1246.96 161.61Q1248.09 162.18 1249.5 162.18Q1251.27 162.18 1252.52 161.36Q1252.65 161.28 1252.78 161.18Q1253.26 160.82 1253.64 160.37Q1254.28 159.58 1254.57 158.51L1252.12 158.51Q1251.82 159.3 1251.27 159.73Q1250.59 160.26 1249.5 160.26Q1248.66 160.26 1248.03 159.9Q1247.6 159.66 1247.27 159.26Q1246.43 158.25 1246.43 156.48Q1246.43 154.7 1247.27 153.7Q1247.6 153.31 1248.01 153.08Q1248.65 152.71 1249.5 152.71Q1250.5 152.71 1251.16 153.18Q1251.35 153.31 1251.51 153.48Q1251.91 153.88 1252.12 154.46L1254.57 154.46Q1254.24 153.14 1253.41 152.27Q1253.14 151.98 1252.81 151.75Q1251.5 150.79 1249.5 150.79Q1248.06 150.79 1246.93 151.37Q1246.81 151.43 1246.69 151.5Q1246.24 151.76 1245.86 152.1Q1245.22 152.68 1244.79 153.48ZM1256.79 153.49Q1256.1 154.77 1256.1 156.43Q1256.1 158.04 1256.75 159.32Q1256.77 159.37 1256.79 159.41Q1257.29 160.35 1258.04 160.99Q1258.32 161.24 1258.66 161.45Q1259.17 161.76 1259.73 161.94Q1260.44 162.18 1261.26 162.18Q1262.54 162.18 1263.54 161.66Q1264.54 161.14 1265.12 160.35L1265.12 162L1267.42 162L1267.42 150.97L1265.12 150.97L1265.12 152.58Q1264.54 151.81 1263.56 151.31Q1262.6 150.79 1261.3 150.79Q1260.4 150.79 1259.59 151.08Q1259.11 151.24 1258.67 151.51Q1258.27 151.75 1257.93 152.05Q1257.25 152.64 1256.79 153.49ZM1287.88 157.34Q1287.96 156.83 1287.96 156.21Q1287.96 154.66 1287.31 153.46Q1287.3 153.42 1287.28 153.39Q1286.93 152.75 1286.43 152.26Q1285.96 151.8 1285.38 151.48Q1285.26 151.41 1285.14 151.35Q1284.01 150.79 1282.6 150.79Q1281.06 150.79 1279.85 151.43Q1279.79 151.46 1279.73 151.5Q1279.18 151.8 1278.75 152.22Q1278.18 152.76 1277.79 153.48Q1277.1 154.77 1277.1 156.48Q1277.1 158.18 1277.81 159.47Q1278.22 160.21 1278.8 160.75Q1279.24 161.16 1279.77 161.47Q1279.93 161.57 1280.13 161.65Q1281.24 162.18 1282.6 162.18Q1284.38 162.18 1285.63 161.36Q1285.74 161.29 1285.85 161.21Q1286.56 160.67 1287.05 159.97Q1287.43 159.4 1287.66 158.71L1285.19 158.71Q1284.87 159.39 1284.31 159.77Q1283.63 160.26 1282.6 160.26Q1281.79 160.26 1281.14 159.94Q1280.76 159.75 1280.43 159.46Q1280.16 159.21 1279.97 158.91Q1279.53 158.25 1279.46 157.34L1287.88 157.34ZM1310.63 161.71Q1311.66 162.18 1312.96 162.18Q1314.24 162.18 1315.19 161.76Q1316.11 161.35 1316.63 160.64Q1316.64 160.62 1316.66 160.6Q1316.87 160.3 1316.99 159.98Q1317.18 159.48 1317.18 158.91Q1317.16 157.94 1316.68 157.31Q1316.64 157.26 1316.6 157.22Q1316.28 156.85 1315.88 156.58Q1315.59 156.39 1315.27 156.25Q1314.5 155.92 1313.3 155.59Q1312.4 155.34 1311.94 155.16Q1311.48 154.99 1311.16 154.7Q1311.01 154.56 1310.93 154.39Q1310.84 154.19 1310.84 153.95Q1310.84 153.71 1310.93 153.51Q1311.05 153.25 1311.32 153.06Q1311.8 152.71 1312.7 152.71Q1313.62 152.71 1314.16 153.16Q1314.38 153.34 1314.52 153.56Q1314.72 153.9 1314.76 154.33L1317.04 154.33Q1316.99 153.28 1316.49 152.51Q1316.22 152.08 1315.81 151.75Q1315.76 151.7 1315.7 151.66Q1314.58 150.79 1312.78 150.79Q1311.52 150.79 1310.55 151.21Q1309.57 151.63 1309.06 152.37Q1308.78 152.75 1308.65 153.18Q1308.54 153.56 1308.54 153.98Q1308.54 154.95 1309 155.58Q1309.05 155.65 1309.11 155.72Q1309.5 156.16 1309.97 156.45Q1310.21 156.59 1310.46 156.7Q1311.24 157.02 1312.48 157.36Q1313.76 157.71 1314.35 158.02Q1314.68 158.18 1314.83 158.45Q1314.94 158.66 1314.94 158.93Q1314.94 159.15 1314.87 159.34Q1314.74 159.65 1314.41 159.89Q1313.88 160.26 1312.92 160.26Q1312.09 160.26 1311.52 159.88Q1311.45 159.84 1311.39 159.79Q1310.99 159.48 1310.83 159.08Q1310.74 158.86 1310.72 158.62L1308.36 158.62Q1308.38 159.11 1308.53 159.55Q1308.68 160.01 1309 160.43Q1309.02 160.45 1309.04 160.48Q1309.63 161.25 1310.63 161.71ZM1336.48 151.32Q1335.48 151.83 1334.9 152.6L1334.9 150.97L1332.62 150.97L1332.62 167.23L1334.9 167.23L1334.9 160.39Q1335.52 161.16 1336.5 161.67Q1337.48 162.18 1338.74 162.18Q1339.6 162.18 1340.36 161.92Q1340.89 161.74 1341.37 161.45Q1341.75 161.22 1342.07 160.92Q1342.78 160.3 1343.24 159.41Q1343.25 159.39 1343.25 159.38Q1343.92 158.08 1343.92 156.43Q1343.92 154.77 1343.24 153.49Q1342.8 152.66 1342.14 152.07Q1341.79 151.75 1341.37 151.51Q1340.91 151.23 1340.42 151.07Q1339.63 150.79 1338.74 150.79Q1337.53 150.79 1336.56 151.27Q1336.52 151.3 1336.48 151.32ZM1350.04 151.32Q1349.04 151.83 1348.46 152.6L1348.46 150.97L1346.18 150.97L1346.18 167.23L1348.46 167.23L1348.46 160.39Q1349.08 161.16 1350.06 161.67Q1351.04 162.18 1352.3 162.18Q1353.16 162.18 1353.92 161.92Q1354.45 161.74 1354.93 161.45Q1355.31 161.22 1355.63 160.92Q1356.34 160.3 1356.8 159.41Q1356.81 159.39 1356.81 159.38Q1357.48 158.08 1357.48 156.43Q1357.48 154.77 1356.8 153.49Q1356.36 152.66 1355.7 152.07Q1355.35 151.75 1354.93 151.51Q1354.47 151.23 1353.98 151.07Q1353.19 150.79 1352.3 150.79Q1351.09 150.79 1350.12 151.27Q1350.08 151.3 1350.04 151.32ZM1362.25 161.74Q1363.29 162.18 1364.52 162.18Q1365.71 162.18 1366.74 161.78Q1367.08 161.64 1367.41 161.47Q1368.02 161.14 1368.51 160.68Q1369.07 160.15 1369.48 159.46Q1369.57 159.3 1369.65 159.14Q1370.24 157.96 1370.24 156.48Q1370.24 154.91 1369.6 153.68Q1369.55 153.59 1369.5 153.49Q1369.06 152.73 1368.44 152.17Q1368.01 151.78 1367.48 151.5Q1367.23 151.36 1366.97 151.25Q1365.89 150.79 1364.62 150.79Q1363.33 150.79 1362.24 151.26Q1361.99 151.37 1361.76 151.5Q1361.23 151.78 1360.8 152.17Q1360.18 152.73 1359.74 153.49Q1359.69 153.57 1359.65 153.66Q1359 154.9 1359 156.48Q1359 158.18 1359.72 159.47Q1360.13 160.2 1360.72 160.75Q1361.16 161.16 1361.7 161.47Q1361.97 161.62 1362.25 161.74ZM1375.5 151.7Q1375.08 152.07 1374.78 152.58L1374.78 150.97L1372.5 150.97L1372.5 162L1374.78 162L1374.78 156.19Q1374.78 154.52 1375.47 153.84Q1375.48 153.83 1375.49 153.82Q1376.18 153.16 1377.5 153.16L1378.08 153.16L1378.08 150.79Q1376.94 150.79 1376.11 151.27Q1375.78 151.45 1375.5 151.7ZM1241.86 162L1241.86 150.97L1239.57 150.97L1239.57 162L1241.86 162ZM1329.62 162L1329.62 150.97L1327.34 150.97L1327.34 157.12Q1327.34 158.57 1326.62 159.36Q1326.6 159.37 1326.59 159.39Q1326.4 159.58 1326.19 159.73Q1325.53 160.17 1324.56 160.17Q1323.59 160.17 1322.93 159.72Q1322.72 159.58 1322.54 159.39Q1321.8 158.6 1321.8 157.12L1321.8 150.97L1319.54 150.97L1319.54 157.45Q1319.54 158.95 1320.13 160.02Q1320.5 160.68 1321.04 161.14Q1321.36 161.42 1321.75 161.62Q1321.77 161.63 1321.79 161.64Q1322.8 162.16 1324.08 162.16Q1324.71 162.16 1325.29 162Q1325.61 161.91 1325.93 161.77Q1326.74 161.4 1327.26 160.8Q1327.3 160.75 1327.34 160.7L1327.34 162L1329.62 162ZM1221.05 154.13Q1221.39 154.72 1221.4 155.5L1215.3 155.5Q1215.42 154.52 1215.93 153.85Q1216.1 153.64 1216.3 153.47Q1216.65 153.15 1217.06 152.97Q1217.63 152.71 1218.31 152.71Q1219.27 152.71 1219.99 153.12Q1220.26 153.27 1220.5 153.47Q1220.84 153.77 1221.05 154.13ZM1285.23 154.13Q1285.56 154.72 1285.57 155.5L1279.48 155.5Q1279.6 154.52 1280.12 153.85Q1280.28 153.64 1280.48 153.47Q1280.82 153.15 1281.24 152.97Q1281.81 152.71 1282.5 152.71Q1283.44 152.71 1284.17 153.12Q1284.43 153.27 1284.68 153.47Q1285.02 153.77 1285.23 154.13ZM1233.81 154.5Q1234.28 155.34 1234.28 156.48Q1234.28 157.62 1233.81 158.47Q1233.42 159.17 1232.82 159.59Q1232.71 159.68 1232.57 159.75Q1232.21 159.97 1231.81 160.08Q1231.39 160.19 1230.93 160.19Q1230.63 160.19 1230.32 160.14Q1229.8 160.03 1229.31 159.74Q1229.16 159.66 1229.03 159.56Q1228.44 159.13 1228.06 158.44Q1227.6 157.58 1227.6 156.43Q1227.6 155.3 1228.06 154.47Q1228.43 153.81 1229 153.4Q1229.14 153.3 1229.3 153.21Q1229.67 153 1230.06 152.89Q1230.48 152.78 1230.93 152.78Q1231.39 152.78 1231.81 152.89Q1232.21 153 1232.57 153.22Q1232.72 153.3 1232.86 153.4Q1233.43 153.82 1233.81 154.5ZM1264.65 154.5Q1265.12 155.34 1265.12 156.48Q1265.12 157.62 1264.65 158.47Q1264.26 159.17 1263.67 159.59Q1263.55 159.68 1263.42 159.75Q1263.05 159.97 1262.66 160.08Q1262.23 160.19 1261.78 160.19Q1261.47 160.19 1261.17 160.14Q1260.64 160.03 1260.15 159.74Q1260 159.66 1259.87 159.56Q1259.29 159.13 1258.91 158.44Q1258.43 157.58 1258.43 156.43Q1258.43 155.3 1258.91 154.47Q1259.28 153.81 1259.84 153.4Q1259.98 153.3 1260.14 153.21Q1260.51 153 1260.9 152.89Q1261.31 152.78 1261.78 152.78Q1262.23 152.78 1262.66 152.89Q1263.05 153 1263.42 153.22Q1263.56 153.3 1263.69 153.4Q1264.27 153.82 1264.65 154.5ZM1297.99 154.5Q1298.46 155.34 1298.46 156.48Q1298.46 157.62 1297.99 158.47Q1297.6 159.17 1297.01 159.59Q1296.89 159.68 1296.76 159.75Q1296.39 159.97 1295.99 160.08Q1295.56 160.19 1295.12 160.19Q1294.81 160.19 1294.51 160.14Q1293.98 160.03 1293.49 159.74Q1293.34 159.66 1293.21 159.56Q1292.63 159.13 1292.25 158.44Q1291.78 157.58 1291.78 156.43Q1291.78 155.3 1292.25 154.47Q1292.62 153.81 1293.18 153.4Q1293.31 153.3 1293.48 153.21Q1293.85 153 1294.24 152.89Q1294.66 152.78 1295.12 152.78Q1295.56 152.78 1295.99 152.89Q1296.39 153 1296.76 153.22Q1296.9 153.3 1297.04 153.4Q1297.61 153.82 1297.99 154.5ZM1341.13 154.47Q1341.6 155.3 1341.6 156.43Q1341.6 157.58 1341.13 158.44Q1340.75 159.13 1340.17 159.56Q1340.04 159.66 1339.89 159.74Q1339.46 159.99 1339 160.11Q1338.63 160.19 1338.24 160.19Q1337.92 160.19 1337.61 160.13Q1337.09 160.03 1336.61 159.75Q1336.47 159.68 1336.35 159.59Q1335.76 159.17 1335.37 158.47Q1334.9 157.62 1334.9 156.48Q1334.9 155.34 1335.37 154.5Q1335.75 153.82 1336.32 153.41Q1336.46 153.3 1336.61 153.22Q1337.09 152.94 1337.61 152.84Q1337.92 152.78 1338.24 152.78Q1338.66 152.78 1339.06 152.88Q1339.49 152.98 1339.89 153.21Q1340.08 153.31 1340.25 153.44Q1340.78 153.84 1341.13 154.47ZM1354.69 154.47Q1355.16 155.3 1355.16 156.43Q1355.16 157.58 1354.69 158.44Q1354.31 159.13 1353.73 159.56Q1353.6 159.66 1353.45 159.74Q1353.02 159.99 1352.56 160.11Q1352.19 160.19 1351.8 160.19Q1351.48 160.19 1351.17 160.13Q1350.65 160.03 1350.17 159.75Q1350.03 159.68 1349.91 159.59Q1349.32 159.17 1348.93 158.47Q1348.46 157.62 1348.46 156.48Q1348.46 155.34 1348.93 154.5Q1349.31 153.82 1349.88 153.41Q1350.02 153.3 1350.17 153.22Q1350.65 152.94 1351.17 152.84Q1351.48 152.78 1351.8 152.78Q1352.22 152.78 1352.62 152.88Q1353.05 152.98 1353.45 153.21Q1353.64 153.31 1353.81 153.44Q1354.34 153.84 1354.69 154.47ZM1365.38 160.09Q1364.96 160.19 1364.52 160.19Q1363.75 160.19 1363.13 159.89Q1362.64 159.66 1362.23 159.23Q1362.2 159.2 1362.18 159.17Q1361.32 158.2 1361.32 156.48Q1361.32 155.28 1361.76 154.45Q1362.1 153.8 1362.63 153.4Q1362.78 153.29 1362.95 153.2Q1363.26 153.02 1363.6 152.92Q1364.07 152.78 1364.58 152.78Q1365.09 152.78 1365.57 152.92Q1365.9 153.02 1366.22 153.2Q1366.39 153.29 1366.55 153.41Q1367.08 153.8 1367.44 154.45Q1367.9 155.28 1367.9 156.48Q1367.9 157.67 1367.42 158.51Q1367.03 159.19 1366.45 159.6Q1366.32 159.69 1366.17 159.77Q1365.79 159.98 1365.38 160.09Z" fill="#898989" fill-opacity="1.000000" fill-rule="evenodd"/>
</svg>
