<svg width="28.000000" height="28.000000" viewBox="0 0 28 28" fill="none" xmlns="http://www.w3.org/2000/svg" xmlns:xlink="http://www.w3.org/1999/xlink">
	<desc>
			Created with Pixso.
	</desc>
	<defs>
		<clipPath id="clip117_348">
			<rect id="akar-icons:search" width="28.000000" height="28.000000" fill="white" fill-opacity="0"/>
		</clipPath>
	</defs>
	<rect id="akar-icons:search" width="28.000000" height="28.000000" fill="#FFFFFF" fill-opacity="0"/>
	<g clip-path="url(#clip117_348)">
		<path id="Vector" d="M24.5 24.5L19.26 19.25M19.26 19.26C17.4 21.12 14.88 22.16 12.25 22.16C9.62 22.16 7.09 21.12 5.23 19.26C3.37 17.4 2.33 14.88 2.33 12.25C2.33 9.61 3.37 7.09 5.23 5.23C7.09 3.37 9.62 2.33 12.25 2.33C14.88 2.33 17.4 3.37 19.26 5.23C21.12 7.09 22.16 9.61 22.16 12.25C22.16 14.88 21.12 17.4 19.26 19.26Z" stroke="#000000" stroke-opacity="1.000000" stroke-width="2.000000" stroke-linecap="round"/>
	</g>
</svg>
