<svg width="23.000000" height="19.000000" viewBox="0 0 23 19" fill="none" xmlns="http://www.w3.org/2000/svg" xmlns:xlink="http://www.w3.org/1999/xlink">
	<desc>
			Created with Pixso.
	</desc>
	<defs/>
	<path id="Vector" d="M20.33 9L20.33 3.16L22.66 3.16L22.66 10.16L20.33 10.16L20.33 9ZM20.33 14.83L22.66 14.83L22.66 12.5L20.33 12.5L20.33 14.83ZM8.66 10.16C11.78 10.16 18 11.73 18 14.83L18 18.33L-0.67 18.33L-0.67 14.83C-0.67 11.73 5.55 10.16 8.66 10.16ZM8.66 -0.34C9.9 -0.34 11.09 0.15 11.96 1.03C12.84 1.9 13.33 3.09 13.33 4.33C13.33 5.57 12.84 6.75 11.96 7.63C11.09 8.5 9.9 9 8.66 9C7.42 9 6.24 8.5 5.36 7.63C4.49 6.75 4 5.57 4 4.33C4 3.09 4.49 1.9 5.36 1.03C6.24 0.15 7.42 -0.34 8.66 -0.34ZM8.66 12.38C5.2 12.38 1.55 14.08 1.55 14.83L1.55 16.11L15.78 16.11L15.78 14.83C15.78 14.08 12.13 12.38 8.66 12.38ZM8.66 1.88C8.01 1.88 7.39 2.14 6.93 2.6C6.47 3.06 6.21 3.68 6.21 4.33C6.21 4.98 6.47 5.6 6.93 6.06C7.39 6.52 8.01 6.78 8.66 6.78C9.31 6.78 9.93 6.52 10.39 6.06C10.85 5.6 11.11 4.98 11.11 4.33C11.11 3.68 10.85 3.06 10.39 2.6C9.93 2.14 9.31 1.88 8.66 1.88Z" fill="#000000" fill-opacity="1.000000" fill-rule="nonzero"/>
</svg>
