<svg width="21.000000" height="21.000000" viewBox="0 0 21 21" fill="none" xmlns="http://www.w3.org/2000/svg" xmlns:xlink="http://www.w3.org/1999/xlink">
	<desc>
			Created with Pixso.
	</desc>
	<defs/>
	<path id="Vector" d="M19.62 3L16.12 3L16.12 0.81C16.12 -0.16 15.34 -0.94 14.37 -0.94L5.62 -0.94C4.65 -0.94 3.87 -0.16 3.87 0.81L3.87 3L0.37 3C-0.11 3 -0.5 3.39 -0.5 3.87L-0.5 4.75C-0.5 4.87 -0.41 4.96 -0.29 4.96L1.37 4.96L2.04 19.26C2.08 20.2 2.86 20.93 3.79 20.93L16.2 20.93C17.14 20.93 17.91 20.2 17.95 19.26L18.62 4.96L20.28 4.96C20.4 4.96 20.5 4.87 20.5 4.75L20.5 3.87C20.5 3.39 20.1 3 19.62 3ZM14.15 3L5.84 3L5.84 1.03L14.15 1.03L14.15 3Z" fill="#B88E2F" fill-opacity="1.000000" fill-rule="nonzero"/>
</svg>
