<svg width="25.000000" height="22.000000" viewBox="0 0 25 22" fill="none" xmlns="http://www.w3.org/2000/svg" xmlns:xlink="http://www.w3.org/1999/xlink">
	<desc>
			Created with Pixso.
	</desc>
	<defs/>
	<path id="Vector" d="M23.23 15.19L6.95 15.19L7.76 13.52L21.35 13.5C21.81 13.5 22.2 13.17 22.28 12.72L24.17 2.19C24.21 1.91 24.14 1.63 23.96 1.41C23.87 1.3 23.76 1.22 23.63 1.16C23.51 1.1 23.37 1.07 23.23 1.07L5.95 1.01L5.8 0.32C5.71 -0.13 5.31 -0.45 4.86 -0.45L0.63 -0.45C0.38 -0.45 0.13 -0.35 -0.05 -0.17C-0.23 0.01 -0.33 0.26 -0.33 0.51C-0.33 0.77 -0.23 1.02 -0.05 1.2C0.13 1.38 0.38 1.48 0.63 1.48L4.08 1.48L4.72 4.55L6.31 12.24L4.26 15.58C4.16 15.72 4.09 15.89 4.08 16.07C4.07 16.25 4.1 16.43 4.18 16.58C4.35 16.91 4.68 17.12 5.04 17.12L6.76 17.12C6.4 17.6 6.2 18.19 6.2 18.8C6.2 20.35 7.46 21.61 9 21.61C10.55 21.61 11.81 20.35 11.81 18.8C11.81 18.19 11.61 17.6 11.25 17.12L15.65 17.12C15.28 17.6 15.09 18.19 15.09 18.8C15.09 20.35 16.35 21.61 17.89 21.61C19.44 21.61 20.7 20.35 20.7 18.8C20.7 18.19 20.5 17.6 20.14 17.12L23.23 17.12C23.76 17.12 24.2 16.68 24.2 16.15C24.2 15.89 24.09 15.65 23.91 15.47C23.73 15.29 23.49 15.19 23.23 15.19ZM6.35 2.91L22.1 2.96L20.56 11.6L8.19 11.62L6.35 2.91ZM9 19.67C8.53 19.67 8.14 19.28 8.14 18.8C8.14 18.33 8.53 17.94 9 17.94C9.48 17.94 9.87 18.33 9.87 18.8C9.87 19.03 9.78 19.25 9.61 19.41C9.45 19.58 9.23 19.67 9 19.67ZM17.89 19.67C17.42 19.67 17.03 19.28 17.03 18.8C17.03 18.33 17.42 17.94 17.89 17.94C18.37 17.94 18.76 18.33 18.76 18.8C18.76 19.03 18.67 19.25 18.5 19.41C18.34 19.58 18.12 19.67 17.89 19.67Z" fill="#000000" fill-opacity="1.000000" fill-rule="nonzero"/>
</svg>
