<svg width="1241.000000" height="60.000000" viewBox="0 0 1241 60" fill="none" xmlns="http://www.w3.org/2000/svg" xmlns:xlink="http://www.w3.org/1999/xlink">
	<desc>
			Created with Pixso.
	</desc>
	<defs/>
	<line id="Line 4" x1="0.000000" y1="0.500000" x2="1240.014526" y2="0.500000" stroke="#D9D9D9" stroke-opacity="1.000000" stroke-width="1.000000"/>
	<path id="2023 furino. All rights reverved" d="M47.11 46.43L48.95 46.43L48.95 45.23L47.11 45.23L47.11 44.6Q47.11 43.74 47.5 43.36Q47.89 42.99 48.85 42.99L48.85 41.77Q47.17 41.77 46.41 42.45Q46.39 42.47 46.36 42.49Q45.65 43.17 45.65 44.6L45.65 45.23L44.51 45.23L44.51 46.43L45.65 46.43L45.65 54L47.11 54L47.11 46.43ZM67.19 43.72Q67.38 43.8 67.6 43.8Q67.79 43.8 67.96 43.74Q68.14 43.66 68.28 43.51Q68.41 43.38 68.48 43.23Q68.56 43.04 68.56 42.81Q68.56 42.57 68.47 42.38Q68.4 42.23 68.28 42.11Q68.14 41.96 67.96 41.89Q67.79 41.82 67.6 41.82Q67.38 41.82 67.19 41.9Q67.03 41.97 66.9 42.11Q66.77 42.23 66.7 42.38Q66.61 42.58 66.61 42.81Q66.61 43.03 66.69 43.22Q66.76 43.38 66.9 43.51Q67.03 43.65 67.19 43.72ZM128.13 43.72Q128.32 43.8 128.55 43.8Q128.74 43.8 128.9 43.74Q129.08 43.66 129.23 43.51Q129.35 43.38 129.42 43.23Q129.51 43.04 129.51 42.81Q129.51 42.57 129.42 42.38Q129.35 42.23 129.23 42.11Q129.08 41.96 128.9 41.89Q128.74 41.82 128.55 41.82Q128.32 41.82 128.13 41.9Q127.97 41.97 127.84 42.11Q127.72 42.23 127.64 42.38Q127.56 42.58 127.56 42.81Q127.56 43.03 127.64 43.22Q127.71 43.38 127.84 43.51Q127.97 43.65 128.13 43.72ZM111.14 54L111.14 42.16L109.68 42.16L109.68 54L111.14 54ZM115.07 54L115.07 42.16L113.62 42.16L113.62 54L115.07 54ZM148.46 45.38Q147.75 45.07 146.9 45.07Q145.96 45.07 145.19 45.44Q144.68 45.68 144.32 46.07Q144.14 46.26 144 46.48L144 42.16L142.55 42.16L142.55 54L144 54L144 49.15Q144 47.77 144.68 47.05Q144.87 46.86 145.08 46.72Q145.67 46.33 146.51 46.33Q147.38 46.33 147.97 46.74Q148.15 46.86 148.31 47.03L148.31 47.03Q148.96 47.72 148.96 49.03L148.96 54L150.4 54L150.4 48.83Q150.4 47.61 149.95 46.76Q149.64 46.19 149.17 45.81Q148.95 45.63 148.69 45.49Q148.57 45.43 148.46 45.38ZM230.88 47.22Q230.34 48.23 230.34 49.58Q230.34 50.9 230.88 51.94L230.88 51.95Q231.26 52.67 231.83 53.16Q232.08 53.39 232.38 53.57Q232.69 53.76 233.03 53.88Q233.72 54.14 234.5 54.14Q235.61 54.14 236.44 53.66Q236.46 53.65 236.48 53.64Q237.19 53.21 237.61 52.6Q237.69 52.48 237.76 52.35L237.76 54L239.23 54L239.23 42.16L237.76 42.16L237.76 46.8Q237.7 46.69 237.63 46.59Q237.18 45.96 236.42 45.56Q236.07 45.37 235.7 45.26Q235.13 45.08 234.51 45.08Q233.63 45.08 232.87 45.4Q232.62 45.5 232.38 45.64Q232.05 45.83 231.78 46.08Q231.24 46.55 230.88 47.22ZM31.98 43.64Q31.49 44.34 31.41 45.34L32.83 45.34Q32.91 44.75 33.21 44.33Q33.36 44.13 33.55 43.96Q33.59 43.93 33.64 43.89Q34.23 43.45 35.15 43.45Q36.17 43.45 36.72 43.96L36.73 43.96Q36.91 44.13 37.03 44.33Q37.28 44.75 37.28 45.32Q37.28 45.93 37 46.35Q36.82 46.61 36.53 46.79Q35.78 47.26 34.31 47.28L33.92 47.28L33.92 48.49L34.29 48.49Q35.91 48.49 36.7 49.02Q36.91 49.16 37.07 49.34Q37.51 49.86 37.51 50.75Q37.51 51.38 37.23 51.86Q37.1 52.08 36.92 52.26Q36.89 52.29 36.87 52.31Q36.29 52.84 35.22 52.84Q34.23 52.84 33.59 52.37Q33.5 52.31 33.43 52.24Q33.18 52.01 33.01 51.74Q32.71 51.27 32.64 50.67L31.24 50.67Q31.33 51.87 31.95 52.67Q32.16 52.95 32.45 53.19Q32.57 53.28 32.7 53.37Q33.73 54.07 35.24 54.07Q36.4 54.07 37.24 53.66Q37.91 53.32 38.31 52.78Q38.4 52.65 38.48 52.51Q38.56 52.38 38.62 52.24Q38.9 51.62 38.9 50.87Q38.9 49.71 38.34 48.97Q38.31 48.94 38.29 48.91Q38.13 48.71 37.94 48.55Q37.41 48.09 36.64 47.9L36.64 47.82Q37.15 47.7 37.55 47.43Q37.87 47.21 38.12 46.89Q38.3 46.66 38.43 46.4Q38.69 45.85 38.69 45.18Q38.69 44.53 38.45 43.99Q38.38 43.82 38.28 43.66Q38.23 43.57 38.16 43.48Q37.77 42.93 37.08 42.6Q36.29 42.2 35.2 42.2Q33.68 42.2 32.68 42.93Q32.61 42.98 32.54 43.03Q32.21 43.3 31.98 43.64ZM6 50.15Q4.85 51.19 2.82 52.83L2.82 53.87L10.51 53.87L10.51 52.65L5.01 52.65Q6.58 51.39 7.58 50.44Q8.6 49.48 9.39 48.23Q10.06 47.16 10.16 46.03Q10.18 45.84 10.18 45.64Q10.18 44.39 9.59 43.56Q9.42 43.33 9.21 43.13Q9.07 43 8.93 42.89Q8.01 42.22 6.6 42.22Q5.41 42.22 4.54 42.75Q4.23 42.94 3.96 43.19Q3.84 43.31 3.73 43.43Q2.92 44.38 2.87 45.96L4.28 45.96Q4.32 44.87 4.88 44.2Q4.9 44.17 4.92 44.15Q5.06 43.98 5.24 43.86Q5.78 43.47 6.61 43.47Q7.65 43.47 8.16 43.99Q8.2 44.03 8.23 44.07Q8.74 44.67 8.74 45.71Q8.74 46.81 7.94 47.96Q7.15 49.1 6 50.15ZM25.25 50.15Q24.1 51.19 22.07 52.83L22.07 53.87L29.76 53.87L29.76 52.65L24.26 52.65Q25.82 51.39 26.83 50.44Q27.84 49.48 28.63 48.23Q29.31 47.16 29.41 46.03Q29.43 45.84 29.43 45.64Q29.43 44.39 28.83 43.56Q28.67 43.33 28.46 43.13Q28.32 43 28.17 42.89Q27.26 42.22 25.84 42.22Q24.66 42.22 23.79 42.75Q23.47 42.94 23.2 43.19Q23.09 43.31 22.98 43.43Q22.17 44.38 22.11 45.96L23.52 45.96Q23.57 44.87 24.13 44.2Q24.15 44.17 24.17 44.15Q24.31 43.98 24.49 43.86Q25.03 43.47 25.86 43.47Q26.9 43.47 27.41 43.99Q27.44 44.03 27.48 44.07Q27.98 44.67 27.98 45.71Q27.98 46.81 27.19 47.96Q26.4 49.1 25.25 50.15ZM13.09 43.8Q12.19 45.34 12.19 48.09Q12.19 50.89 13.09 52.44Q13.35 52.89 13.71 53.2Q14.63 54 16.23 54Q17.8 54 18.71 53.22Q19.08 52.9 19.34 52.44Q20.24 50.89 20.24 48.09Q20.24 45.34 19.34 43.8Q19.09 43.35 18.72 43.04Q17.81 42.25 16.23 42.25Q14.62 42.25 13.7 43.05Q13.34 43.36 13.09 43.8ZM100.63 51.51L105.49 51.51L106.39 54L107.92 54L103.91 42.91L102.23 42.91L98.19 54L99.73 54L100.63 51.51ZM154.56 51.6L154.56 46.43L156.85 46.43L156.85 45.23L154.56 45.23L154.56 43.02L153.11 43.02L153.11 45.23L151.97 45.23L151.97 46.43L153.11 46.43L153.11 51.6Q153.11 52.87 153.72 53.44Q154.32 54 155.54 54L156.85 54L156.85 52.76L155.78 52.76Q155.11 52.76 154.83 52.5Q154.56 52.23 154.56 51.6ZM18.62 45.73Q18.8 46.7 18.8 48.09Q18.8 49.53 18.62 50.51Q18.43 51.48 17.87 52.08Q17.81 52.14 17.75 52.19Q17.19 52.67 16.23 52.67Q15.24 52.67 14.67 52.18Q14.62 52.13 14.57 52.08Q14 51.48 13.82 50.51Q13.64 49.53 13.64 48.09Q13.64 46.7 13.82 45.73Q14 44.76 14.57 44.17Q14.62 44.12 14.68 44.07Q15.24 43.58 16.23 43.58Q17.19 43.58 17.74 44.06Q17.81 44.11 17.87 44.17Q18.43 44.76 18.62 45.73ZM103.06 44.7L105.07 50.33L101.04 50.33L103.06 44.7ZM62.9 45.89Q62.56 46.21 62.34 46.65L62.34 45.23L60.88 45.23L60.88 54L62.34 54L62.34 49.23Q62.34 47.79 63.05 47.13Q63.66 46.57 64.79 46.57L65.17 46.57L65.17 45.07Q64.15 45.07 63.43 45.48Q63.14 45.66 62.9 45.89ZM77.11 45.6Q76.25 45.07 75.06 45.07Q74.31 45.07 73.67 45.32Q73.54 45.37 73.42 45.44Q72.96 45.67 72.61 46.01Q72.41 46.22 72.24 46.48L72.24 45.23L70.78 45.23L70.78 54L72.24 54L72.24 49.15Q72.24 47.77 72.92 47.05Q73.1 46.86 73.32 46.72Q73.91 46.33 74.75 46.33Q75.62 46.33 76.21 46.74Q76.39 46.86 76.55 47.03L76.55 47.03Q77.2 47.72 77.2 49.03L77.2 54L78.64 54L78.64 48.83Q78.64 47.17 77.82 46.22Q77.74 46.12 77.65 46.03Q77.4 45.79 77.11 45.6ZM123.84 45.89Q123.51 46.21 123.28 46.65L123.28 45.23L121.83 45.23L121.83 54L123.28 54L123.28 49.23Q123.28 47.79 124 47.13Q124.61 46.57 125.73 46.57L126.11 46.57L126.11 45.07Q125.09 45.07 124.38 45.48Q124.08 45.66 123.84 45.89ZM173.25 45.89Q172.91 46.21 172.69 46.65L172.69 45.23L171.23 45.23L171.23 54L172.69 54L172.69 49.23Q172.69 47.79 173.41 47.13Q174.01 46.57 175.14 46.57L175.52 46.57L175.52 45.07Q174.5 45.07 173.78 45.48Q173.49 45.66 173.25 45.89ZM208.03 45.89Q207.7 46.21 207.47 46.65L207.47 45.23L206.02 45.23L206.02 54L207.47 54L207.47 49.23Q207.47 47.79 208.19 47.13Q208.8 46.57 209.92 46.57L210.31 46.57L210.31 45.07Q209.28 45.07 208.57 45.48Q208.27 45.66 208.03 45.89ZM83.08 53.8Q83.89 54.14 84.85 54.14Q85.82 54.14 86.66 53.8Q86.9 53.7 87.12 53.58Q87.56 53.34 87.92 53.01Q88.4 52.58 88.74 51.99Q88.77 51.94 88.8 51.88Q89.35 50.89 89.35 49.6Q89.35 48.23 88.76 47.21Q88.42 46.61 87.94 46.18Q87.59 45.87 87.17 45.64Q86.99 45.54 86.81 45.46Q85.94 45.08 84.92 45.08Q83.87 45.08 82.99 45.47Q82.82 45.55 82.66 45.64Q82.27 45.85 81.95 46.13Q81.43 46.58 81.06 47.22Q81.04 47.26 81.02 47.3Q80.48 48.3 80.48 49.6Q80.48 50.96 81.05 51.99Q81.38 52.6 81.87 53.04Q82.21 53.35 82.62 53.58Q82.84 53.71 83.08 53.8ZM137.31 45.56Q136.46 45.08 135.35 45.08Q134.53 45.08 133.82 45.36Q133.51 45.48 133.23 45.64Q132.9 45.83 132.62 46.08Q132.09 46.55 131.73 47.22Q131.19 48.23 131.19 49.58Q131.19 50.9 131.73 51.94L131.73 51.95Q132.11 52.67 132.68 53.16Q132.93 53.39 133.23 53.57Q133.54 53.76 133.88 53.88Q134.57 54.14 135.35 54.14Q136.43 54.14 137.25 53.68Q137.29 53.65 137.33 53.63Q138.11 53.16 138.54 52.47Q138.58 52.41 138.61 52.35L138.61 54.19Q138.61 55.37 138.03 56.09Q137.95 56.2 137.85 56.3Q137.62 56.52 137.35 56.68Q136.73 57.05 135.89 57.05Q134.87 57.05 134.13 56.6Q134.11 56.58 134.08 56.56Q133.59 56.24 133.32 55.79Q133.17 55.55 133.09 55.28L131.65 55.28Q131.76 55.99 132.11 56.56Q132.45 57.1 133.01 57.5L133.02 57.51Q134.17 58.32 135.89 58.32Q137.16 58.32 138.1 57.79Q138.64 57.49 139.04 57.06Q139.35 56.73 139.57 56.32Q139.59 56.28 139.62 56.23Q140.08 55.33 140.08 54.19L140.08 45.23L138.61 45.23L138.61 46.83Q138.59 46.79 138.56 46.74Q138.15 46.05 137.34 45.58Q137.32 45.57 137.31 45.56ZM159.91 53.8Q160.71 54.14 161.71 54.14Q162.66 54.14 163.39 53.81Q164.07 53.5 164.46 52.98Q164.49 52.95 164.51 52.91Q164.69 52.65 164.79 52.37Q164.91 52.01 164.91 51.61Q164.9 50.88 164.55 50.41Q164.51 50.36 164.47 50.32Q164.24 50.04 163.95 49.84Q163.72 49.68 163.46 49.57Q162.87 49.32 161.92 49.07Q161.17 48.86 160.75 48.69Q160.32 48.52 160.04 48.25Q159.94 48.15 159.88 48.03Q159.76 47.81 159.76 47.53Q159.76 47.29 159.85 47.1Q159.96 46.84 160.23 46.65Q160.69 46.32 161.48 46.32Q162.32 46.32 162.82 46.73L162.83 46.73Q163.04 46.9 163.17 47.12Q163.35 47.43 163.38 47.83L164.84 47.83Q164.79 46.99 164.39 46.39Q164.18 46.07 163.88 45.82Q163.84 45.79 163.8 45.76Q162.92 45.08 161.52 45.08Q160.58 45.08 159.84 45.41Q159.11 45.74 158.71 46.3L158.71 46.3Q158.49 46.61 158.39 46.96Q158.31 47.23 158.31 47.53Q158.31 48.32 158.68 48.82Q158.71 48.86 158.75 48.9Q159.01 49.21 159.33 49.43Q159.55 49.58 159.8 49.69Q160.42 49.95 161.39 50.2Q162.47 50.48 162.98 50.76Q163.24 50.9 163.37 51.11Q163.49 51.33 163.49 51.61Q163.49 51.84 163.42 52.03Q163.3 52.32 163.01 52.54Q162.53 52.91 161.7 52.91Q160.8 52.91 160.25 52.49Q159.93 52.25 159.77 51.92Q159.66 51.69 159.64 51.42L158.13 51.42Q158.16 51.9 158.34 52.32Q158.46 52.59 158.64 52.83Q158.67 52.88 158.7 52.92Q159.16 53.48 159.91 53.8ZM185.15 50.16Q185.2 49.69 185.2 49.28Q185.2 48.18 184.77 47.29Q184.73 47.21 184.68 47.12Q184.45 46.7 184.13 46.36Q183.73 45.93 183.2 45.63Q183.17 45.61 183.13 45.59Q182.2 45.08 180.99 45.08Q179.75 45.08 178.78 45.6Q178.76 45.62 178.73 45.64Q178.34 45.86 178.01 46.15Q177.53 46.6 177.2 47.21Q176.66 48.23 176.66 49.6Q176.66 50.96 177.22 51.99Q177.57 52.63 178.07 53.08Q178.39 53.37 178.76 53.58Q178.9 53.66 179.05 53.73Q179.93 54.14 180.99 54.14Q182.42 54.14 183.41 53.49Q183.52 53.42 183.62 53.35Q184.17 52.94 184.52 52.4Q184.86 51.9 185.03 51.29L183.46 51.29Q183.32 51.68 183.09 51.98Q182.87 52.26 182.57 52.47Q181.94 52.91 180.99 52.91Q180.29 52.91 179.71 52.63Q179.35 52.46 179.03 52.18Q178.87 52.04 178.74 51.87Q178.21 51.2 178.15 50.16L185.15 50.16ZM204.05 50.16Q204.1 49.69 204.1 49.28Q204.1 48.18 203.66 47.29Q203.62 47.21 203.58 47.12Q203.35 46.7 203.03 46.36Q202.63 45.93 202.1 45.63Q202.06 45.61 202.02 45.59Q201.09 45.08 199.89 45.08Q198.65 45.08 197.68 45.6Q197.65 45.62 197.62 45.64Q197.23 45.86 196.91 46.15Q196.43 46.6 196.1 47.21Q195.55 48.23 195.55 49.6Q195.55 50.96 196.11 51.99Q196.46 52.63 196.97 53.08Q197.28 53.37 197.66 53.58Q197.8 53.66 197.95 53.73Q198.82 54.14 199.89 54.14Q201.31 54.14 202.31 53.49Q202.42 53.42 202.52 53.35Q203.06 52.94 203.42 52.4Q203.75 51.9 203.92 51.29L202.36 51.29Q202.22 51.68 201.98 51.98Q201.77 52.26 201.46 52.47Q200.84 52.91 199.89 52.91Q199.18 52.91 198.61 52.63Q198.24 52.46 197.93 52.18Q197.77 52.04 197.64 51.87Q197.11 51.2 197.04 50.16L204.05 50.16ZM228.91 50.16Q228.96 49.69 228.96 49.28Q228.96 48.18 228.53 47.29Q228.49 47.21 228.44 47.12Q228.21 46.7 227.89 46.36Q227.49 45.93 226.96 45.63Q226.93 45.61 226.89 45.59Q225.96 45.08 224.75 45.08Q223.51 45.08 222.54 45.6Q222.52 45.62 222.49 45.64Q222.1 45.86 221.77 46.15Q221.29 46.6 220.96 47.21Q220.42 48.23 220.42 49.6Q220.42 50.96 220.98 51.99Q221.33 52.63 221.83 53.08Q222.15 53.37 222.52 53.58Q222.66 53.66 222.81 53.73Q223.69 54.14 224.75 54.14Q226.18 54.14 227.17 53.49Q227.28 53.42 227.38 53.35Q227.93 52.94 228.28 52.4Q228.62 51.9 228.79 51.29L227.22 51.29Q227.08 51.68 226.85 51.98Q226.63 52.26 226.33 52.47Q225.7 52.91 224.75 52.91Q224.05 52.91 223.47 52.63Q223.11 52.46 222.79 52.18Q222.63 52.04 222.5 51.87Q221.97 51.2 221.91 50.16L228.91 50.16ZM58.42 54L58.42 45.23L56.96 45.23L56.96 50.04Q56.96 51.42 56.29 52.14Q56.13 52.31 55.94 52.44Q55.34 52.86 54.45 52.86Q53.58 52.86 52.99 52.45Q52.81 52.33 52.66 52.16Q52.65 52.16 52.64 52.15Q52 51.46 52 50.17L52 45.23L50.56 45.23L50.56 50.36Q50.56 51.58 51.04 52.43Q51.35 53 51.82 53.38Q52.05 53.56 52.32 53.7Q52.34 53.71 52.36 53.72Q53.16 54.12 54.16 54.12Q54.91 54.12 55.55 53.86Q55.68 53.81 55.8 53.75Q56.32 53.48 56.68 53.08Q56.84 52.9 56.96 52.7L56.96 54L58.42 54ZM68.31 54L68.31 45.23L66.85 45.23L66.85 54L68.31 54ZM129.25 54L129.25 45.23L127.79 45.23L127.79 54L129.25 54ZM193.11 45.23L190.39 52.65L187.65 45.23L186.08 45.23L189.52 54L191.22 54L194.66 45.23L193.11 45.23ZM217.97 45.23L215.25 52.65L212.52 45.23L210.95 45.23L214.39 54L216.08 54L219.52 45.23L217.97 45.23ZM183.33 47.54Q183.7 48.14 183.7 48.97L178.16 48.97Q178.26 47.94 178.8 47.28Q178.92 47.14 179.05 47.02Q179.36 46.74 179.72 46.57Q180.27 46.32 180.93 46.32Q181.61 46.32 182.18 46.56Q182.26 46.59 182.33 46.63Q182.65 46.79 182.9 47.02Q183.15 47.24 183.33 47.54ZM202.23 47.54Q202.59 48.14 202.59 48.97L197.06 48.97Q197.15 47.94 197.7 47.28Q197.81 47.14 197.95 47.02Q198.25 46.74 198.61 46.57Q199.16 46.32 199.83 46.32Q200.5 46.32 201.08 46.56Q201.15 46.59 201.23 46.63Q201.55 46.79 201.8 47.02Q202.04 47.24 202.23 47.54ZM227.09 47.54Q227.46 48.14 227.46 48.97L221.92 48.97Q222.02 47.94 222.56 47.28Q222.68 47.14 222.81 47.02Q223.12 46.74 223.48 46.57Q224.03 46.32 224.69 46.32Q225.37 46.32 225.94 46.56Q226.02 46.59 226.09 46.63Q226.41 46.79 226.66 47.02Q226.91 47.24 227.09 47.54ZM85.66 52.75Q85.27 52.86 84.85 52.86Q84.32 52.86 83.85 52.69Q83.63 52.62 83.41 52.5Q83.3 52.44 83.19 52.36Q82.69 52.01 82.36 51.41Q81.97 50.67 81.97 49.6Q81.97 48.54 82.37 47.8Q82.7 47.2 83.21 46.85Q83.32 46.77 83.44 46.71Q83.61 46.61 83.79 46.54Q84.31 46.35 84.9 46.35Q85.37 46.35 85.81 46.48Q86.09 46.56 86.35 46.71Q86.47 46.77 86.58 46.84Q87.1 47.2 87.44 47.8Q87.86 48.54 87.86 49.6Q87.86 50.65 87.43 51.39Q87.11 51.95 86.63 52.3Q86.48 52.41 86.32 52.49Q86 52.66 85.66 52.75ZM138.21 47.87Q138.61 48.6 138.61 49.6Q138.61 50.59 138.21 51.33Q137.92 51.87 137.48 52.23Q137.32 52.36 137.13 52.47Q136.89 52.6 136.64 52.69Q136.17 52.86 135.64 52.86Q135.08 52.86 134.59 52.68Q134.36 52.59 134.15 52.47Q133.99 52.38 133.86 52.27Q133.38 51.9 133.07 51.33Q132.67 50.59 132.67 49.58Q132.67 48.59 133.07 47.85Q133.38 47.28 133.86 46.92Q134 46.82 134.15 46.73Q134.35 46.61 134.57 46.53Q135.07 46.35 135.64 46.35Q136.16 46.35 136.62 46.51Q136.89 46.6 137.13 46.74Q137.32 46.85 137.49 46.98Q137.92 47.34 138.21 47.87ZM237.36 47.87Q237.76 48.6 237.76 49.6Q237.76 50.59 237.36 51.33Q237.07 51.87 236.63 52.23Q236.47 52.36 236.28 52.47Q236.05 52.6 235.79 52.69Q235.32 52.86 234.79 52.86Q234.23 52.86 233.74 52.68Q233.51 52.59 233.3 52.47Q233.15 52.38 233.01 52.27Q232.54 51.9 232.23 51.33Q231.83 50.59 231.83 49.58Q231.83 48.59 232.23 47.85Q232.54 47.28 233.01 46.92Q233.15 46.82 233.3 46.73Q233.51 46.61 233.73 46.53Q234.22 46.35 234.79 46.35Q235.31 46.35 235.78 46.51Q236.04 46.6 236.28 46.74Q236.47 46.85 236.64 46.98Q237.07 47.34 237.36 47.87ZM91.33 54.01Q91.51 54.09 91.73 54.09Q91.93 54.09 92.11 54.02Q92.27 53.95 92.41 53.8Q92.54 53.67 92.61 53.52Q92.69 53.33 92.69 53.1Q92.69 52.86 92.6 52.66Q92.53 52.52 92.41 52.4Q92.27 52.25 92.11 52.18Q91.93 52.11 91.73 52.11Q91.51 52.11 91.33 52.19Q91.16 52.26 91.03 52.4Q90.9 52.53 90.82 52.68Q90.74 52.87 90.74 53.1Q90.74 53.32 90.82 53.5Q90.89 53.67 91.03 53.8Q91.16 53.94 91.33 54.01Z" fill="#000000" fill-opacity="1.000000" fill-rule="evenodd"/>
</svg>
